<?xml version="1.0" encoding="utf-8"?>
<!-- Generator: Adobe Illustrator 19.1.0, SVG Export Plug-In . SVG Version: 6.00 Build 0)  -->
<!DOCTYPE svg PUBLIC "-//W3C//DTD SVG 1.1//EN" "http://www.w3.org/Graphics/SVG/1.1/DTD/svg11.dtd">
<svg version="1.1" id="Layer_1" xmlns="http://www.w3.org/2000/svg" xmlns:xlink="http://www.w3.org/1999/xlink" x="0px" y="0px"
	 viewBox="0 0 500 500" enable-background="new 0 0 500 500" xml:space="preserve">
<rect x="20" y="130" width="400" height="340"/>
<g>
	<path fill="#FFFFFF" d="M160,119.5v40c0,16.6-13.4,30.5-30,30.5h-20c-16.6,0-30-13.9-30-30.5v-40.1c0-1,0.1-2,0.2-3
		c0.6-5.5,2.6-10.6,5.8-14.9c0.6-0.8,1.2-1.3,1.8-2c5.5-6,13.4-9.6,22.2-9.6h20C146.6,90,160,102.9,160,119.5z"/>
	<path d="M150,120v40c0,11-8.9,20-20,20h-20c-11.1,0-20-9-20-20v-40c0-11,8.9-20,20-20h20C141.1,100,150,109,150,120z"/>
</g>
<g>
	<path fill="#FFFFFF" d="M360,119.5v40c0,16.6-13.4,30.5-30,30.5h-20c-16.6,0-30-13.9-30-30.5v-40.1c0-1,0.1-2,0.2-3
		c0.6-5.5,2.6-10.6,5.8-14.9c0.6-0.8,1.2-1.3,1.8-2c5.5-6,13.4-9.6,22.2-9.6h20C346.6,90,360,102.9,360,119.5z"/>
	<path d="M350,120v40c0,11-8.9,20-20,20h-20c-11.1,0-20-9-20-20v-40c0-11,8.9-20,20-20h20C341.1,100,350,109,350,120z"/>
</g>
<rect x="40" y="210" fill="#FFFFFF" width="360" height="240"/>
<g>
	
		<rect x="188.6" y="243.6" transform="matrix(-0.7071 0.7071 -0.7071 -0.7071 570.0181 313.8889)" fill="#FF9500" width="62.7" height="62.7"/>
	<path d="M220,236.3l38.7,38.7L220,313.7L181.3,275L220,236.3 M220,225l-50,50l50,50l50-50L220,225L220,225z"/>
</g>
<g>
	<polygon fill="#FF3A30" points="311.1,432 283,403.9 283,366.1 310.9,340 349.1,340 375,365.9 375,404.3 349.2,432 	"/>
	<path d="M347.2,344l23.8,23.6v35.1L347.4,428h-34.6L287,402.2v-34.4l25.5-23.8H347 M350.7,336h-41.4L279,364.3v41.2l30.5,30.5h41.4
		l28.1-30.1v-41.6L350.7,336L350.7,336z"/>
</g>
<circle fill="#FFFFFF" cx="420" cy="370" r="60"/>
<path fill="#FFFFFF" d="M422,380.2L422,380.2c-24.9,0-45-20.1-45-45V108.5c0-24.9,20.1-45,45-45h0c24.9,0,45,20.1,45,45v226.7
	C467,360,446.9,380.2,422,380.2z"/>
<path d="M456,335.3V109c0-9.7-3.9-18.4-10.3-24.8C439.4,77.9,430.7,74,421,74c-19.3,0-35,15.7-35,35v224.3
	c-9,8.5-15.1,20.3-15.9,33.5c-0.1,1-0.1,2.1-0.1,3.1s0,2.1,0.1,3.1c1.6,26.1,23.3,46.9,49.9,46.9c27.6,0,50-22.4,50-50
	C470,356.5,464,344.3,456,335.3z M411.9,130H396v-18c0-13.8,11.2-25,25-25c6.9,0,13.2,2.8,17.7,7.3c4.5,4.5,7.3,10.8,7.3,17.7v215.3
	c-8-4.6-16.5-7.3-26-7.3c-8.7,0-17,2.2-24,6.1V290h15.9c1.4,0,2.6-0.6,3.5-1.5c0.9-0.9,1.5-2.2,1.5-3.5c0-2.8-2.2-5-5-5H396v-40
	h14.9c1.4,0,2.6-0.6,3.5-1.5c0.9-0.9,1.5-2.2,1.5-3.5c0-2.8-2.2-5-5-5H396v-40h14.9c1.4,0,2.6-0.6,3.5-1.5c0.9-0.9,1.5-2.2,1.5-3.5
	c0-2.8-2.2-5-5-5H396v-40h15.9c1.4,0,2.6-0.5,3.5-1.4c0.9-0.9,1.5-2.1,1.5-3.5c0,0,0-0.1,0-0.2C416.9,132.3,414.7,130,411.9,130z
	 M419.6,410c-22,0-39.8-17.9-39.8-40c0-8.4,2.7-16.2,7.1-22.6c2.5-3.6,5.6-6.8,9-9.4c6.7-5,15-8,24-8c9.9,0,19,3.6,26,9.6
	c3.3,2.8,6,6.2,8.2,9.9c3.6,6,5.4,13,5.4,20.5C459.6,392.1,441.6,410,419.6,410z"/>
<g>
	
		<rect x="78.6" y="353.6" transform="matrix(-0.7071 0.7071 -0.7071 -0.7071 460.0179 579.4543)" fill="#FF9500" width="62.7" height="62.7"/>
	<path d="M110,346.3l38.7,38.7L110,423.7L71.3,385L110,346.3 M110,335l-50,50l50,50l50-50L110,335L110,335z"/>
</g>
<g>
	
		<rect x="188.6" y="353.6" transform="matrix(-0.7071 0.7071 -0.7071 -0.7071 647.7996 501.6726)" fill="#FF9500" width="62.7" height="62.7"/>
	<path d="M220,346.3l38.7,38.7L220,423.7L181.3,385L220,346.3 M220,335l-50,50l50,50l50-50L220,335L220,335z"/>
</g>
<g>
	<polygon fill="#FFCC00" points="67.2,240 152.8,240 110,308.5 	"/>
	<path d="M145.8,244l-35.7,56.9L74.4,244H146 M160,236H60l50,80L160,236L160,236z"/>
</g>
<g>
	<polygon fill="#FFCC00" points="287.2,240 372.8,240 330,308.5 	"/>
	<path d="M365.8,244l-35.7,56.9L294.4,244H366 M380,236H280l50,80L380,236L380,236z"/>
</g>
</svg>
