<?xml version="1.0" encoding="utf-8"?>
<!-- Generator: Adobe Illustrator 19.1.0, SVG Export Plug-In . SVG Version: 6.00 Build 0)  -->
<!DOCTYPE svg PUBLIC "-//W3C//DTD SVG 1.1//EN" "http://www.w3.org/Graphics/SVG/1.1/DTD/svg11.dtd">
<svg version="1.1" id="Layer_1" xmlns="http://www.w3.org/2000/svg" xmlns:xlink="http://www.w3.org/1999/xlink" x="0px" y="0px"
	 viewBox="0 0 500 500" enable-background="new 0 0 500 500" xml:space="preserve">
<circle fill="#FFFFFF" cx="250" cy="250" r="250"/>
<path d="M250,450L250,450c-13.8,0-25-11.2-25-25V75c0-13.8,11.2-25,25-25l0,0c13.8,0,25,11.2,25,25v350C275,438.8,263.8,450,250,450
	z"/>
<path d="M425,275H75c-13.8,0-25-11.2-25-25l0,0c0-13.8,11.2-25,25-25h350c13.8,0,25,11.2,25,25l0,0C450,263.8,438.8,275,425,275z"/>
</svg>
