<?xml version="1.0" encoding="utf-8"?>
<!-- Generator: Adobe Illustrator 19.1.0, SVG Export Plug-In . SVG Version: 6.00 Build 0)  -->
<!DOCTYPE svg PUBLIC "-//W3C//DTD SVG 1.1//EN" "http://www.w3.org/Graphics/SVG/1.1/DTD/svg11.dtd">
<svg version="1.1" id="Layer_1" xmlns="http://www.w3.org/2000/svg" xmlns:xlink="http://www.w3.org/1999/xlink" x="0px" y="0px"
	 viewBox="0 0 500 500" enable-background="new 0 0 500 500" xml:space="preserve">
<path d="M468.8,196.8L420,225c-19.8,11.4-45,5.1-57-14.2v208.7c0,23.4-19.1,42.4-42.5,42.4H179.5c-23.4,0-42.5-19.1-42.5-42.4V210.8
	c-12,19.2-37.2,25.6-57,14.2l-48.8-28.2C10.9,185.1,4,159.2,15.7,139l45.9-79.4c8.7-15,25.2-22.5,41.4-20.7c0.6,0,1.2,0.2,1.8,0.2
	h60.6c0,23,37.9,42.3,84.7,42.3S334.7,62,334.7,39h60.6c0.6,0,1.2-0.2,1.7-0.2c16.2-1.8,32.7,5.8,41.4,20.8l45.9,79.4
	C496,159.3,489,185.1,468.8,196.8z"/>
</svg>
