<?xml version="1.0" encoding="utf-8"?>
<!-- Generator: Adobe Illustrator 19.1.0, SVG Export Plug-In . SVG Version: 6.00 Build 0)  -->
<!DOCTYPE svg PUBLIC "-//W3C//DTD SVG 1.1//EN" "http://www.w3.org/Graphics/SVG/1.1/DTD/svg11.dtd">
<svg version="1.1" id="Layer_1" xmlns="http://www.w3.org/2000/svg" xmlns:xlink="http://www.w3.org/1999/xlink" x="0px" y="0px"
	 viewBox="0 0 500 500" enable-background="new 0 0 500 500" xml:space="preserve">
<path d="M460,385v50c0,13.8-11.2,25-25,25H65c-13.8,0-25-11.2-25-25v-50c0-13.8,11.2-25,25-25c6.9,0,13.2,2.8,17.7,7.3
	c4.5,4.5,7.3,10.8,7.3,17.7v25h320v-25c0-6.9,2.8-13.2,7.3-17.7c4.5-4.5,10.8-7.3,17.7-7.3s13.2,2.8,17.7,7.3
	C457.2,371.8,460,378.1,460,385z"/>
<path d="M370.7,236.1L267.1,354c-9.1,10.3-25.1,10.3-34.2,0L129.3,236.1c-7.5-8.6-7.5-21.4,0-30l0,0c9.1-10.3,25.1-10.3,34.2,0
	l69.4,79c9.1,10.3,25.1,10.3,34.2,0l69.4-79c9.1-10.3,25.1-10.3,34.2,0l0,0C378.2,214.6,378.2,227.5,370.7,236.1z"/>
<path d="M250,325L250,325c-13.8,0-25-11.2-25-25V100c0-13.8,11.2-25,25-25h0c13.8,0,25,11.2,25,25v200C275,313.8,263.8,325,250,325z
	"/>
</svg>
