<?xml version="1.0" encoding="utf-8"?>
<!-- Generator: Adobe Illustrator 19.1.0, SVG Export Plug-In . SVG Version: 6.00 Build 0)  -->
<!DOCTYPE svg PUBLIC "-//W3C//DTD SVG 1.1//EN" "http://www.w3.org/Graphics/SVG/1.1/DTD/svg11.dtd">
<svg version="1.1" id="Layer_1" xmlns="http://www.w3.org/2000/svg" xmlns:xlink="http://www.w3.org/1999/xlink" x="0px" y="0px"
	 viewBox="0 0 400 400" enable-background="new 0 0 400 400" xml:space="preserve">
<polygon points="400,117.1 400,283.6 283.6,400 117.9,400 0,282 0,117.3 117.3,0 282.9,0 "/>
<polygon fill="#FF3A30" points="380,125.4 380,275.2 275.2,380 126.2,380 20,273.8 20,125.6 125.6,20 274.6,20 "/>
<path fill="#FF3A30" d="M250.2,324c0,27.6-22.2,50-49.8,50c-26.6,0-48.3-20.7-49.9-46.9c-0.1-1-0.1-2.1-0.1-3.1s-0.1-2.1-0.1-3.1
	c0.8-13.2,6.7-25,15.7-33.5V63c0-19.3,15.8-35,35.1-35c9.7,0,18.5,3.9,24.8,10.2C232.2,44.6,236,53.3,236,63v226.3
	C244,298.3,250.2,310.5,250.2,324z"/>
<path d="M222,253V117.2c0-5.8-2.7-11.1-6.5-14.9c-3.8-3.8-8.9-6.2-14.7-6.2c-11.6,0-20.8,9.4-20.8,21v134.7
	c-6,5.1-9.4,12.2-9.8,20.1c0,0.6-0.2,1.3-0.2,1.9c0,0.6,0,1.3,0,1.9c1,15.7,13.9,28.1,29.9,28.1c16.6,0,30.3-13.4,30.3-30
	C230.1,265.8,226,258.4,222,253z M186,226h8.9c0.8,0,1.6-0.4,2.1-1c0.5-0.5,0.9-1.2,0.9-2.1c0-1.7-1.3-3-3-3H186v-24h8.7
	c0,0,0.1-0.1,0.1-0.1c1.7,0,3.1-1.4,3.1-3.1s-0.9-3.1-2.9-3.1v0c0,0-0.2,0-0.3,0c0,0-0.1,0-0.1,0c0,0,0,0.1,0,0.1
	c-0.1,0-0.1,0.1-0.2,0.1H186v-24h8.9c1.7,0,3.1-1.5,3.1-3.1c0-1.7-0.9-3.1-2.9-3.1v0c0,0-0.2,0-0.3,0c0,0-0.1,0.1-0.1,0.1
	c-0.1,0-0.2,0.1-0.3,0.1H186v-24h8.9c1.7,0,3-1.3,3-3s-1.3-3-3-3H186v-11c0-8.3,6.4-15,14.7-15c4.1,0,8.1,1.7,10.8,4.4
	c2.7,2.7,4.6,6.5,4.6,10.6v129.2c-5-2.8-9.9-4.4-15.6-4.4c-5.2,0-10.4,1.3-14.4,3.7V226z M199.7,297.9c-13.2,0-24-10.8-24-24
	c0-5,1.6-9.7,4.2-13.6c1.5-2.2,3.3-4.1,5.4-5.6c4-3,9-4.8,14.4-4.8c5.9,0,11.4,2.2,15.6,5.8c2,1.7,3.7,3.7,5,6
	c2.1,3.6,3.4,7.8,3.4,12.3C223.7,287.1,213,297.9,199.7,297.9z"/>
</svg>
