<?xml version="1.0" encoding="utf-8"?>
<!-- Generator: Adobe Illustrator 19.1.0, SVG Export Plug-In . SVG Version: 6.00 Build 0)  -->
<!DOCTYPE svg PUBLIC "-//W3C//DTD SVG 1.1//EN" "http://www.w3.org/Graphics/SVG/1.1/DTD/svg11.dtd">
<svg version="1.1" id="Layer_1" xmlns="http://www.w3.org/2000/svg" xmlns:xlink="http://www.w3.org/1999/xlink" x="0px" y="0px"
	 viewBox="0 0 100 346" enable-background="new 0 0 100 346" xml:space="preserve">
<path fill="#4CD964" d="M100,296c0,27.6-22.4,50-50,50S0,323.6,0,296c0-14.5,6.2-27.5,16-36.7V211h70v50.3
	C94.7,270.3,100,282.5,100,296z"/>
<path d="M86,261.3V35c0-9.7-3.9-18.4-10.2-24.8C69.4,3.9,60.7,0,51,0C31.7,0,16,15.7,16,35v224.3C6.2,268.5,0,281.5,0,296
	c0,27.6,22.4,50,50,50s50-22.4,50-50C100,282.5,94.7,270.3,86,261.3z M42,206H26v-40h15c1.4,0,2.6-0.6,3.5-1.5
	c0.9-0.9,1.5-2.2,1.5-3.5c0-2.8-2.2-5-5-5H26v-40h15c1.4,0,2.6-0.6,3.5-1.5c0.9-0.9,1.5-2.2,1.5-3.5c0-2.8-2.2-5-5-5H26V66h16
	c1.4,0,2.6-0.5,3.5-1.4c0.9-0.9,1.5-2.1,1.5-3.5c0-2.8-2.2-5.2-5-5.2H26V38c0-13.8,11.2-25,25-25c6.9,0,13.2,2.8,17.7,7.3
	C73.2,24.8,76,31.1,76,38v215.3c-7.6-4.6-16.5-7.3-26-7.3c-8.7,0-16.9,2.2-24,6.1V216h16c1.4,0,2.6-0.6,3.5-1.5
	c0.9-0.9,1.5-2.2,1.5-3.5C47,208.2,44.8,206,42,206z M50,336c-22.1,0-40-17.9-40-40c0-8.4,2.6-16.2,7-22.6c2.5-3.6,5.5-6.8,9-9.4
	c6.7-5,15-8,24-8c9.9,0,19,3.6,26,9.6c3.3,2.8,6.1,6.2,8.4,9.9c3.6,6,5.6,13,5.6,20.5C90,318.1,72.1,336,50,336z"/>
</svg>
