<?xml version="1.0" encoding="utf-8"?>
<!-- Generator: Adobe Illustrator 19.1.0, SVG Export Plug-In . SVG Version: 6.00 Build 0)  -->
<!DOCTYPE svg PUBLIC "-//W3C//DTD SVG 1.1//EN" "http://www.w3.org/Graphics/SVG/1.1/DTD/svg11.dtd">
<svg version="1.1" id="Layer_1" xmlns="http://www.w3.org/2000/svg" xmlns:xlink="http://www.w3.org/1999/xlink" x="0px" y="0px"
	 viewBox="0 0 100 346" enable-background="new 0 0 100 346" xml:space="preserve">
<path fill="#FF3A30" d="M100,296c0,3.5-0.3,6.8-1,10.1c-0.2,0.8-0.4,1.6-0.6,2.4c-0.1,0.4-0.2,0.8-0.3,1.2c-0.3,1.2-0.7,2.3-1.1,3.5
	c-0.1,0.4-0.3,0.8-0.4,1.1c-0.3,0.8-0.6,1.5-1,2.2c-0.5,1-1,2-1.5,3c-0.3,0.5-0.5,1-0.8,1.5c-7.5,12.9-20.7,22.2-36.1,24.5
	c-1.1,0.2-2.3,0.3-3.5,0.4c-1.2,0.1-2.5,0.2-3.8,0.2c-1.2,0-2.5,0-3.7-0.1c-0.4,0-0.7,0-1.1-0.1c-0.7-0.1-1.4-0.1-2.1-0.2
	c-0.3,0-0.7,0-1,0c-2.4-0.4-4.8-1.5-7.1-1.5h0c-1.3-1-2.6-1-3.9-1.5c-0.3-0.1-0.6-0.3-0.9-0.5c-1.8-0.8-3.5-1.7-5.2-2.6
	c-0.4-0.2-0.8-0.5-1.1-0.7C12.4,331.5,4,320,1.1,306.3c-0.5-2.3-0.9-4.8-1.1-7.2v-6.3c0.1-1.4,0.3-2.9,0.5-4.3
	c1.6-10.3,6.3-19.5,13-26.8c0.3-0.3,0.5-0.6,0.8-0.8c0.3-0.3,0.5-0.6,0.8-0.8c0.3-0.3,0.5-0.5,0.8-0.8V35C16,15.7,31.6,0,51,0
	c9.7,0,18.4,3.9,24.7,10.2C82,16.6,86,25.3,86,35v226.3C94,270.3,100,282.5,100,296z"/>
<path d="M86,261.3V35c0-9.7-4-18.4-10.3-24.8C69.4,3.9,60.6,0,51,0C31.6,0,16,15.7,16,35v224.3c0,0.3-0.5,0.5-0.8,0.8
	c-0.3,0.3-0.5,0.6-0.8,0.8c-0.3,0.3-0.5,0.5-0.8,0.8c-6.7,7.2-11.5,16.5-13,26.8c-0.2,1.4-0.4,2.8-0.5,4.3c0,0.4,0,0.8,0,1.2
	c0,0.7,0,1.3,0,2c0,0.3,0,0.7,0,1c0,0.7,0,1.4,0.1,2.1c0.1,2.4,0.5,4.9,1,7.2c2.9,13.6,11.2,25.2,22.7,32.3c0.4,0.2,0.7,0.5,1.1,0.7
	c1.7,1,3.4,1.9,5.2,2.6c0.3,0.1,0.6,0.4,0.9,0.6c1.3,0.5,2.6,0.6,3.9,1.6h0c2.3,0,4.7,1.1,7.1,1.5c0.3,0,0.7,0,1,0.1
	c0.7,0.1,1.4,0.1,2.1,0.2c0.4,0,0.7,0.1,1.1,0.1c1.2,0.1,2.5,0.1,3.7,0.1c1.3,0,2.5-0.1,3.8-0.2c1.2-0.1,2.3-0.2,3.5-0.4
	c15.4-2.2,28.6-11.5,36.1-24.5c0.3-0.5,0.5-1,0.8-1.5c0.5-1,1-2,1.5-3c0.3-0.7,0.7-1.5,1-2.2c0.2-0.4,0.3-0.8,0.4-1.2
	c0.4-1.2,0.8-2.3,1.1-3.5c0.1-0.4,0.2-0.8,0.3-1.2c0.2-0.8,0.4-1.6,0.6-2.4c0.7-3.2,1-6.6,1-10.1C100,282.5,94,270.3,86,261.3z
	 M41.9,56H26V38c0-13.8,11.2-25,25-25c6.9,0,13.2,2.8,17.7,7.3C73.2,24.8,76,31.1,76,38v215.3c-8-4.6-16.5-7.3-26-7.3
	c-8.7,0-17,2.2-24,6.1V216h15.9c1.4,0,2.6-0.6,3.5-1.5c0.9-0.9,1.5-2.2,1.5-3.5c0-2.8-2.2-5-5-5H26v-40h14.9c1.4,0,2.6-0.6,3.5-1.5
	c0.9-0.9,1.5-2.2,1.5-3.5c0-2.8-2.2-5-5-5H26v-40h14.9c1.4,0,2.6-0.6,3.5-1.5c0.9-0.9,1.5-2.2,1.5-3.5c0-1.3-0.5-2.5-1.3-3.4
	c-0.8-0.9-2-1.5-3.3-1.6c-0.1,0-0.2,0-0.3,0H26V66h15.9c1.4,0,2.6-0.5,3.5-1.4c0.9-0.9,1.5-2.1,1.5-3.5c0,0,0-0.1,0-0.2
	C46.8,58.3,44.6,56,41.9,56z M49.9,336c-22.1,0-40-17.9-40-40c0-8.4,2.6-16.2,7-22.6c2.5-3.6,5.5-6.8,9-9.4c6.7-5,15-8,24-8
	c9.9,0,19,3.6,26,9.6c3.3,2.8,6.1,6.2,8.4,9.9c3.6,6,5.6,13,5.6,20.5C89.9,318.1,72,336,49.9,336z"/>
</svg>
