<?xml version="1.0" encoding="utf-8"?>
<!-- Generator: Adobe Illustrator 19.1.0, SVG Export Plug-In . SVG Version: 6.00 Build 0)  -->
<!DOCTYPE svg PUBLIC "-//W3C//DTD SVG 1.1//EN" "http://www.w3.org/Graphics/SVG/1.1/DTD/svg11.dtd">
<svg version="1.1" id="Layer_1" xmlns="http://www.w3.org/2000/svg" xmlns:xlink="http://www.w3.org/1999/xlink" x="0px" y="0px"
	 viewBox="0 0 100 346" enable-background="new 0 0 100 346" xml:space="preserve">
<path fill="#FFCC00" d="M99.9,296c0,27.6-22.5,50-50.1,50C23.3,346,1.6,325.3,0,299.1v-6.3c0.8-13.2,6.7-25,16-33.5V161h70v100.3
	C94,270.3,99.9,282.5,99.9,296z"/>
<path d="M86,261.3V35c0-9.7-4-18.4-10.3-24.8C69.3,3.9,60.6,0,51,0C31.6,0,16,15.7,16,35v224.3c-9.3,8.5-15.2,20.3-16,33.5
	c-0.1,1-0.1,2.1-0.1,3.1s0,2.1,0.1,3.1C1.6,325.3,23.3,346,49.8,346c27.6,0,50.1-22.4,50.1-50C99.9,282.5,94,270.3,86,261.3z
	 M41.8,56H26V38c0-13.8,11.1-25,24.9-25c6.9,0,13.2,2.8,17.7,7.3C73.2,24.8,76,31.1,76,38v215.3c-8-4.6-16.5-7.3-26-7.3
	c-8.7,0-17,2.2-24,6.1V216h15.8c1.4,0,2.6-0.6,3.5-1.5c0.9-0.9,1.5-2.2,1.5-3.5c0-2.8-2.2-5-5-5H26v-40h14.8c1.4,0,2.6-0.6,3.5-1.5
	c0.9-0.9,1.5-2.2,1.5-3.5c0-2.8-2.2-5-5-5H26v-40h14.8c1.4,0,2.6-0.6,3.5-1.5c0.9-0.9,1.5-2.2,1.5-3.5c0-2.8-2.2-5-5-5H26V66h15.8
	c1.4,0,2.6-0.5,3.5-1.4c0.9-0.9,1.5-2.1,1.5-3.5c0,0,0-0.1,0-0.2C46.7,58.3,44.5,56,41.8,56z M49.8,336c-22.1,0-40-17.9-40-40
	c0-8.4,2.6-16.2,7-22.6c2.5-3.6,5.5-6.8,9-9.4c6.7-5,15-8,24-8c9.9,0,19,3.6,26,9.6c3.3,2.8,6.1,6.2,8.4,9.9c3.6,6,5.6,13,5.6,20.5
	C89.8,318.1,71.9,336,49.8,336z"/>
</svg>
