<?xml version="1.0" encoding="utf-8"?>
<!-- Generator: Adobe Illustrator 19.1.0, SVG Export Plug-In . SVG Version: 6.00 Build 0)  -->
<!DOCTYPE svg PUBLIC "-//W3C//DTD SVG 1.1//EN" "http://www.w3.org/Graphics/SVG/1.1/DTD/svg11.dtd">
<svg version="1.1" id="Layer_1" xmlns="http://www.w3.org/2000/svg" xmlns:xlink="http://www.w3.org/1999/xlink" x="0px" y="0px"
	 viewBox="0 0 500 500" enable-background="new 0 0 500 500" xml:space="preserve">
<polygon points="420,160 420,230 220,230 "/>
<polygon points="420,230 420,480 180,480 180,320 60,320 60,480 20,480 20,230 "/>
<rect x="220" y="380" fill="#FFFFFF" width="40" height="40"/>
<polygon points="220,160 220,230 20,230 "/>
<circle fill="#FFFFFF" cx="420" cy="380" r="60"/>
<path fill="#FFFFFF" d="M422,390.2L422,390.2c-24.9,0-45-20.1-45-45V118.5c0-24.9,20.1-45,45-45h0c24.9,0,45,20.1,45,45v226.7
	C467,370,446.9,390.2,422,390.2z"/>
<path d="M456,345.3V119c0-9.7-3.9-18.4-10.3-24.8C439.4,87.9,430.7,84,421,84c-19.3,0-35,15.7-35,35v224.3
	c-9,8.5-15.1,20.3-15.9,33.5c-0.1,1-0.1,2.1-0.1,3.1s0,2.1,0.1,3.1c1.6,26.1,23.3,46.9,49.9,46.9c27.6,0,50-22.4,50-50
	C470,366.5,464,354.3,456,345.3z M411.9,140H396v-18c0-13.8,11.2-25,25-25c6.9,0,13.2,2.8,17.7,7.3c4.5,4.5,7.3,10.8,7.3,17.7v215.3
	c-8-4.6-16.5-7.3-26-7.3c-8.7,0-17,2.2-24,6.1V300h15.9c1.4,0,2.6-0.6,3.5-1.5c0.9-0.9,1.5-2.2,1.5-3.5c0-2.8-2.2-5-5-5H396v-40
	h14.9c1.4,0,2.6-0.6,3.5-1.5c0.9-0.9,1.5-2.2,1.5-3.5c0-2.8-2.2-5-5-5H396v-40h14.9c1.4,0,2.6-0.6,3.5-1.5c0.9-0.9,1.5-2.2,1.5-3.5
	c0-2.8-2.2-5-5-5H396v-40h15.9c1.4,0,2.6-0.5,3.5-1.4c0.9-0.9,1.5-2.1,1.5-3.5c0,0,0-0.1,0-0.2C416.9,142.3,414.7,140,411.9,140z
	 M419.6,420c-22,0-39.8-17.9-39.8-40c0-8.4,2.7-16.2,7.1-22.6c2.5-3.6,5.6-6.8,9-9.4c6.7-5,15-8,24-8c9.9,0,19,3.6,26,9.6
	c3.3,2.8,6,6.2,8.2,9.9c3.6,6,5.4,13,5.4,20.5C459.6,402.1,441.6,420,419.6,420z"/>
</svg>
