<?xml version="1.0" encoding="utf-8"?>
<!-- Generator: Adobe Illustrator 19.1.0, SVG Export Plug-In . SVG Version: 6.00 Build 0)  -->
<!DOCTYPE svg PUBLIC "-//W3C//DTD SVG 1.1//EN" "http://www.w3.org/Graphics/SVG/1.1/DTD/svg11.dtd">
<svg version="1.1" id="Layer_1" xmlns="http://www.w3.org/2000/svg" xmlns:xlink="http://www.w3.org/1999/xlink" x="0px" y="0px"
	 viewBox="0 0 500 500" enable-background="new 0 0 500 500" xml:space="preserve">
<path fill="#FFFFFF" d="M482.6,119.1c0,7.4-1.9,14.3-5.2,20.3l-0.7,1.2c0,0,0,0.2-0.1,0.3L308.7,431.8c-5.6,9.7-16,15.7-27.2,15.7
	h-63c-11.2,0-21.6-6-27.2-15.7l-168-291.1c-1.4-2.4-2.6-5-3.6-7.6c-1.6-4.4-2.4-9.2-2.4-14.1s0.8-9.6,2.4-14
	c5.7-16.1,20.9-27.5,38.8-27.5h382.8C464.2,77.5,482.6,96,482.6,119.1z"/>
<g>
	<path fill="#111820" d="M472.7,119.9c0-17.9-16-31.8-33.7-31.8c-0.6,0,0.6,0,0,0c-0.6,0-1.4-0.1-2.1-0.1H62.4c-0.6,0-1.4,0-1.9,0
		C42.7,88,29,102,29,119.9v0.6c0,2.5,0.1,4.5,0.6,6.4c0,0-0.1,0.1,0,0.1c0.9,4.2,2.6,8,4.9,11.4l2.9,6L71.7,206h358.2l35.2-63.5
		l2.2-4.5c1.8-2.7,3.1-5.7,4.1-8.9c0.9-2.5,1.3-4.7,1.3-8c0-0.2,0-0.4,0-0.6C472.7,120.3,472.7,120.1,472.7,119.9z M250.4,181
		c-21.9,0-39.7-17.8-39.7-39.6c0-21.9,17.8-39.6,39.7-39.6s39.7,17.7,39.7,39.6C290.1,163.2,272.4,181,250.4,181z"/>
	<path fill="#EC1C2C" d="M400.7,255L298,429.9l-2.9,4.6c-2,1.9-5.4,2.9-8.4,2.9c-6.1,0-11.7-5.1-11.7-11.2V255H400.7z"/>
	<path fill="#EC1C2C" d="M98.8,255l102.7,174.9l2.9,4.6c2,1.9,5.7,2.9,8.6,2.9c6.1,0,11.9-5.1,11.9-11.2V255H98.8z"/>
</g>
<g>
	<circle fill="#FFFFFF" cx="381.1" cy="359" r="60"/>
	<path fill="#FFFFFF" d="M383.1,369.2L383.1,369.2c-24.9,0-45-20.1-45-45V97.5c0-24.9,20.1-45,45-45l0,0c24.9,0,45,20.1,45,45v226.7
		C428.1,349,408,369.2,383.1,369.2z"/>
	<path d="M417.1,324.3V98c0-9.7-3.9-18.4-10.3-24.8c-6.3-6.3-15-10.2-24.7-10.2c-19.3,0-35,15.7-35,35v224.3
		c-9,8.5-15.1,20.3-15.9,33.5c-0.1,1-0.1,2.1-0.1,3.1s0,2.1,0.1,3.1c1.6,26.1,23.3,46.9,49.9,46.9c27.6,0,50-22.4,50-50
		C431.1,345.5,425.1,333.3,417.1,324.3z M373,119h-15.9v-18c0-13.8,11.2-25,25-25c6.9,0,13.2,2.8,17.7,7.3s7.3,10.8,7.3,17.7v215.3
		c-8-4.6-16.5-7.3-26-7.3c-8.7,0-17,2.2-24,6.1V279H373c1.4,0,2.6-0.6,3.5-1.5s1.5-2.2,1.5-3.5c0-2.8-2.2-5-5-5h-15.9v-40H372
		c1.4,0,2.6-0.6,3.5-1.5s1.5-2.2,1.5-3.5c0-2.8-2.2-5-5-5h-14.9v-40H372c1.4,0,2.6-0.6,3.5-1.5s1.5-2.2,1.5-3.5c0-2.8-2.2-5-5-5
		h-14.9v-40H373c1.4,0,2.6-0.5,3.5-1.4s1.5-2.1,1.5-3.5c0,0,0-0.1,0-0.2C378,121.3,375.8,119,373,119z M380.7,399
		c-22,0-39.8-17.9-39.8-40c0-8.4,2.7-16.2,7.1-22.6c2.5-3.6,5.6-6.8,9-9.4c6.7-5,15-8,24-8c9.9,0,19,3.6,26,9.6
		c3.3,2.8,6,6.2,8.2,9.9c3.6,6,5.4,13,5.4,20.5C420.7,381.1,402.7,399,380.7,399z"/>
</g>
</svg>
