<?xml version="1.0" encoding="utf-8"?>
<!-- Generator: Adobe Illustrator 19.1.0, SVG Export Plug-In . SVG Version: 6.00 Build 0)  -->
<!DOCTYPE svg PUBLIC "-//W3C//DTD SVG 1.1//EN" "http://www.w3.org/Graphics/SVG/1.1/DTD/svg11.dtd">
<svg version="1.1" id="Layer_1" xmlns="http://www.w3.org/2000/svg" xmlns:xlink="http://www.w3.org/1999/xlink" x="0px" y="0px"
	 viewBox="0 0 500 500" enable-background="new 0 0 500 500" xml:space="preserve">
<g>
	<path fill="#FFFFFF" d="M166,155c-8,0-15.5-2.6-21.8-7.6l-2.7-2.2l-3,1.8c-8.6,5.2-18.4,8-28.5,8c-6.1,0-12.1-1-17.8-2.9l-1.7-0.6
		l-1.7,0.6C83.8,154,78.5,155,73,155c-24.8,0-45-20.2-45-45c0-22.1,15.8-40.7,37.5-44.4l1.8-0.3l1.2-1.4C78.9,51.9,94,45,110,45
		c23.3,0,44.1,14.7,51.9,36.7L163,85l3.5,0c19,0.3,34.5,16,34.5,35C201,139.3,185.3,155,166,155z"/>
	<path d="M110,50c21.2,0,40.1,13.4,47.2,33.3l2.3,6.6l7,0.1c16.3,0.2,29.6,13.7,29.6,30c0,16.5-13.5,30-30,30
		c-6.9,0-13.3-2.3-18.7-6.5l-5.5-4.3l-6,3.6c-7.8,4.7-16.8,7.2-25.9,7.2c-5.5,0-11-0.9-16.2-2.7l-3.4-1.2l-3.4,1.3
		c-4.5,1.7-9.2,2.6-14.1,2.6c-22.1,0-40-17.9-40-40c0-9.5,3.4-18.7,9.6-26c6.1-7.1,14.5-11.9,23.7-13.5l3.5-0.6l2.4-2.7
		C81.7,56.3,95.5,50,110,50 M110,40c-18.1,0-34.3,8-45.3,20.7C41,64.7,23,85.2,23,110c0,27.6,22.4,50,50,50c6.2,0,12.1-1.1,17.6-3.2
		c6.1,2.1,12.6,3.2,19.4,3.2c11.4,0,22-3.2,31.1-8.7c6.8,5.4,15.5,8.7,24.9,8.7c22.1,0,40-17.9,40-40c0-21.9-17.6-39.7-39.4-40
		C158.4,56.7,136.1,40,110,40L110,40z"/>
</g>
<rect x="280" y="313.7" width="20" height="78.6"/>
<rect x="165" y="354" width="10" height="50"/>
<g>
	<path fill="#FFFFFF" d="M290,316.8c-42.4,0-76.8-34.5-76.8-76.8s34.5-76.8,76.8-76.8s76.8,34.5,76.8,76.8S332.4,316.8,290,316.8z"
		/>
	<path d="M290,171.7c37.7,0,68.3,30.7,68.3,68.3s-30.7,68.3-68.3,68.3s-68.3-30.7-68.3-68.3S252.3,171.7,290,171.7 M290,154.7
		c-47.1,0-85.3,38.2-85.3,85.3s38.2,85.3,85.3,85.3s85.3-38.2,85.3-85.3S337.1,154.7,290,154.7L290,154.7z"/>
</g>
<g>
	<path fill="#FFFFFF" d="M170,367.3c-19.7,0-35.7-16-35.7-35.7c0-19.7,16-35.7,35.7-35.7s35.7,16,35.7,35.7
		C205.7,351.3,189.7,367.3,170,367.3z"/>
	<path d="M170,303c15.8,0,28.7,12.9,28.7,28.7c0,15.8-12.9,28.7-28.7,28.7s-28.7-12.9-28.7-28.7C141.3,315.9,154.2,303,170,303
		 M170,289c-23.6,0-42.7,19.1-42.7,42.7c0,23.6,19.1,42.7,42.7,42.7s42.7-19.1,42.7-42.7C212.7,308.1,193.6,289,170,289L170,289z"/>
</g>
<path d="M476,449.7c-51.8-24.1-132.3-39.6-222.8-39.6c-94.3,0-177.9,16.9-229.2,42.8C50.3,416.7,142.1,390,251.2,390
	C357.2,390,446.8,415.2,476,449.7z"/>
<circle fill="#FFFFFF" cx="419" cy="377" r="60"/>
<path fill="#FFFFFF" d="M421,387.2L421,387.2c-24.9,0-45-20.1-45-45V115.5c0-24.9,20.1-45,45-45h0c24.9,0,45,20.1,45,45v226.7
	C466,367,445.9,387.2,421,387.2z"/>
<path d="M455,342.3V116c0-9.7-3.9-18.4-10.3-24.8C438.4,84.9,429.7,81,420,81c-19.3,0-35,15.7-35,35v224.3
	c-9,8.5-15.1,20.3-15.9,33.5c-0.1,1-0.1,2.1-0.1,3.1s0,2.1,0.1,3.1c1.6,26.1,23.3,46.9,49.9,46.9c27.6,0,50-22.4,50-50
	C469,363.5,463,351.3,455,342.3z M410.9,137H395v-18c0-13.8,11.2-25,25-25c6.9,0,13.2,2.8,17.7,7.3c4.5,4.5,7.3,10.8,7.3,17.7v215.3
	c-8-4.6-16.5-7.3-26-7.3c-8.7,0-17,2.2-24,6.1V297h15.9c1.4,0,2.6-0.6,3.5-1.5c0.9-0.9,1.5-2.2,1.5-3.5c0-2.8-2.2-5-5-5H395v-40
	h14.9c1.4,0,2.6-0.6,3.5-1.5c0.9-0.9,1.5-2.2,1.5-3.5c0-2.8-2.2-5-5-5H395v-40h14.9c1.4,0,2.6-0.6,3.5-1.5c0.9-0.9,1.5-2.2,1.5-3.5
	c0-2.8-2.2-5-5-5H395v-40h15.9c1.4,0,2.6-0.5,3.5-1.4c0.9-0.9,1.5-2.1,1.5-3.5c0,0,0-0.1,0-0.2C415.9,139.3,413.7,137,410.9,137z
	 M418.6,417c-22,0-39.8-17.9-39.8-40c0-8.4,2.7-16.2,7.1-22.6c2.5-3.6,5.6-6.8,9-9.4c6.7-5,15-8,24-8c9.9,0,19,3.6,26,9.6
	c3.3,2.8,6,6.2,8.2,9.9c3.6,6,5.4,13,5.4,20.5C458.6,399.1,440.6,417,418.6,417z"/>
</svg>
