<?xml version="1.0" encoding="utf-8"?>
<!-- Generator: Adobe Illustrator 19.1.0, SVG Export Plug-In . SVG Version: 6.00 Build 0)  -->
<!DOCTYPE svg PUBLIC "-//W3C//DTD SVG 1.1//EN" "http://www.w3.org/Graphics/SVG/1.1/DTD/svg11.dtd">
<svg version="1.1" id="Layer_1" xmlns="http://www.w3.org/2000/svg" xmlns:xlink="http://www.w3.org/1999/xlink" x="0px" y="0px"
	 viewBox="0 0 500 500" enable-background="new 0 0 500 500" xml:space="preserve">
<path d="M391.2,175l-26,15c-0.8-1.5-1.6-2.9-2.4-4.4c-35.9-62.2-115.4-83.5-177.6-47.6c-49.1,28.3-72.7,83.8-62.8,136.6l0,0.1
	c0.2,0.9,0.3,1.9,0.3,2.9c0,8.3-6.7,15-15,15c-3.8,0-7.2-1.4-9.9-3.7c-2.3-2-4-4.8-4.8-7.9c-0.1-0.4-0.2-0.8-0.2-1.2
	c-12-64.8,17-132.9,77.4-167.7c76.5-44.2,174.4-18,218.6,58.6C389.6,172.1,390.4,173.6,391.2,175z"/>
<path d="M413,99.4l-18.3,91.4c-1.6,8-9.9,12.8-17.6,10.1L288.9,171c-6.4-2.2-10.2-8.8-8.9-15.4v0c1.6-8,9.9-12.8,17.6-10.1l59.1,20
	c7.7,2.6,16-2.2,17.6-10.1l12.2-61.2c1.6-8,9.9-12.8,17.6-10.1l0,0C410.5,86.1,414.3,92.7,413,99.4z"/>
<path d="M215.2,331.5L127,301.7c-7.7-2.6-16,2.2-17.6,10.1l-18.3,91.4c-1.3,6.7,2.5,13.3,8.9,15.4h0c7.7,2.6,16-2.2,17.6-10.1
	l12.2-61.2c1.6-8,9.9-12.8,17.6-10.1l59.1,20c7.7,2.6,16-2.2,17.6-10.1v0C225.5,340.3,221.7,333.7,215.2,331.5z"/>
<path d="M117.2,336.3l26-15c0.8,1.5,1.6,2.9,2.4,4.4c35.9,62.2,115.4,83.5,177.6,47.6c49.1-28.3,72.7-83.8,62.8-136.6l0-0.1
	c-0.2-0.9-0.3-1.9-0.3-2.9c0-8.3,6.7-15,15-15c3.8,0,7.2,1.4,9.9,3.7c2.3,2,4,4.8,4.8,7.9c0.1,0.4,0.2,0.8,0.2,1.2
	c12,64.8-17,132.9-77.4,167.7c-76.5,44.2-174.4,18-218.6-58.6C118.8,339.2,117.9,337.7,117.2,336.3z"/>
</svg>
