<?xml version="1.0" encoding="utf-8"?>
<!-- Generator: Adobe Illustrator 19.1.0, SVG Export Plug-In . SVG Version: 6.00 Build 0)  -->
<!DOCTYPE svg PUBLIC "-//W3C//DTD SVG 1.1//EN" "http://www.w3.org/Graphics/SVG/1.1/DTD/svg11.dtd">
<svg version="1.1" id="Layer_1" xmlns="http://www.w3.org/2000/svg" xmlns:xlink="http://www.w3.org/1999/xlink" x="0px" y="0px"
	 viewBox="0 0 500 500" enable-background="new 0 0 500 500" xml:space="preserve">
<path d="M424.6,149.2L250,250V48.4C324.6,48.4,389.7,88.9,424.6,149.2z"/>
<path d="M250,10C117.5,10,10,117.5,10,250s107.5,240,240,240s240-107.5,240-240S382.5,10,250,10z M250,461.2
	c-116.6,0-211.2-94.6-211.2-211.2S133.4,38.8,250,38.8S461.2,133.4,461.2,250S366.6,461.2,250,461.2z"/>
<path d="M447.8,248.8L447.8,248.8c0,5.3-4.3,9.6-9.6,9.6h-28.8c-5.3,0-9.6-4.3-9.6-9.6v0c0-5.3,4.3-9.6,9.6-9.6h28.8
	C443.5,239.2,447.8,243.5,447.8,248.8z"/>
<path fill="#FFFFFF" d="M349,77.4L349,77.4c4.6,2.7,6.2,8.5,3.5,13.1l-14.4,24.9c-2.7,4.6-8.5,6.2-13.1,3.5l0,0
	c-4.6-2.7-6.2-8.5-3.5-13.1l14.4-24.9C338.5,76.3,344.4,74.7,349,77.4z"/>
<g>
	<path fill="#FFFFFF" d="M422.3,150.6l-41.6,24c-1.4-2.5-1.6-4.9-1-7.3c0.6-2.4,2.2-4.5,4.5-5.8l24.9-14.4
		C413.8,144.5,419.4,145.7,422.3,150.6z"/>
	<path d="M422.3,150.6l-41.6,24c1.4,2.5,3.5,3.8,5.8,4.5s5,0.4,7.3-1l24.9-14.4C423.4,161.1,425.2,155.6,422.3,150.6z"/>
</g>
</svg>
