<?xml version="1.0" encoding="utf-8"?>
<!-- Generator: Adobe Illustrator 19.1.0, SVG Export Plug-In . SVG Version: 6.00 Build 0)  -->
<!DOCTYPE svg PUBLIC "-//W3C//DTD SVG 1.1//EN" "http://www.w3.org/Graphics/SVG/1.1/DTD/svg11.dtd">
<svg version="1.1" id="Layer_1" xmlns="http://www.w3.org/2000/svg" xmlns:xlink="http://www.w3.org/1999/xlink" x="0px" y="0px"
	 viewBox="0 0 500 500" enable-background="new 0 0 500 500" xml:space="preserve">
<rect x="20" y="130" width="400" height="340"/>
<g>
	<path fill="#FFFFFF" d="M160,119.5v40c0,16.6-13.4,30.5-30,30.5h-20c-16.6,0-30-13.9-30-30.5v-40.1c0-1,0.1-2,0.2-3
		c0.6-5.5,2.6-10.6,5.8-14.9c0.6-0.8,1.2-1.3,1.8-2c5.5-6,13.4-9.6,22.2-9.6h20C146.6,90,160,102.9,160,119.5z"/>
	<path d="M150,120v40c0,11-8.9,20-20,20h-20c-11.1,0-20-9-20-20v-40c0-11,8.9-20,20-20h20C141.1,100,150,109,150,120z"/>
</g>
<g>
	<path fill="#FFFFFF" d="M360,119.5v40c0,16.6-13.4,30.5-30,30.5h-20c-16.6,0-30-13.9-30-30.5v-40.1c0-1,0.1-2,0.2-3
		c0.6-5.5,2.6-10.6,5.8-14.9c0.6-0.8,1.2-1.3,1.8-2c5.5-6,13.4-9.6,22.2-9.6h20C346.6,90,360,102.9,360,119.5z"/>
	<path d="M350,120v40c0,11-8.9,20-20,20h-20c-11.1,0-20-9-20-20v-40c0-11,8.9-20,20-20h20C341.1,100,350,109,350,120z"/>
</g>
<rect x="40" y="210" fill="#FFFFFF" width="360" height="240"/>
<g>
	<path fill="#4CD964" d="M110,321c-25.4,0-46-20.6-46-46s20.6-46,46-46s46,20.6,46,46S135.4,321,110,321z"/>
	<path d="M110,233c23.2,0,42,18.8,42,42c0,23.2-18.8,42-42,42s-42-18.8-42-42C68,251.8,86.8,233,110,233 M110,225
		c-27.6,0-50,22.4-50,50v0c0,27.6,22.4,50,50,50s50-22.4,50-50v0C160,247.4,137.6,225,110,225L110,225z"/>
</g>
<g>
	<path fill="#4CD964" d="M330,321c-25.4,0-46-20.6-46-46s20.6-46,46-46s46,20.6,46,46S355.4,321,330,321z"/>
	<path d="M330,233c23.2,0,42,18.8,42,42c0,23.2-18.8,42-42,42s-42-18.8-42-42C288,251.8,306.8,233,330,233 M330,225
		c-27.6,0-50,22.4-50,50v0c0,27.6,22.4,50,50,50s50-22.4,50-50v0C380,247.4,357.6,225,330,225L330,225z"/>
</g>
<g>
	<path fill="#4CD964" d="M110,431c-25.4,0-46-20.6-46-46s20.6-46,46-46s46,20.6,46,46S135.4,431,110,431z"/>
	<path d="M110,343c23.2,0,42,18.8,42,42c0,23.2-18.8,42-42,42s-42-18.8-42-42C68,361.8,86.8,343,110,343 M110,335
		c-27.6,0-50,22.4-50,50v0c0,27.6,22.4,50,50,50s50-22.4,50-50v0C160,357.4,137.6,335,110,335L110,335z"/>
</g>
<g>
	<path fill="#4CD964" d="M220,431c-25.4,0-46-20.6-46-46s20.6-46,46-46s46,20.6,46,46S245.4,431,220,431z"/>
	<path d="M220,343c23.2,0,42,18.8,42,42c0,23.2-18.8,42-42,42s-42-18.8-42-42C178,361.8,196.8,343,220,343 M220,335
		c-27.6,0-50,22.4-50,50v0c0,27.6,22.4,50,50,50s50-22.4,50-50v0C270,357.4,247.6,335,220,335L220,335z"/>
</g>
<g>
	<polygon fill="#FFCC00" points="177.2,240 262.8,240 220,308.5 	"/>
	<path d="M255.8,244l-35.7,56.9L184.4,244H256 M270,236H170l50,80L270,236L270,236z"/>
</g>
<g>
	<polygon fill="#FFCC00" points="287.2,350 372.8,350 330,418.5 	"/>
	<path d="M365.8,354l-35.7,56.9L294.4,354H366 M380,346H280l50,80L380,346L380,346z"/>
</g>
<circle fill="#FFFFFF" cx="420" cy="370" r="60"/>
<path fill="#FFFFFF" d="M422,380.2L422,380.2c-24.9,0-45-20.1-45-45V108.5c0-24.9,20.1-45,45-45h0c24.9,0,45,20.1,45,45v226.7
	C467,360,446.9,380.2,422,380.2z"/>
<path d="M456,335.3V109c0-9.7-3.9-18.4-10.3-24.8C439.4,77.9,430.7,74,421,74c-19.3,0-35,15.7-35,35v224.3
	c-9,8.5-15.1,20.3-15.9,33.5c-0.1,1-0.1,2.1-0.1,3.1s0,2.1,0.1,3.1c1.6,26.1,23.3,46.9,49.9,46.9c27.6,0,50-22.4,50-50
	C470,356.5,464,344.3,456,335.3z M411.9,130H396v-18c0-13.8,11.2-25,25-25c6.9,0,13.2,2.8,17.7,7.3c4.5,4.5,7.3,10.8,7.3,17.7v215.3
	c-8-4.6-16.5-7.3-26-7.3c-8.7,0-17,2.2-24,6.1V290h15.9c1.4,0,2.6-0.6,3.5-1.5c0.9-0.9,1.5-2.2,1.5-3.5c0-2.8-2.2-5-5-5H396v-40
	h14.9c1.4,0,2.6-0.6,3.5-1.5c0.9-0.9,1.5-2.2,1.5-3.5c0-2.8-2.2-5-5-5H396v-40h14.9c1.4,0,2.6-0.6,3.5-1.5c0.9-0.9,1.5-2.2,1.5-3.5
	c0-2.8-2.2-5-5-5H396v-40h15.9c1.4,0,2.6-0.5,3.5-1.4c0.9-0.9,1.5-2.1,1.5-3.5c0,0,0-0.1,0-0.2C416.9,132.3,414.7,130,411.9,130z
	 M419.6,410c-22,0-39.8-17.9-39.8-40c0-8.4,2.7-16.2,7.1-22.6c2.5-3.6,5.6-6.8,9-9.4c6.7-5,15-8,24-8c9.9,0,19,3.6,26,9.6
	c3.3,2.8,6,6.2,8.2,9.9c3.6,6,5.4,13,5.4,20.5C459.6,392.1,441.6,410,419.6,410z"/>
</svg>
