<?xml version="1.0" encoding="utf-8"?>
<!-- Generator: Adobe Illustrator 19.1.0, SVG Export Plug-In . SVG Version: 6.00 Build 0)  -->
<!DOCTYPE svg PUBLIC "-//W3C//DTD SVG 1.1//EN" "http://www.w3.org/Graphics/SVG/1.1/DTD/svg11.dtd">
<svg version="1.1" id="Layer_1" xmlns="http://www.w3.org/2000/svg" xmlns:xlink="http://www.w3.org/1999/xlink" x="0px" y="0px"
	 viewBox="0 0 500 500" enable-background="new 0 0 500 500" xml:space="preserve">
<path fill="#5AC8FA" d="M329.9,232.9c-2.3,3.2-2.3,7.5-0.1,10.7c7.6,11.1,12.2,24.5,12.2,39v137.7c0,38.1-31.8,69.7-69.9,69.7h-45.5
	c-38.1,0-68.6-31.3-68.6-69.4v-138c0-14.4,4.2-27.8,11.8-38.9c2.3-3.3,2.3-7.6-0.1-10.9c-7.4-10.1-11.7-22.6-11.7-36.1v-61.3
	c0-12.6,3.4-28.4,9.9-44.4h163.1c6.6,16,10.9,31.7,10.9,44.4v61.3C342,210.2,337.3,222.7,329.9,232.9z"/>
<g>
	<path fill="#FFFFFF" d="M227.8,42c-2.6,0-4.8-2.2-4.8-4.8V22.8c0-2.6,2.2-4.8,4.8-4.8h44.4c2.6,0,4.8,2.2,4.8,4.8v14.4
		c0,2.6-2.2,4.8-4.8,4.8H227.8z"/>
	<path d="M269,26V34H231V26H269 M272.2,10h-44.4c-7.1,0-12.8,5.7-12.8,12.8v14.4c0,7.1,5.7,12.8,12.8,12.8h44.4
		c7.1,0,12.8-5.7,12.8-12.8V22.8C285,15.7,279.3,10,272.2,10L272.2,10z"/>
</g>
<g>
	<path d="M280.6,58.7c9.5,0,20.9,9.6,30.4,25.8c9.5,16,15.9,36.4,15.9,50.9v61.3c0,9.9-3.1,19.4-8.9,27.3
		c-6.1,8.3-6.3,19.6-0.5,28.1c6.2,9,9.4,19.5,9.4,30.5v137.7c0,14.4-5.7,28.1-16,38.4c-10.3,10.3-23.9,16-38.4,16h-45.5
		c-29.8,0-54.1-24.3-54.1-54.1v-138c0-10.9,3.2-21.5,9.4-30.5c5.8-8.5,5.6-19.9-0.5-28.2c-5.8-7.9-8.9-17.4-8.9-27.3v-61.3
		c0-14.5,6.4-34.9,15.9-50.9c9.6-16.2,21-25.8,30.4-25.8H280.6 M280.6,43.7h-61.3c-33.9,0-61.3,57.8-61.3,91.7v61.3
		c0,13.5,4.4,26,11.8,36.1c2.4,3.2,2.5,7.6,0.2,10.9c-7.6,11.1-12,24.5-12,38.9v138c0,38.1,30.9,69.1,69.1,69.1h45.5
		c38.1,0,69.4-31.2,69.4-69.4V282.6c0-14.5-4.4-27.9-12-39c-2.2-3.3-2.1-7.6,0.2-10.7c7.4-10.1,11.8-22.6,11.8-36.2v-61.3
		C341.9,101.5,314.5,43.7,280.6,43.7L280.6,43.7z"/>
</g>
</svg>
