<?xml version="1.0" encoding="utf-8"?>
<!-- Generator: Adobe Illustrator 19.1.0, SVG Export Plug-In . SVG Version: 6.00 Build 0)  -->
<!DOCTYPE svg PUBLIC "-//W3C//DTD SVG 1.1//EN" "http://www.w3.org/Graphics/SVG/1.1/DTD/svg11.dtd">
<svg version="1.1" id="Layer_1" xmlns="http://www.w3.org/2000/svg" xmlns:xlink="http://www.w3.org/1999/xlink" x="0px" y="0px"
	 viewBox="70 -318 640 1136" style="enable-background:new 70 -318 640 1136;" xml:space="preserve">
<style type="text/css">
	.st0{fill:#FFFFFF;}
	.st1{fill:#FFFFFF;stroke:#CCCCCC;stroke-width:4;stroke-miterlimit:10;}
	.st2{fill:url(#SVGID_1_);}
	.st3{fill:url(#SVGID_2_);}
	.st4{fill:none;}
	.st5{enable-background:new    ;}
	.st6{fill:#4CD964;}
	.st7{fill:#FF3A30;}
	.st8{fill:#FFCC00;}
	.st9{fill:#FF9500;}
	.st10{fill:#5AC8FA;}
	.st11{fill:none;stroke:#CCCCCC;stroke-width:2;stroke-linecap:round;stroke-miterlimit:10;}
	.st12{fill:#FFFFFF;stroke:#CCCCCC;stroke-width:2;stroke-miterlimit:10;}
	.st13{fill:url(#SVGID_3_);}
	.st14{font-family:'MalayalamSangamMN';}
	.st15{font-size:36px;}
	.st16{fill:#111820;}
	.st17{fill:#EC1C2C;}
	.st18{font-size:72px;}
	.st19{font-family:'MalayalamSangamMN-Bold';}
	.st20{font-size:16.324px;}
	.st21{fill:url(#SVGID_4_);}
	.st22{fill:none;stroke:#CCCCCC;stroke-width:3.9439;stroke-linecap:round;stroke-miterlimit:10;}
	.st23{fill:url(#SVGID_5_);}
	.st24{font-family:'MyriadPro-Regular';}
	.st25{fill:url(#SVGID_6_);}
	.st26{fill:url(#SVGID_7_);}
	.st27{fill:url(#SVGID_8_);}
	.st28{fill:url(#SVGID_9_);}
	.st29{fill:url(#SVGID_10_);}
	.st30{fill:url(#SVGID_11_);}
	.st31{fill:url(#SVGID_12_);}
	.st32{fill:url(#SVGID_13_);}
	.st33{fill:url(#SVGID_14_);}
	.st34{fill:url(#SVGID_15_);}
	.st35{fill:url(#SVGID_16_);}
	.st36{fill:none;stroke:#000000;stroke-width:6.4753;stroke-linecap:round;stroke-miterlimit:10;}
	.st37{fill:#FFFFFF;stroke:#000000;stroke-width:0.5887;stroke-miterlimit:10;}
	.st38{font-size:42.384px;}
	.st39{font-size:44.4023px;}
	.st40{fill:none;stroke:#000000;stroke-width:2.7983;stroke-linecap:round;stroke-miterlimit:10;}
	.st41{clip-path:url(#SVGID_18_);}
	.st42{fill:url(#SVGID_19_);}
	.st43{fill:url(#SVGID_20_);}
	.st44{fill:url(#SVGID_21_);}
	.st45{fill:url(#SVGID_22_);}
	.st46{fill:url(#SVGID_23_);}
	.st47{fill:url(#SVGID_24_);}
	.st48{fill:url(#SVGID_25_);}
	.st49{fill:url(#SVGID_26_);}
	.st50{clip-path:url(#SVGID_28_);}
	.st51{fill:#333333;}
	.st52{fill:#FFFFFF;stroke:#FFFFFF;stroke-width:2;stroke-miterlimit:10;}
	.st53{fill:none;stroke:#FFFFFF;stroke-width:2;stroke-miterlimit:10;}
	.st54{fill:#999999;}
	.st55{font-size:21px;}
	.st56{fill:url(#SVGID_29_);}
	.st57{fill:url(#SVGID_30_);}
	.st58{fill:url(#SVGID_31_);}
	.st59{fill:url(#SVGID_32_);}
	.st60{fill:url(#SVGID_33_);}
	.st61{fill:url(#SVGID_34_);}
	.st62{fill:url(#SVGID_35_);}
	.st63{fill:url(#SVGID_36_);}
	.st64{clip-path:url(#SVGID_38_);}
</style>
<rect x="810" y="-318" class="st0" width="640" height="1136"/>
<circle class="st1" cx="920" cy="358" r="50"/>
<circle class="st1" cx="1130" cy="358" r="50"/>
<circle class="st1" cx="1340" cy="358" r="50"/>
<circle class="st1" cx="920" cy="490" r="50"/>
<circle class="st1" cx="1130" cy="490" r="50"/>
<circle class="st1" cx="1340" cy="490" r="50"/>
<circle class="st1" cx="920" cy="622" r="50"/>
<circle class="st1" cx="1130" cy="622" r="50"/>
<circle class="st1" cx="1340" cy="622" r="50"/>
<circle class="st1" cx="1130" cy="746" r="50"/>
<rect x="2270" y="-318" class="st0" width="640" height="1136"/>
<image style="overflow:visible;enable-background:new    ;" width="824" height="1108" xlink:href="../../../../../../Users/chrisoudyk/Desktop/Screen Shot 2016-05-18 at 3.43.17 PM.png"  transform="matrix(0.7771 0 0 0.7419 2269.0757 -214.1)">
</image>
<rect x="1550" y="-318" class="st0" width="640" height="1136"/>
<radialGradient id="SVGID_1_" cx="2225.4373" cy="438.4511" r="48.158" gradientTransform="matrix(0.8306 0 0 -0.8306 281.2517 423.6775)" gradientUnits="userSpaceOnUse">
	<stop  offset="0.75" style="stop-color:#FFFFFF"/>
	<stop  offset="1" style="stop-color:#CCCCCC"/>
</radialGradient>
<path class="st2" d="M2129.7,99.5c-22.1,0-40-17.9-40-40s17.9-40,40-40s40,17.9,40,40S2151.7,99.5,2129.7,99.5z"/>
<rect x="70" y="-318" class="st0" width="640" height="1136"/>
<linearGradient id="SVGID_2_" gradientUnits="userSpaceOnUse" x1="1870" y1="-73.9572" x2="1870" y2="-107.9164" gradientTransform="matrix(1 0 0 -1 0 500)">
	<stop  offset="0" style="stop-color:#FFFFFF;stop-opacity:0"/>
	<stop  offset="1" style="stop-color:#CCCCCC"/>
</linearGradient>
<rect x="1550" y="574" class="st3" width="640" height="34"/>
<rect x="1697.5" y="-270.1" class="st4" width="454.5" height="128.5"/>
<text transform="matrix(1 0 0 1 1697.4614 -244.5665)" class="st24 st15">OHCOW Heat Stress App</text>
<circle cx="1642.5" cy="651.6" r="64"/>
<circle class="st6" cx="1642.5" cy="651.6" r="56"/>
<text transform="matrix(1 0 0 1 1602.1979 677.9819)" class="st14 st18">28</text>
<text transform="matrix(1 0 0 1 1751.4124 642.3655)" class="st14 st15">Temperature: 30 C</text>
<text transform="matrix(1 0 0 1 1751.4124 685.5655)" class="st14 st15">Humidity: 30%</text>
<text transform="matrix(1 0 0 1 2006.412 627.5607)" class="st19 st20">O</text>
<polygon points="1709.9,162.6 1709.9,215.9 1672.6,253.1 1619.6,253.1 1581.9,215.4 1581.9,162.7 1619.4,125.1 1672.4,125.1 "/>
<polygon class="st7" points="1703.5,165.2 1703.5,213.2 1670,246.7 1622.3,246.7 1588.3,212.7 1588.3,165.3 1622.1,131.5 
	1669.8,131.5 "/>
<circle cx="1645.9" cy="344.4" r="64"/>
<circle class="st6" cx="1645.9" cy="344.4" r="56"/>
<polygon points="1848.3,-111.5 1592.3,-111.5 1720.3,93.3 "/>
<polygon class="st8" points="1829.1,-100.6 1611.5,-100.6 1720.3,74.1 "/>
<rect x="1600.6" y="451.6" transform="matrix(0.7071 -0.7071 0.7071 0.7071 130.7011 1309.3347)" width="90.5" height="90.5"/>
<rect x="1606.3" y="457.3" transform="matrix(0.7071 -0.7071 0.7071 0.7071 130.6802 1309.3713)" class="st9" width="79.2" height="79.2"/>
<text transform="matrix(1 0 0 1 1681.5492 -13.2512)" class="st14 st18">28</text>
<text transform="matrix(1 0 0 1 1605.5496 215.7486)" class="st14 st18">28</text>
<text transform="matrix(1 0 0 1 1605.5718 370.7488)" class="st14 st18">28</text>
<text transform="matrix(1 0 0 1 1607.5491 519.7488)" class="st14 st18">28</text>
<path d="M2136.8,507.7l-18.6,10.7V497C2126.2,497,2133.1,501.3,2136.8,507.7z"/>
<path d="M2118.2,492.9c-14.1,0-25.6,11.4-25.6,25.6c0,14.1,11.4,25.6,25.6,25.6s25.6-11.4,25.6-25.6
	C2143.8,504.4,2132.3,492.9,2118.2,492.9z M2118.2,541c-12.4,0-22.5-10.1-22.5-22.5s10.1-22.5,22.5-22.5s22.5,10.1,22.5,22.5
	C2140.7,530.9,2130.6,541,2118.2,541z"/>
<path d="M2139.3,518.3L2139.3,518.3c0,0.6-0.5,1-1,1h-3.1c-0.6,0-1-0.5-1-1l0,0c0-0.6,0.5-1,1-1h3.1
	C2138.8,517.3,2139.3,517.8,2139.3,518.3z"/>
<path class="st0" d="M2128.8,500.1L2128.8,500.1c0.5,0.3,0.7,0.9,0.4,1.4l-1.5,2.7c-0.3,0.5-0.9,0.7-1.4,0.4l0,0
	c-0.5-0.3-0.7-0.9-0.4-1.4l1.5-2.7C2127.6,500,2128.3,499.8,2128.8,500.1z"/>
<g>
	<path class="st0" d="M2136.6,507.9l-4.4,2.6c-0.1-0.3-0.2-0.5-0.1-0.8c0.1-0.3,0.2-0.5,0.5-0.6l2.7-1.5
		C2135.7,507.2,2136.3,507.4,2136.6,507.9z"/>
	<path d="M2136.6,507.9l-4.4,2.6c0.1,0.3,0.4,0.4,0.6,0.5c0.2,0.1,0.5,0,0.8-0.1l2.7-1.5C2136.7,509,2136.9,508.4,2136.6,507.9z"/>
</g>
<path class="st10" d="M2168.6,517.5c-0.2,0.3-0.2,0.8,0,1.1c0.8,1.2,1.3,2.6,1.3,4.2v14.7c0,4.1-3.4,7.4-7.4,7.4h-4.8
	c-4.1,0-7.3-3.3-7.3-7.4v-14.7c0-1.5,0.4-3,1.3-4.1c0.2-0.4,0.2-0.8,0-1.2c-0.8-1.1-1.2-2.4-1.2-3.8v-6.5c0-1.3,0.4-3,1.1-4.7h17.4
	c0.7,1.7,1.2,3.4,1.2,4.7v6.5C2169.9,515.1,2169.4,516.5,2168.6,517.5z"/>
<g>
	<path class="st0" d="M2157.7,497.2c-0.3,0-0.5-0.2-0.5-0.5v-1.5c0-0.3,0.2-0.5,0.5-0.5h4.7c0.3,0,0.5,0.2,0.5,0.5v1.5
		c0,0.3-0.2,0.5-0.5,0.5H2157.7z"/>
	<path d="M2162.1,495.5v0.9h-4v-0.9H2162.1 M2162.4,493.8h-4.7c-0.8,0-1.4,0.6-1.4,1.4v1.5c0,0.8,0.6,1.4,1.4,1.4h4.7
		c0.8,0,1.4-0.6,1.4-1.4v-1.5C2163.8,494.4,2163.2,493.8,2162.4,493.8L2162.4,493.8z"/>
</g>
<g>
	<path d="M2163.3,499c1,0,2.2,1,3.2,2.7s1.7,3.9,1.7,5.4v6.5c0,1.1-0.3,2.1-0.9,2.9c-0.6,0.9-0.7,2.1-0.1,3c0.7,1,1,2.1,1,3.2v14.7
		c0,1.5-0.6,3-1.7,4.1s-2.5,1.7-4.1,1.7h-4.8c-3.2,0-5.8-2.6-5.8-5.8v-14.7c0-1.2,0.3-2.3,1-3.2c0.6-0.9,0.6-2.1-0.1-3
		c-0.6-0.8-0.9-1.9-0.9-2.9v-6.5c0-1.5,0.7-3.7,1.7-5.4s2.2-2.7,3.2-2.7L2163.3,499 M2163.3,497.4h-6.5c-3.6,0-6.5,6.2-6.5,9.8v6.5
		c0,1.4,0.5,2.8,1.3,3.8c0.3,0.3,0.3,0.8,0,1.2c-0.8,1.2-1.3,2.6-1.3,4.1v14.7c0,4.1,3.3,7.4,7.4,7.4h4.8c4.1,0,7.4-3.3,7.4-7.4
		v-14.7c0-1.5-0.5-3-1.3-4.2c-0.2-0.4-0.2-0.8,0-1.1c0.8-1.1,1.3-2.4,1.3-3.9v-6.5C2169.9,503.5,2166.9,497.4,2163.3,497.4
		L2163.3,497.4z"/>
</g>
<text transform="matrix(1 0 0 1 1867.9692 -80.3433)" class="st14 st15">Temperature:</text>
<text transform="matrix(1 0 0 1 1867.9692 -37.1433)" class="st14 st15">30 C</text>
<text transform="matrix(1 0 0 1 1867.9692 6.0567)" class="st14 st15">Humidity:</text>
<text transform="matrix(1 0 0 1 1867.9692 49.2567)" class="st14 st15">30%</text>
<text transform="matrix(1 0 0 1 1907.9689 -51.4158)" class="st19 st20">O</text>
<text transform="matrix(1 0 0 1 1755.9692 179.3889)" class="st14 st15">Temperature: 30 C</text>
<text transform="matrix(1 0 0 1 1755.9692 222.5889)" class="st14 st15">Humidity: 30%</text>
<text transform="matrix(1 0 0 1 2010.9689 164.5842)" class="st19 st20">O</text>
<text transform="matrix(1 0 0 1 1754.7861 335.1324)" class="st14 st15">Temperature: 30 C</text>
<text transform="matrix(1 0 0 1 1754.7861 378.3324)" class="st14 st15">Humidity: 30%</text>
<text transform="matrix(1 0 0 1 2009.7861 320.3284)" class="st19 st20">O</text>
<text transform="matrix(1 0 0 1 1740.4697 477.7405)" class="st14 st15">Temperature: 30 C</text>
<text transform="matrix(1 0 0 1 1740.4697 520.9405)" class="st14 st15">Humidity: 30%</text>
<text transform="matrix(1 0 0 1 1995.4697 462.9356)" class="st19 st20">O</text>
<line class="st11" x1="1592.7" y1="267" x2="2138.7" y2="267"/>
<line class="st11" x1="1592.7" y1="422" x2="2138.7" y2="422"/>
<line class="st11" x1="1592.7" y1="576" x2="2138.7" y2="576"/>
<rect x="70" y="608" class="st0" width="640" height="210"/>
<path class="st12" d="M643.1,795H123.8c-13.8,0-25-11.2-25-25l0,0c0-13.8,11.2-25,25-25h519.3c13.8,0,25,11.2,25,25l0,0
	C668.1,783.8,656.9,795,643.1,795z"/>
<radialGradient id="SVGID_3_" cx="656.7" cy="-270.3" r="36" gradientTransform="matrix(1 0 0 -1 0 500)" gradientUnits="userSpaceOnUse">
	<stop  offset="0.8" style="stop-color:#FFFFFF"/>
	<stop  offset="1" style="stop-color:#CCCCCC"/>
</radialGradient>
<circle class="st13" cx="656.7" cy="770.3" r="36"/>
<path d="M676.4,759.3l-3.8,2.2c-0.1-0.2-0.2-0.4-0.4-0.6c-5.3-9.1-16.9-12.2-26-7c-7.2,4.1-10.6,12.3-9.2,20l0,0c0,0.1,0,0.3,0,0.4
	c0,1.2-1,2.2-2.2,2.2c-0.6,0-1.1-0.2-1.4-0.5c-0.3-0.3-0.6-0.7-0.7-1.2c0-0.1,0-0.1,0-0.2c-1.8-9.5,2.5-19.4,11.3-24.5
	c11.2-6.5,25.5-2.6,32,8.6C676.2,758.9,676.3,759.1,676.4,759.3z"/>
<path d="M679.6,748.3l-2.7,13.4c-0.2,1.2-1.4,1.9-2.6,1.5l-12.9-4.4c-0.9-0.3-1.5-1.3-1.3-2.3l0,0c0.2-1.2,1.4-1.9,2.6-1.5l8.6,2.9
	c1.1,0.4,2.3-0.3,2.6-1.5l1.8-9c0.2-1.2,1.4-1.9,2.6-1.5l0,0C679.2,746.3,679.8,747.3,679.6,748.3z"/>
<path d="M650.6,782.2l-12.9-4.4c-1.1-0.4-2.3,0.3-2.6,1.5l-2.7,13.4c-0.2,1,0.4,1.9,1.3,2.3l0,0c1.1,0.4,2.3-0.3,2.6-1.5l1.8-9
	c0.2-1.2,1.4-1.9,2.6-1.5l8.6,2.9c1.1,0.4,2.3-0.3,2.6-1.5l0,0C652.2,783.5,651.6,782.5,650.6,782.2z"/>
<path d="M636.3,782.9l3.8-2.2c0.1,0.2,0.2,0.4,0.4,0.6c5.3,9.1,16.9,12.2,26,7c7.2-4.1,10.6-12.3,9.2-20l0,0c0-0.1,0-0.3,0-0.4
	c0-1.2,1-2.2,2.2-2.2c0.6,0,1.1,0.2,1.4,0.5s0.6,0.7,0.7,1.2c0,0.1,0,0.1,0,0.2c1.8,9.5-2.5,19.4-11.3,24.5
	c-11.2,6.5-25.5,2.6-32-8.6C636.5,783.3,636.4,783.1,636.3,782.9z"/>
<rect x="131.6" y="758.9" class="st4" width="511.5" height="35.5"/>
<text transform="matrix(1 0 0 1 287.3447 784.0046)" class="st14 st15">Last Change</text>
<polygon points="230.2,103.6 230.2,156.9 192.9,194.1 139.9,194.1 102.2,156.4 102.2,103.7 139.7,66.1 192.7,66.1 "/>
<polygon class="st7" points="223.8,106.2 223.8,154.2 190.3,187.7 142.6,187.7 108.6,153.7 108.6,106.3 142.4,72.5 190.1,72.5 "/>
<circle cx="166.2" cy="285.4" r="64"/>
<circle class="st6" cx="166.2" cy="285.4" r="56"/>
<polygon points="368.6,-170.5 112.6,-170.5 240.6,34.3 "/>
<polygon class="st8" points="349.4,-159.6 131.8,-159.6 240.6,15.1 "/>
<rect x="120.9" y="392.6" transform="matrix(0.7071 -0.7071 0.7071 0.7071 -260.9688 245.7298)" width="90.5" height="90.5"/>
<rect x="126.6" y="398.3" transform="matrix(0.7071 -0.7071 0.7071 0.7071 -260.9896 245.7665)" class="st9" width="79.2" height="79.2"/>
<path class="st0" d="M946-273.6c0,1-0.3,2-0.7,2.9l-0.1,0.2l0,0l-23.6,40.8c-0.8,1.4-2.2,2.2-3.8,2.2H909c-1.6,0-3-0.8-3.8-2.2
	l-23.6-40.8c-0.2-0.3-0.4-0.7-0.5-1.1c-0.2-0.6-0.3-1.3-0.3-2s0.1-1.3,0.3-2c0.8-2.3,2.9-3.9,5.4-3.9h53.7
	C943.4-279.4,946-276.8,946-273.6z"/>
<g>
	<path class="st16" d="M944.6-273.5c0-2.5-2.2-4.5-4.7-4.5c-0.1,0,0.1,0,0,0s-0.2,0-0.3,0H887c-0.1,0-0.2,0-0.3,0
		c-2.5,0-4.8,2-4.8,4.5v0.1c0,0.3,0.2,0.6,0.3,0.9h0.1c0.1,0.6,0.4,1.1,0.7,1.6l0.4,0.5l4.8,8.3h50.3l4.9-8.6l0.3-0.5
		c0.2-0.4,0.4-0.7,0.6-1.2C944.4-272.7,944.5-273,944.6-273.5C944.6-273.4,944.6-273.4,944.6-273.5
		C944.6-273.4,944.6-273.4,944.6-273.5z M913.4-264.9c-3.1,0-5.6-2.5-5.6-5.6s2.5-5.6,5.6-5.6s5.6,2.5,5.6,5.6
		S916.5-264.9,913.4-264.9z"/>
	<path class="st17" d="M934.5-255l-14.4,24.8l-0.4,0.8c-0.3,0.3-0.7,0.5-1.1,0.5c-0.8,0-1.6-0.7-1.6-1.5V-255H934.5z"/>
	<path class="st17" d="M892.2-255l14.4,24.8l0.4,0.8c0.3,0.3,0.9,0.5,1.3,0.5c0.8,0,1.7-0.7,1.7-1.5V-255H892.2z"/>
</g>
<g>
	<circle class="st0" cx="931.8" cy="-239.9" r="8.4"/>
	<path class="st0" d="M932-238.5L932-238.5c-3.5,0-6.3-2.8-6.3-6.3v-31.8c0-3.5,2.8-6.3,6.3-6.3l0,0c3.5,0,6.3,2.8,6.3,6.3v31.8
		C938.4-241.3,935.5-238.5,932-238.5z"/>
	<path d="M936.8-244.8v-31.7c0-1.4-0.5-2.6-1.4-3.5s-2.1-1.4-3.5-1.4c-2.7,0-4.9,2.2-4.9,4.9v31.5c-1.3,1.2-2.1,2.8-2.2,4.7
		c0,0.1,0,0.3,0,0.4c0,0.1,0,0.3,0,0.4c0.2,3.7,3.3,6.6,7,6.6c3.9,0,7-3.1,7-7C938.8-241.8,937.9-243.5,936.8-244.8z M930.6-273.6
		h-2.2v-2.5c0-1.9,1.6-3.5,3.5-3.5c1,0,1.9,0.4,2.5,1s1,1.5,1,2.5v30.2c-1.1-0.6-2.3-1-3.6-1c-1.2,0-2.4,0.3-3.4,0.9v-5.1h2.2
		c0.2,0,0.4-0.1,0.5-0.2c0.1-0.1,0.2-0.3,0.2-0.5c0-0.4-0.3-0.7-0.7-0.7h-2.2v-5.6h2.1c0.2,0,0.4-0.1,0.5-0.2s0.2-0.3,0.2-0.5
		c0-0.4-0.3-0.7-0.7-0.7h-2.1v-5.6h2.1c0.2,0,0.4-0.1,0.5-0.2s0.2-0.3,0.2-0.5c0-0.4-0.3-0.7-0.7-0.7h-2.1v-5.6h2.2
		c0.2,0,0.4-0.1,0.5-0.2s0.2-0.3,0.2-0.5l0,0C931.3-273.3,931-273.6,930.6-273.6z M931.7-234.3c-3.1,0-5.6-2.5-5.6-5.6
		c0-1.2,0.4-2.3,1-3.2c0.4-0.5,0.8-1,1.3-1.3c0.9-0.7,2.1-1.1,3.4-1.1c1.4,0,2.7,0.5,3.6,1.3c0.5,0.4,0.8,0.9,1.2,1.4
		c0.5,0.8,0.8,1.8,0.8,2.9C937.3-236.8,934.8-234.3,931.7-234.3z"/>
</g>
<rect x="957.4" y="-269" class="st4" width="454.5" height="128.5"/>
<text transform="matrix(1 0 0 1 957.4171 -243.4829)" class="st24 st15">OHCOW Heat Stress App</text>
<text transform="matrix(1 0 0 1 201.8492 -72.2512)" class="st14 st18">28</text>
<text transform="matrix(1 0 0 1 125.8495 156.7486)" class="st14 st18">28</text>
<text transform="matrix(1 0 0 1 125.8718 311.7488)" class="st14 st18">28</text>
<text transform="matrix(1 0 0 1 127.8491 460.7488)" class="st14 st18">28</text>
<text transform="matrix(1 0 0 1 899.8379 381.7484)" class="st14 st18">1</text>
<text transform="matrix(1 0 0 1 1109.8376 382.7482)" class="st14 st18">2</text>
<text transform="matrix(1 0 0 1 1319.8374 382.7482)" class="st14 st18">3</text>
<text transform="matrix(1 0 0 1 899.8379 511.7484)" class="st14 st18">4</text>
<text transform="matrix(1 0 0 1 1109.8379 512.7482)" class="st14 st18">5</text>
<text transform="matrix(1 0 0 1 1319.8379 512.7482)" class="st14 st18">6</text>
<text transform="matrix(1 0 0 1 899.8374 643.5728)" class="st14 st18">7</text>
<text transform="matrix(1 0 0 1 1109.838 644.5726)" class="st14 st18">8</text>
<text transform="matrix(1 0 0 1 1319.838 644.5726)" class="st14 st18">9</text>
<text transform="matrix(1 0 0 1 840.8105 771.1775)" class="st14 st18">Back</text>
<text transform="matrix(1 0 0 1 1109.838 772.1772)" class="st14 st18">0</text>
<text transform="matrix(1 0 0 1 1258.1212 772.1772)" class="st14 st18">Done</text>
<polygon points="1134.6,-169.6 834.6,-169.6 984.6,70.4 "/>
<polygon class="st8" points="1112.1,-156.9 857.1,-156.9 984.6,47.9 "/>
<text transform="matrix(1 0 0 1 939.1299 -54.4863)" class="st14" style="font-size:84.375px;">28</text>
<path d="M657.1,448.7l-18.6,10.7V438C646.5,438,653.4,442.3,657.1,448.7z"/>
<path d="M638.5,433.9c-14.1,0-25.6,11.4-25.6,25.6c0,14.1,11.4,25.6,25.6,25.6c14.1,0,25.6-11.4,25.6-25.6
	C664.1,445.4,652.6,433.9,638.5,433.9z M638.5,482c-12.4,0-22.5-10.1-22.5-22.5s10.1-22.5,22.5-22.5s22.5,10.1,22.5,22.5
	S650.9,482,638.5,482z"/>
<path d="M659.6,459.3L659.6,459.3c0,0.6-0.5,1-1,1h-3.1c-0.6,0-1-0.5-1-1l0,0c0-0.6,0.5-1,1-1h3.1
	C659.1,458.3,659.6,458.8,659.6,459.3z"/>
<path class="st0" d="M649.1,441.1L649.1,441.1c0.5,0.3,0.7,0.9,0.4,1.4l-1.5,2.7c-0.3,0.5-0.9,0.7-1.4,0.4l0,0
	c-0.5-0.3-0.7-0.9-0.4-1.4l1.5-2.7C647.9,441,648.6,440.8,649.1,441.1z"/>
<g>
	<path class="st0" d="M656.9,448.9l-4.4,2.6c-0.1-0.3-0.2-0.5-0.1-0.8c0.1-0.3,0.2-0.5,0.5-0.6l2.7-1.5
		C656,448.2,656.6,448.4,656.9,448.9z"/>
	<path d="M656.9,448.9l-4.4,2.6c0.1,0.3,0.4,0.4,0.6,0.5c0.2,0.1,0.5,0,0.8-0.1l2.7-1.5C657,450,657.2,449.4,656.9,448.9z"/>
</g>
<path class="st10" d="M688.9,458.5c-0.2,0.3-0.2,0.8,0,1.1c0.8,1.2,1.3,2.6,1.3,4.2v14.7c0,4.1-3.4,7.4-7.4,7.4H678
	c-4.1,0-7.3-3.3-7.3-7.4v-14.7c0-1.5,0.4-3,1.3-4.1c0.2-0.4,0.2-0.8,0-1.2c-0.8-1.1-1.2-2.4-1.2-3.8v-6.5c0-1.3,0.4-3,1.1-4.7h17.4
	c0.7,1.7,1.2,3.4,1.2,4.7v6.5C690.2,456.1,689.7,457.5,688.9,458.5z"/>
<g>
	<path class="st0" d="M678,438.2c-0.3,0-0.5-0.2-0.5-0.5v-1.5c0-0.3,0.2-0.5,0.5-0.5h4.7c0.3,0,0.5,0.2,0.5,0.5v1.5
		c0,0.3-0.2,0.5-0.5,0.5H678z"/>
	<path d="M682.4,436.5v0.9h-4v-0.9H682.4 M682.7,434.8H678c-0.8,0-1.4,0.6-1.4,1.4v1.5c0,0.8,0.6,1.4,1.4,1.4h4.7
		c0.8,0,1.4-0.6,1.4-1.4v-1.5C684.1,435.4,683.5,434.8,682.7,434.8L682.7,434.8z"/>
</g>
<g>
	<path d="M683.6,440c1,0,2.2,1,3.2,2.7s1.7,3.9,1.7,5.4v6.5c0,1.1-0.3,2.1-0.9,2.9c-0.6,0.9-0.7,2.1-0.1,3c0.7,1,1,2.1,1,3.2v14.7
		c0,1.5-0.6,3-1.7,4.1c-1.1,1.1-2.5,1.7-4.1,1.7h-4.8c-3.2,0-5.8-2.6-5.8-5.8v-14.7c0-1.2,0.3-2.3,1-3.2c0.6-0.9,0.6-2.1-0.1-3
		c-0.6-0.8-0.9-1.9-0.9-2.9v-6.5c0-1.5,0.7-3.7,1.7-5.4s2.2-2.7,3.2-2.7L683.6,440 M683.6,438.4h-6.5c-3.6,0-6.5,6.2-6.5,9.8v6.5
		c0,1.4,0.5,2.8,1.3,3.8c0.3,0.3,0.3,0.8,0,1.2c-0.8,1.2-1.3,2.6-1.3,4.1v14.7c0,4.1,3.3,7.4,7.4,7.4h4.8c4.1,0,7.4-3.3,7.4-7.4
		v-14.7c0-1.5-0.5-3-1.3-4.2c-0.2-0.4-0.2-0.8,0-1.1c0.8-1.1,1.3-2.4,1.3-3.9v-6.5C690.2,444.5,687.2,438.4,683.6,438.4L683.6,438.4
		z"/>
</g>
<text transform="matrix(1 0 0 1 1153.5513 -133.2518)" class="st14" style="font-size:48px;">Temperature:</text>
<text transform="matrix(1 0 0 1 1153.5513 -75.6518)" class="st14" style="font-size:48px;">30 C</text>
<text transform="matrix(1 0 0 1 1153.5513 -18.0518)" class="st14" style="font-size:48px;">Humidity:</text>
<text transform="matrix(1 0 0 1 1153.5513 39.5482)" class="st14" style="font-size:48px;">30%</text>
<text transform="matrix(1 0 0 1 1209.5509 -96.6562)" class="st19" style="font-size:18.656px;">O</text>
<text transform="matrix(1 0 0 1 388.2693 -139.3433)" class="st14 st15">Temperature:</text>
<text transform="matrix(1 0 0 1 388.2693 -96.1433)" class="st14 st15">30 C</text>
<text transform="matrix(1 0 0 1 388.2693 -52.9433)" class="st14 st15">Humidity:</text>
<text transform="matrix(1 0 0 1 388.2693 -9.7433)" class="st14 st15">30%</text>
<text transform="matrix(1 0 0 1 428.2687 -110.4158)" class="st19 st20">O</text>
<text transform="matrix(1 0 0 1 276.2693 120.3889)" class="st14 st15">Temperature: 30 C</text>
<text transform="matrix(1 0 0 1 276.2693 163.5889)" class="st14 st15">Humidity: 30%</text>
<text transform="matrix(1 0 0 1 531.2687 105.5842)" class="st19 st20">O</text>
<text transform="matrix(1 0 0 1 275.0862 276.1324)" class="st14 st15">Temperature: 30 C</text>
<text transform="matrix(1 0 0 1 275.0862 319.3324)" class="st14 st15">Humidity: 30%</text>
<text transform="matrix(1 0 0 1 530.0856 261.3284)" class="st19 st20">O</text>
<text transform="matrix(1 0 0 1 260.7697 418.7405)" class="st14 st15">Temperature: 30 C</text>
<text transform="matrix(1 0 0 1 260.7697 461.9405)" class="st14 st15">Humidity: 30%</text>
<text transform="matrix(1 0 0 1 515.7695 403.9356)" class="st19 st20">O</text>
<linearGradient id="SVGID_4_" gradientUnits="userSpaceOnUse" x1="390" y1="-74.0408" x2="390" y2="-108" gradientTransform="matrix(1 0 0 -1 0 500)">
	<stop  offset="0" style="stop-color:#FFFFFF;stop-opacity:0"/>
	<stop  offset="1" style="stop-color:#CCCCCC"/>
</linearGradient>
<rect x="70" y="574" class="st21" width="640" height="34"/>
<line class="st22" x1="113" y1="48" x2="602" y2="48"/>
<line class="st11" x1="113" y1="208" x2="659" y2="208"/>
<line class="st11" x1="113" y1="363" x2="659" y2="363"/>
<line class="st11" x1="113" y1="517" x2="659" y2="517"/>
<linearGradient id="SVGID_5_" gradientUnits="userSpaceOnUse" x1="1129.7" y1="713" x2="1129.7" y2="704.25" gradientTransform="matrix(1 0 0 -1 0 500)">
	<stop  offset="0" style="stop-color:#CCCCCC"/>
	<stop  offset="1" style="stop-color:#FFFFFF"/>
</linearGradient>
<rect x="809.7" y="-213" class="st23" width="640" height="8.8"/>
<path class="st0" d="M206-274.6c0,1-0.3,2-0.7,2.9l-0.1,0.2l0,0l-23.6,40.8c-0.8,1.4-2.2,2.2-3.8,2.2H169c-1.6,0-3-0.8-3.8-2.2
	l-23.6-40.9c-0.2-0.3-0.4-0.7-0.5-1.1c-0.2-0.6-0.3-1.3-0.3-2s0.1-1.3,0.3-2c0.8-2.3,2.9-3.9,5.4-3.9h53.7
	C203.4-280.4,206-277.8,206-274.6z"/>
<g>
	<path class="st16" d="M204.6-274.5c0-2.5-2.2-4.5-4.7-4.5c-0.1,0,0.1,0,0,0s-0.2,0-0.3,0H147c-0.1,0-0.2,0-0.3,0
		c-2.5,0-4.8,2-4.8,4.5v0.1c0,0.3,0.2,0.6,0.3,0.9h0.1c0.1,0.6,0.4,1.1,0.7,1.6l0.4,0.5l4.8,8.3h50.3l4.9-8.6l0.3-0.5
		c0.2-0.4,0.4-0.7,0.6-1.2C204.4-273.7,204.5-274,204.6-274.5C204.6-274.4,204.6-274.4,204.6-274.5
		C204.6-274.4,204.6-274.4,204.6-274.5z M173.4-265.9c-3.1,0-5.6-2.5-5.6-5.6s2.5-5.6,5.6-5.6s5.6,2.5,5.6,5.6
		S176.5-265.9,173.4-265.9z"/>
	<path class="st17" d="M194.5-256l-14.4,24.8l-0.4,0.8c-0.3,0.3-0.7,0.5-1.1,0.5c-0.8,0-1.6-0.7-1.6-1.5V-256H194.5z"/>
	<path class="st17" d="M152.2-256l14.4,24.8l0.4,0.8c0.3,0.3,0.9,0.5,1.3,0.5c0.8,0,1.7-0.7,1.7-1.5V-256H152.2z"/>
</g>
<g>
	<circle class="st0" cx="191.8" cy="-240.9" r="8.4"/>
	<path class="st0" d="M192-239.5L192-239.5c-3.5,0-6.3-2.8-6.3-6.3v-31.8c0-3.5,2.8-6.3,6.3-6.3l0,0c3.5,0,6.3,2.8,6.3,6.3v31.8
		C198.4-242.3,195.5-239.5,192-239.5z"/>
	<path d="M196.8-245.8v-31.7c0-1.4-0.5-2.6-1.4-3.5s-2.1-1.4-3.5-1.4c-2.7,0-4.9,2.2-4.9,4.9v31.5c-1.3,1.2-2.1,2.8-2.2,4.7
		c0,0.1,0,0.3,0,0.4c0,0.1,0,0.3,0,0.4c0.2,3.7,3.3,6.6,7,6.6c3.9,0,7-3.1,7-7C198.8-242.8,197.9-244.5,196.8-245.8z M190.6-274.6
		h-2.2v-2.5c0-1.9,1.6-3.5,3.5-3.5c1,0,1.9,0.4,2.5,1s1,1.5,1,2.5v30.2c-1.1-0.6-2.3-1-3.6-1c-1.2,0-2.4,0.3-3.4,0.9v-5.1h2.2
		c0.2,0,0.4-0.1,0.5-0.2s0.2-0.3,0.2-0.5c0-0.4-0.3-0.7-0.7-0.7h-2.2v-5.6h2.1c0.2,0,0.4-0.1,0.5-0.2s0.2-0.3,0.2-0.5
		c0-0.4-0.3-0.7-0.7-0.7h-2.1v-5.6h2.1c0.2,0,0.4-0.1,0.5-0.2s0.2-0.3,0.2-0.5c0-0.4-0.3-0.7-0.7-0.7h-2.1v-5.6h2.2
		c0.2,0,0.4-0.1,0.5-0.2s0.2-0.3,0.2-0.5l0,0C191.3-274.3,191-274.6,190.6-274.6z M191.7-235.3c-3.1,0-5.6-2.5-5.6-5.6
		c0-1.2,0.4-2.3,1-3.2c0.4-0.5,0.8-1,1.3-1.3c0.9-0.7,2.1-1.1,3.4-1.1c1.4,0,2.7,0.5,3.6,1.3c0.5,0.4,0.8,0.9,1.2,1.4
		c0.5,0.8,0.8,1.8,0.8,2.9C197.3-237.8,194.8-235.3,191.7-235.3z"/>
</g>
<rect x="217.4" y="-270" class="st4" width="454.5" height="128.5"/>
<text transform="matrix(1 0 0 1 217.4171 -244.4829)" class="st24 st15">OHCOW Heat Stress App</text>
<linearGradient id="SVGID_6_" gradientUnits="userSpaceOnUse" x1="390" y1="714" x2="390" y2="705.25" gradientTransform="matrix(1 0 0 -1 0 500)">
	<stop  offset="0" style="stop-color:#CCCCCC"/>
	<stop  offset="1" style="stop-color:#FFFFFF"/>
</linearGradient>
<rect x="70" y="-214" class="st25" width="640" height="8.8"/>
<text transform="matrix(1 0 0 1 834.5511 144.1187)" class="st14 st15">Time Break:  15min per hour</text>
<text transform="matrix(1 0 0 1 834.5511 187.3187)" class="st14 st15">Water Advisory: 1 cup every 20 min</text>
<text transform="matrix(1 0 0 1 834.5511 230.5187)" class="st14 st15">Advice: Post Heat Warnings</text>
<g>
	
		<radialGradient id="SVGID_7_" cx="611.8" cy="-174.4" r="60.2" gradientTransform="matrix(1 0 0 -1 0 500)" gradientUnits="userSpaceOnUse">
		<stop  offset="0.75" style="stop-color:#FFFFFF"/>
		<stop  offset="1" style="stop-color:#CCCCCC"/>
	</radialGradient>
	<path class="st26" d="M611.8,734.6c-33.2,0-60.2-27-60.2-60.2s27-60.2,60.2-60.2s60.2,27,60.2,60.2S645,734.6,611.8,734.6z"/>
	<path class="st0" d="M611.8,619.4c30.4,0,55,24.6,55,55s-24.6,55-55,55s-55-24.6-55-55C556.8,644.1,581.4,619.4,611.8,619.4
		 M611.8,609.1c-36,0-65.3,29.3-65.3,65.3s29.3,65.3,65.3,65.3s65.3-29.3,65.3-65.3S647.8,609.1,611.8,609.1L611.8,609.1z"/>
</g>
<g>
	
		<radialGradient id="SVGID_8_" cx="465.3" cy="-174.4" r="60.8343" gradientTransform="matrix(1 0 0 -1 0 500)" gradientUnits="userSpaceOnUse">
		<stop  offset="0.75" style="stop-color:#FFFFFF"/>
		<stop  offset="1" style="stop-color:#CCCCCC"/>
	</radialGradient>
	<path class="st27" d="M465.3,735.3c-33.6,0-60.9-27.3-60.9-60.9s27.3-60.9,60.9-60.9s60.9,27.3,60.9,60.9S498.8,735.3,465.3,735.3z
		"/>
	<g>
		<path class="st0" d="M465.3,619.4c30.4,0,55,24.6,55,55s-24.6,55-55,55s-55-24.6-55-55C410.3,644.1,434.9,619.4,465.3,619.4
			 M465.3,607.7c-36.8,0-66.7,29.9-66.7,66.7s29.9,66.7,66.7,66.7s66.7-29.9,66.7-66.7S502.1,607.7,465.3,607.7L465.3,607.7z"/>
	</g>
</g>
<g>
	
		<radialGradient id="SVGID_9_" cx="314.2" cy="-174.4" r="60.9" gradientTransform="matrix(1 0 0 -1 0 500)" gradientUnits="userSpaceOnUse">
		<stop  offset="0.75" style="stop-color:#FFFFFF"/>
		<stop  offset="1" style="stop-color:#CCCCCC"/>
	</radialGradient>
	<path class="st28" d="M314.2,735.3c-33.6,0-60.9-27.3-60.9-60.9s27.3-60.9,60.9-60.9s60.9,27.3,60.9,60.9S347.8,735.3,314.2,735.3z
		"/>
	<g>
		<path class="st0" d="M314.2,619.4c30.4,0,55,24.6,55,55s-24.6,55-55,55s-55-24.6-55-55C259.2,644.1,283.9,619.4,314.2,619.4
			 M314.2,607.7c-36.8,0-66.7,29.9-66.7,66.7s29.9,66.7,66.7,66.7s66.7-29.9,66.7-66.7S351,607.7,314.2,607.7L314.2,607.7z"/>
	</g>
</g>
<g>
	
		<radialGradient id="SVGID_10_" cx="168.2" cy="-174.4" r="60.8344" gradientTransform="matrix(1 0 0 -1 0 500)" gradientUnits="userSpaceOnUse">
		<stop  offset="0.75" style="stop-color:#FFFFFF"/>
		<stop  offset="1" style="stop-color:#CCCCCC"/>
	</radialGradient>
	<path class="st29" d="M168.2,735.3c-33.6,0-60.9-27.3-60.9-60.9s27.3-60.9,60.9-60.9s60.9,27.3,60.9,60.9S201.7,735.3,168.2,735.3z
		"/>
	<g>
		<path class="st0" d="M168.2,619.4c30.4,0,55,24.6,55,55s-24.6,55-55,55s-55-24.6-55-55C113.2,644.1,137.8,619.4,168.2,619.4
			 M168.2,607.7c-36.8,0-66.7,29.9-66.7,66.7s29.9,66.7,66.7,66.7s66.7-29.9,66.7-66.7S205,607.7,168.2,607.7L168.2,607.7z"/>
	</g>
</g>
<rect x="1550" y="607.9" class="st0" width="640" height="210"/>
<path class="st12" d="M2123.2,794.9h-519.4c-13.8,0-25-11.2-25-25l0,0c0-13.8,11.2-25,25-25h519.3c13.8,0,25,11.2,25,25l0,0
	C2148.2,783.7,2137,794.9,2123.2,794.9z"/>
<radialGradient id="SVGID_11_" cx="2136.7" cy="-270.2" r="36" gradientTransform="matrix(1 0 0 -1 0 500)" gradientUnits="userSpaceOnUse">
	<stop  offset="0.8" style="stop-color:#FFFFFF"/>
	<stop  offset="1" style="stop-color:#CCCCCC"/>
</radialGradient>
<circle class="st30" cx="2136.7" cy="770.2" r="36"/>
<path d="M2156.4,759.2l-3.8,2.2c-0.1-0.2-0.2-0.4-0.4-0.6c-5.3-9.1-16.9-12.2-26-7c-7.2,4.1-10.6,12.3-9.2,20l0,0c0,0.1,0,0.3,0,0.4
	c0,1.2-1,2.2-2.2,2.2c-0.6,0-1.1-0.2-1.4-0.5c-0.3-0.3-0.6-0.7-0.7-1.2c0-0.1,0-0.1,0-0.2c-1.8-9.5,2.5-19.4,11.3-24.5
	c11.2-6.5,25.5-2.6,32,8.6C2156.2,758.8,2156.3,759,2156.4,759.2z"/>
<path d="M2159.6,748.2l-2.7,13.4c-0.2,1.2-1.4,1.9-2.6,1.5l-12.9-4.4c-0.9-0.3-1.5-1.3-1.3-2.3l0,0c0.2-1.2,1.4-1.9,2.6-1.5l8.6,2.9
	c1.1,0.4,2.3-0.3,2.6-1.5l1.8-9c0.2-1.2,1.4-1.9,2.6-1.5l0,0C2159.3,746.2,2159.8,747.2,2159.6,748.2z"/>
<path d="M2130.7,782.1l-12.9-4.4c-1.1-0.4-2.3,0.3-2.6,1.5l-2.7,13.4c-0.2,1,0.4,1.9,1.3,2.3l0,0c1.1,0.4,2.3-0.3,2.6-1.5l1.8-9
	c0.2-1.2,1.4-1.9,2.6-1.5l8.6,2.9c1.1,0.4,2.3-0.3,2.6-1.5l0,0C2132.2,783.4,2131.6,782.5,2130.7,782.1z"/>
<path d="M2116.4,782.8l3.8-2.2c0.1,0.2,0.2,0.4,0.4,0.6c5.3,9.1,16.9,12.2,26,7c7.2-4.1,10.6-12.3,9.2-20l0,0c0-0.1,0-0.3,0-0.4
	c0-1.2,1-2.2,2.2-2.2c0.6,0,1.1,0.2,1.4,0.5c0.3,0.3,0.6,0.7,0.7,1.2c0,0.1,0,0.1,0,0.2c1.8,9.5-2.5,19.4-11.3,24.5
	c-11.2,6.5-25.5,2.6-32-8.6C2116.6,783.3,2116.5,783,2116.4,782.8z"/>
<rect x="1611.6" y="758.9" class="st4" width="511.5" height="35.5"/>
<text transform="matrix(1 0 0 1 1767.389 783.921)" class="st14 st15">Last Change</text>
<path class="st0" d="M1686.1-274.7c0,1-0.3,2-0.7,2.9l-0.1,0.2l0,0l-23.6,40.8c-0.8,1.4-2.2,2.2-3.8,2.2h-8.8c-1.6,0-3-0.8-3.8-2.2
	l-23.6-40.9c-0.2-0.3-0.4-0.7-0.5-1.1c-0.2-0.6-0.3-1.3-0.3-2s0.1-1.3,0.3-2c0.8-2.3,2.9-3.9,5.4-3.9h53.7
	C1683.5-280.5,1686.1-277.9,1686.1-274.7z"/>
<g>
	<path class="st16" d="M1684.7-274.5c0-2.5-2.2-4.5-4.7-4.5c-0.1,0,0.1,0,0,0s-0.2,0-0.3,0h-52.6c-0.1,0-0.2,0-0.3,0
		c-2.5,0-5.1,1.9-5.1,4.5v0.1c0,0.3,0.4,0.6,0.4,0.9h0.2c0.1,0.6,0.5,1.1,0.8,1.6l0.4,0.6l4.9,8.4h50.3l4.9-8.6l0.3-0.5
		c0.2-0.4,0.4-0.7,0.6-1.2c0.1-0.3,0.2-0.6,0.2-1.1C1684.7-274.4,1684.7-274.4,1684.7-274.5L1684.7-274.5z M1653.5-266
		c-3.1,0-5.6-2.5-5.6-5.6s2.5-5.6,5.6-5.6s5.6,2.5,5.6,5.6C1659-268.5,1656.6-266,1653.5-266z"/>
	<path class="st17" d="M1674.6-256l-14.4,24.8l-0.4,0.7c-0.3,0.3-0.9,0.5-1.3,0.5c-0.8,0-1.8-0.7-1.8-1.5V-256H1674.6z"/>
	<path class="st17" d="M1632.2-256l14.4,24.8l0.4,0.7c0.3,0.3,0.7,0.5,1.1,0.5c0.8,0,1.6-0.7,1.6-1.5V-256H1632.2z"/>
</g>
<g>
	<circle class="st0" cx="1671.8" cy="-241" r="8.4"/>
	<path class="st0" d="M1672.1-239.6L1672.1-239.6c-3.5,0-6.3-2.8-6.3-6.3v-31.8c0-3.5,2.8-6.3,6.3-6.3l0,0c3.5,0,6.3,2.8,6.3,6.3
		v31.8C1678.4-242.4,1675.6-239.6,1672.1-239.6z"/>
	<path d="M1676.9-245.9v-31.7c0-1.4-0.5-2.6-1.4-3.5s-2.1-1.4-3.5-1.4c-2.7,0-4.9,2.2-4.9,4.9v31.5c-1.3,1.2-2.1,2.8-2.2,4.7
		c0,0.1,0,0.3,0,0.4s0,0.3,0,0.4c0.2,3.7,3.3,6.6,7,6.6c3.9,0,7-3.1,7-7C1678.8-242.9,1678-244.6,1676.9-245.9z M1670.7-274.7h-2.2
		v-2.5c0-1.9,1.6-3.5,3.5-3.5c1,0,1.9,0.4,2.5,1s1,1.5,1,2.5v30.2c-1.1-0.6-2.3-1-3.6-1c-1.2,0-2.4,0.3-3.4,0.9v-5.1h2.2
		c0.2,0,0.4-0.1,0.5-0.2c0.1-0.1,0.2-0.3,0.2-0.5c0-0.4-0.3-0.7-0.7-0.7h-2.2v-5.6h2.1c0.2,0,0.4-0.1,0.5-0.2s0.2-0.3,0.2-0.5
		c0-0.4-0.3-0.7-0.7-0.7h-2.1v-5.6h2.1c0.2,0,0.4-0.1,0.5-0.2s0.2-0.3,0.2-0.5c0-0.4-0.3-0.7-0.7-0.7h-2.1v-5.6h2.2
		c0.2,0,0.4-0.1,0.5-0.2s0.2-0.3,0.2-0.5l0,0C1671.4-274.3,1671.1-274.7,1670.7-274.7z M1671.7-235.4c-3.1,0-5.6-2.5-5.6-5.6
		c0-1.2,0.4-2.3,1-3.2c0.4-0.5,0.8-1,1.3-1.3c0.9-0.7,2.1-1.1,3.4-1.1c1.4,0,2.7,0.5,3.6,1.3c0.5,0.4,0.8,0.9,1.2,1.4
		c0.5,0.8,0.8,1.8,0.8,2.9C1677.4-237.9,1674.8-235.4,1671.7-235.4z"/>
</g>
<linearGradient id="SVGID_12_" gradientUnits="userSpaceOnUse" x1="1870" y1="714.0836" x2="1870" y2="705.3336" gradientTransform="matrix(1 0 0 -1 0 500)">
	<stop  offset="0" style="stop-color:#CCCCCC"/>
	<stop  offset="1" style="stop-color:#FFFFFF"/>
</linearGradient>
<rect x="1550" y="-214.1" class="st31" width="640" height="8.8"/>
<g>
	
		<radialGradient id="SVGID_13_" cx="2091.8999" cy="-174.3" r="60.1119" gradientTransform="matrix(1 0 0 -1 0 500)" gradientUnits="userSpaceOnUse">
		<stop  offset="0.75" style="stop-color:#FFFFFF"/>
		<stop  offset="1" style="stop-color:#CCCCCC"/>
	</radialGradient>
	<path class="st32" d="M2091.9,734.5c-33.2,0-60.2-27-60.2-60.2s27-60.2,60.2-60.2s60.2,27,60.2,60.2S2125,734.5,2091.9,734.5z"/>
	<path class="st0" d="M2091.9,619.3c30.4,0,55,24.6,55,55s-24.6,55-55,55s-55-24.6-55-55C2036.9,644,2061.5,619.3,2091.9,619.3
		 M2091.9,609c-36,0-65.3,29.3-65.3,65.3s29.3,65.3,65.3,65.3s65.3-29.3,65.3-65.3S2127.9,609,2091.9,609L2091.9,609z"/>
</g>
<g>
	
		<radialGradient id="SVGID_14_" cx="1945.3" cy="-174.3" r="60.9" gradientTransform="matrix(1 0 0 -1 0 500)" gradientUnits="userSpaceOnUse">
		<stop  offset="0.75" style="stop-color:#FFFFFF"/>
		<stop  offset="1" style="stop-color:#CCCCCC"/>
	</radialGradient>
	<path class="st33" d="M1945.3,735.2c-33.6,0-60.9-27.3-60.9-60.9s27.3-60.9,60.9-60.9s60.9,27.3,60.9,60.9
		C2006.2,707.9,1978.9,735.2,1945.3,735.2z"/>
	<g>
		<path class="st0" d="M1945.3,619.3c30.4,0,55,24.6,55,55s-24.6,55-55,55s-55-24.6-55-55C1890.3,644,1915,619.3,1945.3,619.3
			 M1945.3,607.6c-36.8,0-66.7,29.9-66.7,66.7s29.9,66.7,66.7,66.7c36.8,0,66.7-29.9,66.7-66.7
			C2012,637.6,1982.1,607.6,1945.3,607.6L1945.3,607.6z"/>
	</g>
</g>
<g>
	
		<radialGradient id="SVGID_15_" cx="1794.3" cy="-174.3" r="60.8256" gradientTransform="matrix(1 0 0 -1 0 500)" gradientUnits="userSpaceOnUse">
		<stop  offset="0.75" style="stop-color:#FFFFFF"/>
		<stop  offset="1" style="stop-color:#CCCCCC"/>
	</radialGradient>
	<path class="st34" d="M1794.3,735.2c-33.6,0-60.9-27.3-60.9-60.9s27.3-60.9,60.9-60.9s60.9,27.3,60.9,60.9
		C1855.2,707.9,1827.8,735.2,1794.3,735.2z"/>
	<g>
		<path class="st0" d="M1794.3,619.3c30.4,0,55,24.6,55,55s-24.6,55-55,55s-55-24.6-55-55C1739.3,644,1763.9,619.3,1794.3,619.3
			 M1794.3,607.6c-36.8,0-66.7,29.9-66.7,66.7s29.9,66.7,66.7,66.7s66.7-29.9,66.7-66.7C1861,637.6,1831.1,607.6,1794.3,607.6
			L1794.3,607.6z"/>
	</g>
</g>
<g>
	
		<radialGradient id="SVGID_16_" cx="1648.2" cy="-174.3" r="60.9" gradientTransform="matrix(1 0 0 -1 0 500)" gradientUnits="userSpaceOnUse">
		<stop  offset="0.75" style="stop-color:#FFFFFF"/>
		<stop  offset="1" style="stop-color:#CCCCCC"/>
	</radialGradient>
	<path class="st35" d="M1648.2,735.2c-33.6,0-60.9-27.3-60.9-60.9s27.3-60.9,60.9-60.9s60.9,27.3,60.9,60.9
		S1681.8,735.2,1648.2,735.2z"/>
	<g>
		<path class="st0" d="M1648.2,619.3c30.4,0,55,24.6,55,55s-24.6,55-55,55s-55-24.6-55-55C1593.2,644,1617.9,619.3,1648.2,619.3
			 M1648.2,607.6c-36.8,0-66.7,29.9-66.7,66.7s29.9,66.7,66.7,66.7c36.8,0,66.7-29.9,66.7-66.7
			C1714.9,637.6,1685,607.6,1648.2,607.6L1648.2,607.6z"/>
	</g>
</g>
<rect x="1550" y="-190.5" class="st4" width="637.2" height="40.1"/>
<text transform="matrix(1 0 0 1 1617.469 -164.9348)" class="st24 st15">Outdoor Heat Stress for Brantford</text>
<path d="M2145.6,51.5L2145.6,51.5c0,2.8-0.7,5.3-2,7.5c-0.1,0.3-0.3,0.4-0.4,0.7l-13.5,23.6L2116.3,60c0,0,0-0.1-0.1-0.1l-0.5-0.8
	c-1.2-2.2-1.9-4.8-1.9-7.4l0,0c0-8.7,7.1-15.9,15.9-15.9C2138.5,35.7,2145.6,42.8,2145.6,51.5z"/>
<circle class="st0" cx="2129.8" cy="51.5" r="9.3"/>
<rect x="577" y="651.6" width="64.4" height="54.7"/>
<g>
	<path class="st0" d="M599.5,649.9v6.4c0,2.7-2.2,4.9-4.8,4.9h-3.2c-2.7,0-4.8-2.2-4.8-4.9v-6.5c0-0.2,0-0.3,0-0.5
		c0.1-0.9,0.4-1.7,0.9-2.4c0.1-0.1,0.2-0.2,0.3-0.3c0.9-1,2.2-1.5,3.6-1.5h3.2C597.4,645.2,599.5,647.2,599.5,649.9z"/>
	<path d="M597.9,650v6.4c0,1.8-1.4,3.2-3.2,3.2h-3.2c-1.8,0-3.2-1.4-3.2-3.2V650c0-1.8,1.4-3.2,3.2-3.2h3.2
		C596.5,646.8,597.9,648.2,597.9,650z"/>
</g>
<g>
	<path class="st0" d="M631.7,649.9v6.4c0,2.7-2.2,4.9-4.8,4.9h-3.2c-2.7,0-4.8-2.2-4.8-4.9v-6.5c0-0.2,0-0.3,0-0.5
		c0.1-0.9,0.4-1.7,0.9-2.4c0.1-0.1,0.2-0.2,0.3-0.3c0.9-1,2.2-1.5,3.6-1.5h3.2C629.6,645.2,631.7,647.2,631.7,649.9z"/>
	<path d="M630.1,650v6.4c0,1.8-1.4,3.2-3.2,3.2h-3.2c-1.8,0-3.2-1.4-3.2-3.2V650c0-1.8,1.4-3.2,3.2-3.2h3.2
		C628.7,646.8,630.1,648.2,630.1,650z"/>
</g>
<rect x="580.2" y="664.5" class="st0" width="57.9" height="38.6"/>
<g>
	<path class="st6" d="M591.5,682.3c-4.1,0-7.4-3.3-7.4-7.4s3.3-7.4,7.4-7.4s7.4,3.3,7.4,7.4S595.6,682.3,591.5,682.3z"/>
	<path d="M591.5,668.2c3.7,0,6.8,3,6.8,6.8s-3,6.8-6.8,6.8c-3.7,0-6.8-3-6.8-6.8S587.8,668.2,591.5,668.2 M591.5,666.9
		c-4.4,0-8,3.6-8,8l0,0c0,4.4,3.6,8,8,8s8-3.6,8-8l0,0C599.5,670.5,595.9,666.9,591.5,666.9L591.5,666.9z"/>
</g>
<g>
	<path class="st6" d="M626.9,682.3c-4.1,0-7.4-3.3-7.4-7.4s3.3-7.4,7.4-7.4c4.1,0,7.4,3.3,7.4,7.4S631,682.3,626.9,682.3z"/>
	<path d="M626.9,668.2c3.7,0,6.8,3,6.8,6.8s-3,6.8-6.8,6.8c-3.7,0-6.8-3-6.8-6.8S623.1,668.2,626.9,668.2 M626.9,666.9
		c-4.4,0-8,3.6-8,8l0,0c0,4.4,3.6,8,8,8s8-3.6,8-8l0,0C634.9,670.5,631.3,666.9,626.9,666.9L626.9,666.9z"/>
</g>
<g>
	<path class="st6" d="M591.5,700c-4.1,0-7.4-3.3-7.4-7.4c0-4.1,3.3-7.4,7.4-7.4s7.4,3.3,7.4,7.4S595.6,700,591.5,700z"/>
	<path d="M591.5,685.9c3.7,0,6.8,3,6.8,6.8c0,3.7-3,6.8-6.8,6.8c-3.7,0-6.8-3-6.8-6.8S587.8,685.9,591.5,685.9 M591.5,684.6
		c-4.4,0-8,3.6-8,8l0,0c0,4.4,3.6,8,8,8s8-3.6,8-8l0,0C599.5,688.2,595.9,684.6,591.5,684.6L591.5,684.6z"/>
</g>
<g>
	<path class="st6" d="M609.2,700c-4.1,0-7.4-3.3-7.4-7.4c0-4.1,3.3-7.4,7.4-7.4c4.1,0,7.4,3.3,7.4,7.4S613.3,700,609.2,700z"/>
	<path d="M609.2,685.9c3.7,0,6.8,3,6.8,6.8c0,3.7-3,6.8-6.8,6.8c-3.7,0-6.8-3-6.8-6.8S605.5,685.9,609.2,685.9 M609.2,684.6
		c-4.4,0-8,3.6-8,8l0,0c0,4.4,3.6,8,8,8s8-3.6,8-8l0,0C617.2,688.2,613.6,684.6,609.2,684.6L609.2,684.6z"/>
</g>
<g>
	<polygon class="st8" points="602.3,669.3 616.1,669.3 609.2,680.3 	"/>
	<path d="M614.9,669.9l-5.7,9.2l-5.7-9.2H614.9 M617.2,668.6h-16.1l8,12.9L617.2,668.6L617.2,668.6z"/>
</g>
<g>
	<polygon class="st8" points="620,687 633.8,687 626.9,698 	"/>
	<path d="M632.6,687.6l-5.7,9.2l-5.7-9.2H632.6 M634.9,686.3h-16.1l8,12.9L634.9,686.3L634.9,686.3z"/>
</g>
<circle class="st0" cx="641.4" cy="690.2" r="9.7"/>
<path class="st0" d="M641.7,691.8L641.7,691.8c-4,0-7.2-3.2-7.2-7.2v-36.5c0-4,3.2-7.2,7.2-7.2l0,0c4,0,7.2,3.2,7.2,7.2v36.5
	C648.9,688.6,645.7,691.8,641.7,691.8z"/>
<path d="M647.2,684.6v-36.4c0-1.6-0.6-3-1.7-4c-1-1-2.4-1.6-4-1.6c-3.1,0-5.6,2.5-5.6,5.6v36.1c-1.4,1.4-2.4,3.3-2.6,5.4
	c0,0.2,0,0.3,0,0.5s0,0.3,0,0.5c0.3,4.2,3.7,7.5,8,7.5c4.4,0,8-3.6,8-8C649.4,688,648.4,686.1,647.2,684.6z M640.1,651.6h-2.6v-2.9
	c0-2.2,1.8-4,4-4c1.1,0,2.1,0.5,2.8,1.2s1.2,1.7,1.2,2.8v34.6c-1.3-0.7-2.7-1.2-4.2-1.2c-1.4,0-2.7,0.4-3.9,1v-5.8h2.6
	c0.2,0,0.4-0.1,0.6-0.2c0.1-0.1,0.2-0.4,0.2-0.6c0-0.5-0.4-0.8-0.8-0.8h-2.6v-6.4h2.4c0.2,0,0.4-0.1,0.6-0.2
	c0.2-0.1,0.2-0.4,0.2-0.6c0-0.5-0.4-0.8-0.8-0.8h-2.4v-6.4h2.4c0.2,0,0.4-0.1,0.6-0.2c0.2-0.1,0.2-0.4,0.2-0.6
	c0-0.5-0.4-0.8-0.8-0.8h-2.4v-6.4h2.6c0.2,0,0.4-0.1,0.6-0.2c0.1-0.1,0.2-0.3,0.2-0.6l0,0C640.9,652,640.5,651.6,640.1,651.6z
	 M641.3,696.6c-3.5,0-6.4-2.9-6.4-6.4c0-1.4,0.4-2.6,1.1-3.6c0.4-0.6,0.9-1.1,1.4-1.5c1.1-0.8,2.4-1.3,3.9-1.3
	c1.6,0,3.1,0.6,4.2,1.5c0.5,0.5,1,1,1.3,1.6c0.6,1,0.9,2.1,0.9,3.3C647.7,693.8,644.8,696.6,641.3,696.6z"/>
<path class="st7" d="M498.8,693v11.3c0,1.3-1.1,2.4-2.4,2.4h-59.1c-1.8,0-3.2-1.5-3.2-3.2v-9.7c0-1.8,1.4-3.2,3.2-3.2h59.1
	C497.7,690.6,498.8,691.6,498.8,693z"/>
<path class="st36" d="M488.6,682.8c7.6-20.2-8.6-20.2,0-40.5"/>
<path class="st36" d="M474,683.1c7.6-20.2-8.6-20.2,0-40.5"/>
<path class="st36" d="M459.4,683.1c7.6-20.2-8.6-20.2,0-40.5"/>
<path class="st36" d="M444.9,682.8c7.6-20.2-8.6-20.2,0-40.5"/>
<polygon points="195.5,652.4 195.5,663.6 163.3,663.6 "/>
<polygon points="195.5,663.6 195.5,703.9 156.9,703.9 156.9,678.1 137.6,678.1 137.6,703.9 131.2,703.9 131.2,663.6 "/>
<rect x="163.3" y="687.8" class="st0" width="6.4" height="6.4"/>
<polygon points="163.3,652.4 163.3,663.6 131.2,663.6 "/>
<circle class="st0" cx="195.5" cy="687.8" r="9.7"/>
<path class="st0" d="M195.8,689.4L195.8,689.4c-4,0-7.2-3.2-7.2-7.2v-36.5c0-4,3.2-7.2,7.2-7.2l0,0c4,0,7.2,3.2,7.2,7.2v36.5
	C203.1,686.2,199.9,689.4,195.8,689.4z"/>
<path d="M201.3,682.2v-36.4c0-1.6-0.6-3-1.7-4c-1-1-2.4-1.6-4-1.6c-3.1,0-5.6,2.5-5.6,5.6v36.1c-1.4,1.4-2.4,3.3-2.6,5.4
	c0,0.2,0,0.3,0,0.5s0,0.3,0,0.5c0.3,4.2,3.7,7.5,8,7.5c4.4,0,8-3.6,8-8C203.6,685.6,202.6,683.6,201.3,682.2z M194.2,649.2h-2.6
	v-2.9c0-2.2,1.8-4,4-4c1.1,0,2.1,0.5,2.8,1.2s1.2,1.7,1.2,2.8v34.6c-1.3-0.7-2.7-1.2-4.2-1.2c-1.4,0-2.7,0.4-3.9,1v-5.8h2.6
	c0.2,0,0.4-0.1,0.6-0.2c0.1-0.1,0.2-0.4,0.2-0.6c0-0.5-0.4-0.8-0.8-0.8h-2.6v-6.4h2.4c0.2,0,0.4-0.1,0.6-0.2
	c0.1-0.1,0.2-0.4,0.2-0.6c0-0.5-0.4-0.8-0.8-0.8h-2.4v-6.4h2.4c0.2,0,0.4-0.1,0.6-0.2c0.1-0.1,0.2-0.4,0.2-0.6
	c0-0.5-0.4-0.8-0.8-0.8h-2.4v-6.4h2.6c0.2,0,0.4-0.1,0.6-0.2c0.1-0.1,0.2-0.3,0.2-0.6l0,0C195,649.5,194.7,649.2,194.2,649.2z
	 M195.5,694.2c-3.5,0-6.4-2.9-6.4-6.4c0-1.4,0.4-2.6,1.1-3.6c0.4-0.6,0.9-1.1,1.4-1.5c1.1-0.8,2.4-1.3,3.9-1.3
	c1.6,0,3.1,0.6,4.2,1.5c0.5,0.5,1,1,1.3,1.6c0.6,1,0.9,2.1,0.9,3.3C201.9,691.3,199,694.2,195.5,694.2z"/>
<path d="M349.8,668.2l-7.5,4.3c-3.1,1.8-6.9,0.8-8.8-2.2v32.2c0,3.6-2.9,6.5-6.6,6.5h-21.7c-3.6,0-6.6-2.9-6.6-6.5v-32.2
	c-1.9,3-5.7,3.9-8.8,2.2l-7.5-4.3c-3.1-1.8-4.2-5.8-2.4-8.9l7.1-12.2c1.3-2.3,3.9-3.5,6.4-3.2c0.1,0,0.2,0,0.3,0h9.3
	c0,3.5,5.8,6.5,13.1,6.5c7.2,0,13-3,13-6.5h9.3c0.1,0,0.2,0,0.3,0c2.5-0.3,5,0.9,6.4,3.2l7.1,12.2C354,662.4,353,666.4,349.8,668.2z
	"/>
<circle class="st37" cx="467.6" cy="676.5" r="20.8"/>
<text transform="matrix(1 0 0 1 456.3555 690.9355)" class="st19 st38">2</text>
<text transform="matrix(1 0 0 1 303.6694 694.1)" class="st0 st14 st39">2</text>
<rect x="2055.7" y="652.6" width="64.4" height="54.7"/>
<g>
	<path class="st0" d="M2078.2,650.9v6.4c0,2.7-2.2,4.9-4.8,4.9h-3.2c-2.7,0-4.8-2.2-4.8-4.9v-6.5c0-0.2,0-0.3,0-0.5
		c0.1-0.9,0.4-1.7,0.9-2.4c0.1-0.1,0.2-0.2,0.3-0.3c0.9-1,2.2-1.5,3.6-1.5h3.2C2076.1,646.2,2078.2,648.2,2078.2,650.9z"/>
	<path d="M2076.6,651v6.4c0,1.8-1.4,3.2-3.2,3.2h-3.2c-1.8,0-3.2-1.4-3.2-3.2V651c0-1.8,1.4-3.2,3.2-3.2h3.2
		C2075.2,647.8,2076.6,649.2,2076.6,651z"/>
</g>
<g>
	<path class="st0" d="M2110.4,650.9v6.4c0,2.7-2.2,4.9-4.8,4.9h-3.2c-2.7,0-4.8-2.2-4.8-4.9v-6.5c0-0.2,0-0.3,0-0.5
		c0.1-0.9,0.4-1.7,0.9-2.4c0.1-0.1,0.2-0.2,0.3-0.3c0.9-1,2.2-1.5,3.6-1.5h3.2C2108.3,646.2,2110.4,648.2,2110.4,650.9z"/>
	<path d="M2108.8,651v6.4c0,1.8-1.4,3.2-3.2,3.2h-3.2c-1.8,0-3.2-1.4-3.2-3.2V651c0-1.8,1.4-3.2,3.2-3.2h3.2
		C2107.4,647.8,2108.8,649.2,2108.8,651z"/>
</g>
<rect x="2058.9" y="665.5" class="st0" width="57.9" height="38.6"/>
<g>
	<path class="st6" d="M2070.2,683.3c-4.1,0-7.4-3.3-7.4-7.4s3.3-7.4,7.4-7.4s7.4,3.3,7.4,7.4S2074.3,683.3,2070.2,683.3z"/>
	<path d="M2070.2,669.2c3.7,0,6.8,3,6.8,6.8s-3,6.8-6.8,6.8s-6.8-3-6.8-6.8S2066.5,669.2,2070.2,669.2 M2070.2,667.9
		c-4.4,0-8,3.6-8,8l0,0c0,4.4,3.6,8,8,8s8-3.6,8-8l0,0C2078.2,671.5,2074.6,667.9,2070.2,667.9L2070.2,667.9z"/>
</g>
<g>
	<path class="st6" d="M2105.6,683.3c-4.1,0-7.4-3.3-7.4-7.4s3.3-7.4,7.4-7.4c4.1,0,7.4,3.3,7.4,7.4S2109.7,683.3,2105.6,683.3z"/>
	<path d="M2105.6,669.2c3.7,0,6.8,3,6.8,6.8s-3,6.8-6.8,6.8c-3.7,0-6.8-3-6.8-6.8S2101.8,669.2,2105.6,669.2 M2105.6,667.9
		c-4.4,0-8,3.6-8,8l0,0c0,4.4,3.6,8,8,8s8-3.6,8-8l0,0C2113.6,671.5,2110,667.9,2105.6,667.9L2105.6,667.9z"/>
</g>
<g>
	<path class="st6" d="M2070.2,701c-4.1,0-7.4-3.3-7.4-7.4c0-4.1,3.3-7.4,7.4-7.4s7.4,3.3,7.4,7.4S2074.3,701,2070.2,701z"/>
	<path d="M2070.2,686.9c3.7,0,6.8,3,6.8,6.8c0,3.7-3,6.8-6.8,6.8s-6.8-3-6.8-6.8S2066.5,686.9,2070.2,686.9 M2070.2,685.6
		c-4.4,0-8,3.6-8,8l0,0c0,4.4,3.6,8,8,8s8-3.6,8-8l0,0C2078.2,689.2,2074.6,685.6,2070.2,685.6L2070.2,685.6z"/>
</g>
<g>
	<path class="st6" d="M2087.9,701c-4.1,0-7.4-3.3-7.4-7.4c0-4.1,3.3-7.4,7.4-7.4c4.1,0,7.4,3.3,7.4,7.4S2092,701,2087.9,701z"/>
	<path d="M2087.9,686.9c3.7,0,6.8,3,6.8,6.8c0,3.7-3,6.8-6.8,6.8c-3.7,0-6.8-3-6.8-6.8S2084.2,686.9,2087.9,686.9 M2087.9,685.6
		c-4.4,0-8,3.6-8,8l0,0c0,4.4,3.6,8,8,8s8-3.6,8-8l0,0C2095.9,689.2,2092.3,685.6,2087.9,685.6L2087.9,685.6z"/>
</g>
<g>
	<polygon class="st8" points="2081,670.3 2094.8,670.3 2087.9,681.3 	"/>
	<path d="M2093.6,670.9l-5.7,9.2l-5.7-9.2H2093.6 M2095.9,669.6h-16.1l8,12.9L2095.9,669.6L2095.9,669.6z"/>
</g>
<g>
	<polygon class="st8" points="2098.7,688 2112.5,688 2105.6,699 	"/>
	<path d="M2111.3,688.6l-5.7,9.2l-5.7-9.2H2111.3 M2113.6,687.3h-16.1l8,12.9L2113.6,687.3L2113.6,687.3z"/>
</g>
<circle class="st0" cx="2120.1" cy="691.2" r="9.7"/>
<path class="st0" d="M2120.4,692.8L2120.4,692.8c-4,0-7.2-3.2-7.2-7.2v-36.5c0-4,3.2-7.2,7.2-7.2l0,0c4,0,7.2,3.2,7.2,7.2v36.5
	C2127.6,689.6,2124.4,692.8,2120.4,692.8z"/>
<path d="M2125.9,685.6v-36.4c0-1.6-0.6-3-1.7-4c-1-1-2.4-1.6-4-1.6c-3.1,0-5.6,2.5-5.6,5.6v36.1c-1.4,1.4-2.4,3.3-2.6,5.4
	c0,0.2,0,0.3,0,0.5s0,0.3,0,0.5c0.3,4.2,3.7,7.5,8,7.5c4.4,0,8-3.6,8-8C2128.1,689,2127.1,687.1,2125.9,685.6z M2118.8,652.6h-2.6
	v-2.9c0-2.2,1.8-4,4-4c1.1,0,2.1,0.5,2.8,1.2s1.2,1.7,1.2,2.8v34.6c-1.3-0.7-2.7-1.2-4.2-1.2c-1.4,0-2.7,0.4-3.9,1v-5.8h2.6
	c0.2,0,0.4-0.1,0.6-0.2c0.1-0.1,0.2-0.4,0.2-0.6c0-0.5-0.4-0.8-0.8-0.8h-2.6v-6.4h2.4c0.2,0,0.4-0.1,0.6-0.2
	c0.2-0.1,0.2-0.4,0.2-0.6c0-0.5-0.4-0.8-0.8-0.8h-2.4v-6.4h2.4c0.2,0,0.4-0.1,0.6-0.2s0.2-0.4,0.2-0.6c0-0.5-0.4-0.8-0.8-0.8h-2.4
	v-6.4h2.6c0.2,0,0.4-0.1,0.6-0.2c0.1-0.1,0.2-0.3,0.2-0.6l0,0C2119.6,653,2119.2,652.6,2118.8,652.6z M2120,697.6
	c-3.5,0-6.4-2.9-6.4-6.4c0-1.4,0.4-2.6,1.1-3.6c0.4-0.6,0.9-1.1,1.4-1.5c1.1-0.8,2.4-1.3,3.9-1.3c1.6,0,3.1,0.6,4.2,1.5
	c0.5,0.5,1,1,1.3,1.6c0.6,1,0.9,2.1,0.9,3.3C2126.4,694.8,2123.5,697.6,2120,697.6z"/>
<path d="M1828.5,669.2l-7.5,4.3c-3.1,1.8-6.9,0.8-8.8-2.2v32.2c0,3.6-2.9,6.5-6.6,6.5h-21.7c-3.6,0-6.6-2.9-6.6-6.5v-32.2
	c-1.9,3-5.7,3.9-8.8,2.2l-7.5-4.3c-3.1-1.8-4.2-5.8-2.4-8.9l7.1-12.2c1.3-2.3,3.9-3.5,6.4-3.2c0.1,0,0.2,0,0.3,0h9.3
	c0,3.5,5.8,6.5,13.1,6.5c7.2,0,13-3,13-6.5h9.3c0.1,0,0.2,0,0.3,0c2.5-0.3,5,0.9,6.4,3.2l7.1,12.2
	C1832.7,663.4,1831.7,667.4,1828.5,669.2z"/>
<text transform="matrix(1 0 0 1 1782.3694 695.1)" class="st0 st14 st39">2</text>
<path class="st40" d="M1961.5,645.3c-14-5.2-14,6-28,0"/>
<path class="st40" d="M1955.4,668.7c-9.5-11.5-15.1-1.8-24.2-14"/>
<path class="st40" d="M1938.2,685.9c-2.5-14.7-12.2-9.1-14-24.2"/>
<path class="st40" d="M1915.1,692c5.2-14-6-14,0-28"/>
<path d="M1982.7,709.1c-8.1-3.7-20.6-6.2-34.6-6.2c-14.7,0-27.7,2.6-35.6,6.7c4.1-5.6,18.4-9.8,35.3-9.8
	C1964.2,699.8,1978.1,703.7,1982.7,709.1z"/>
<rect x="1974.9" y="698.4" width="1.6" height="7.8"/>
<g>
	<path class="st0" d="M1975.7,698.9c-3.1,0-5.6-2.5-5.6-5.5s2.5-5.5,5.6-5.5s5.5,2.5,5.5,5.5S1978.7,698.9,1975.7,698.9z"/>
	<path d="M1975.7,688.9c2.5,0,4.5,2,4.5,4.5s-2,4.5-4.5,4.5s-4.5-2-4.5-4.5S1973.2,688.9,1975.7,688.9 M1975.7,686.7
		c-3.7,0-6.6,3-6.6,6.6s3,6.6,6.6,6.6c3.7,0,6.6-3,6.6-6.6S1979.3,686.7,1975.7,686.7L1975.7,686.7z"/>
</g>
<g>
	<g>
		<g>
			<g>
				<g>
					<defs>
						<rect id="SVGID_17_" x="1908.7" y="639.1" width="38.9" height="38.9"/>
					</defs>
					<clipPath id="SVGID_18_">
						<use xlink:href="#SVGID_17_"  style="overflow:visible;"/>
					</clipPath>
					<g class="st41">
						<path class="st0" d="M1915.7,658.1c-6.6,0-11.9-5.4-11.9-11.9c0-6.6,5.4-12,11.9-12s12,5.4,12,11.9
							C1927.7,652.8,1922.3,658.1,1915.7,658.1z"/>
						<path d="M1915.7,635.6c5.9,0,10.6,4.8,10.6,10.6s-4.8,10.6-10.6,10.6s-10.6-4.8-10.6-10.6S1909.9,635.6,1915.7,635.6
							 M1915.7,632.9c-7.3,0-13.3,5.9-13.3,13.3s5.9,13.3,13.3,13.3s13.3-5.9,13.3-13.3S1923,632.9,1915.7,632.9L1915.7,632.9z"/>
					</g>
				</g>
			</g>
		</g>
	</g>
</g>
<circle class="st37" cx="1947.3" cy="674.5" r="20.8"/>
<text transform="matrix(1 0 0 1 1936.0554 688.9355)" class="st19 st38">2</text>
<g>
	<path class="st0" d="M1634.9,656.6c-1.3,0-2.5-0.4-3.5-1.2l-0.4-0.4l-0.5,0.3c-1.4,0.8-3,1.3-4.6,1.3c-1,0-2-0.2-2.9-0.5l-0.3-0.1
		l-0.3,0.1c-0.8,0.3-1.7,0.5-2.6,0.5c-4,0-7.3-3.3-7.3-7.3c0-3.6,2.6-6.6,6.1-7.2h0.3l0.2-0.2c1.7-1.9,4.1-3.1,6.7-3.1
		c3.8,0,7.2,2.4,8.4,6l0.2,0.5h0.6c3.1,0,5.6,2.6,5.6,5.7C1640.5,654,1638,656.6,1634.9,656.6z"/>
	<path d="M1625.8,639.5c3.4,0,6.5,2.2,7.7,5.4l0.4,1.1h1.1c2.6,0,4.8,2.2,4.8,4.9s-2.2,4.9-4.9,4.9c-1.1,0-2.2-0.4-3-1.1l-0.9-0.7
		l-1,0.6c-1.3,0.8-2.7,1.2-4.2,1.2c-0.9,0-1.8-0.1-2.6-0.4l-0.6-0.2l-0.6,0.2c-0.7,0.3-1.5,0.4-2.3,0.4c-3.6,0-6.5-2.9-6.5-6.5
		c0-1.5,0.6-3,1.6-4.2s2.4-1.9,3.8-2.2l0.6-0.1l0.4-0.4C1621.2,640.5,1623.4,639.5,1625.8,639.5 M1625.8,637.9
		c-2.9,0-5.6,1.3-7.4,3.4c-3.8,0.6-6.8,4-6.8,8c0,4.5,3.6,8.1,8.1,8.1c1,0,2-0.2,2.9-0.5c1,0.3,2,0.5,3.1,0.5c1.8,0,3.6-0.5,5-1.4
		c1.1,0.9,2.5,1.4,4,1.4c3.6,0,6.5-2.9,6.5-6.5s-2.9-6.4-6.4-6.5C1633.6,640.6,1630,637.9,1625.8,637.9L1625.8,637.9z"/>
</g>
<rect x="1653.4" y="682.3" width="3.2" height="12.8"/>
<rect x="1634.7" y="688.9" width="1.6" height="8.1"/>
<g>
	<path class="st0" d="M1655,682.8c-6.9,0-12.5-5.6-12.5-12.5s5.6-12.5,12.5-12.5s12.5,5.6,12.5,12.5
		C1667.4,677.2,1661.9,682.8,1655,682.8z"/>
	<path d="M1655,659.3c6.1,0,11.1,5,11.1,11.1s-5,11.1-11.1,11.1s-11.1-5-11.1-11.1S1648.9,659.3,1655,659.3 M1655,656.5
		c-7.6,0-13.8,6.2-13.8,13.8s6.2,13.8,13.8,13.8s13.8-6.2,13.8-13.8S1662.6,656.5,1655,656.5L1655,656.5z"/>
</g>
<g>
	<path class="st0" d="M1635.5,691c-3.2,0-5.8-2.6-5.8-5.8s2.6-5.8,5.8-5.8s5.8,2.6,5.8,5.8S1638.7,691,1635.5,691z"/>
	<path d="M1635.5,680.6c2.6,0,4.7,2.1,4.7,4.7s-2.1,4.7-4.7,4.7s-4.7-2.1-4.7-4.7S1632.9,680.6,1635.5,680.6 M1635.5,678.3
		c-3.8,0-6.9,3.1-6.9,6.9s3.1,6.9,6.9,6.9s6.9-3.1,6.9-6.9S1639.3,678.3,1635.5,678.3L1635.5,678.3z"/>
</g>
<path d="M1685.2,704.4c-8.4-3.9-21.5-6.4-36.2-6.4c-15.3,0-28.9,2.7-37.2,6.9c4.3-5.9,19.2-10.2,36.9-10.2
	C1665.9,694.7,1680.4,698.8,1685.2,704.4z"/>
<circle class="st0" cx="1675.9" cy="692.6" r="9.7"/>
<path class="st0" d="M1676.2,694.2L1676.2,694.2c-4,0-7.3-3.3-7.3-7.3v-36.8c0-4,3.3-7.3,7.3-7.3l0,0c4,0,7.3,3.3,7.3,7.3v36.8
	C1683.5,691,1680.3,694.2,1676.2,694.2z"/>
<path d="M1681.8,687v-36.7c0-1.6-0.6-3-1.7-4c-1-1-2.4-1.7-4-1.7c-3.1,0-5.7,2.5-5.7,5.7v36.4c-1.5,1.4-2.5,3.3-2.6,5.4
	c0,0.2,0,0.3,0,0.5s0,0.3,0,0.5c0.3,4.2,3.8,7.6,8.1,7.6c4.5,0,8.1-3.6,8.1-8.1C1684,690.4,1683,688.4,1681.8,687z M1674.6,653.6
	h-2.6v-2.9c0-2.2,1.8-4.1,4.1-4.1c1.1,0,2.1,0.5,2.9,1.2c0.7,0.7,1.2,1.8,1.2,2.9v34.9c-1.3-0.7-2.7-1.2-4.2-1.2
	c-1.4,0-2.8,0.4-3.9,1v-5.9h2.6c0.2,0,0.4-0.1,0.6-0.2c0.1-0.1,0.2-0.4,0.2-0.6c0-0.5-0.4-0.8-0.8-0.8h-2.6v-6.5h2.4
	c0.2,0,0.4-0.1,0.6-0.2s0.2-0.4,0.2-0.6c0-0.5-0.4-0.8-0.8-0.8h-2.4v-6.5h2.4c0.2,0,0.4-0.1,0.6-0.2s0.2-0.4,0.2-0.6
	c0-0.5-0.4-0.8-0.8-0.8h-2.4v-6.5h2.6c0.2,0,0.4-0.1,0.6-0.2c0.1-0.1,0.2-0.3,0.2-0.6l0,0C1675.4,654,1675,653.6,1674.6,653.6z
	 M1675.8,699.1c-3.6,0-6.5-2.9-6.5-6.5c0-1.4,0.4-2.6,1.2-3.7c0.4-0.6,0.9-1.1,1.5-1.5c1.1-0.8,2.4-1.3,3.9-1.3
	c1.6,0,3.1,0.6,4.2,1.6c0.5,0.5,1,1,1.3,1.6c0.6,1,0.9,2.1,0.9,3.3C1682.3,696.2,1679.4,699.1,1675.8,699.1z"/>
<radialGradient id="SVGID_19_" cx="654.9" cy="499.7" r="39.92" gradientTransform="matrix(1 0 0 -1 0 500)" gradientUnits="userSpaceOnUse">
	<stop  offset="0.75" style="stop-color:#FFFFFF"/>
	<stop  offset="1" style="stop-color:#CCCCCC"/>
</radialGradient>
<path class="st42" d="M654.9,40.3c-22.1,0-40-17.9-40-40s17.9-40,40-40s40,17.9,40,40S676.9,40.3,654.9,40.3z"/>
<path d="M654.9,17.3L654.9,17.3c-1.2,0-2.1-0.9-2.1-2.1v-29.8c0-1.2,0.9-2.1,2.1-2.1l0,0c1.2,0,2.1,0.9,2.1,2.1v29.8
	C657,16.3,656,17.3,654.9,17.3z"/>
<path d="M669.8,2.4H640c-1.2,0-2.1-0.9-2.1-2.1l0,0c0-1.2,0.9-2.1,2.1-2.1h29.8c1.2,0,2.1,0.9,2.1,2.1l0,0
	C671.9,1.5,670.9,2.4,669.8,2.4z"/>
<linearGradient id="SVGID_20_" gradientUnits="userSpaceOnUse" x1="2589.3999" y1="-73.9572" x2="2589.3999" y2="-107.9164" gradientTransform="matrix(1 0 0 -1 0 500)">
	<stop  offset="0" style="stop-color:#FFFFFF;stop-opacity:0"/>
	<stop  offset="1" style="stop-color:#CCCCCC"/>
</linearGradient>
<rect x="2269.4" y="574" class="st43" width="640" height="34"/>
<rect x="2416.9" y="-270.1" class="st4" width="454.5" height="128.5"/>
<text transform="matrix(1 0 0 1 2416.8369 -244.5665)" class="st24 st15">OHCOW Heat Stress App</text>
<text transform="matrix(1 0 0 1 2321.5735 677.9819)" class="st14 st18">28</text>
<text transform="matrix(1 0 0 1 2470.7878 642.3655)" class="st14 st15">Temperature: 30 C</text>
<text transform="matrix(1 0 0 1 2470.7878 685.5655)" class="st14 st15">Humidity: 30%</text>
<text transform="matrix(1 0 0 1 2725.7876 627.5607)" class="st19 st20">O</text>
<rect x="2269.4" y="607.9" class="st0" width="640" height="210"/>
<path class="st12" d="M2842.6,794.9h-519.4c-13.8,0-25-11.2-25-25l0,0c0-13.8,11.2-25,25-25h519.3c13.8,0,25,11.2,25,25l0,0
	C2867.6,783.7,2856.4,794.9,2842.6,794.9z"/>
<radialGradient id="SVGID_21_" cx="2856.1001" cy="-270.2" r="36" gradientTransform="matrix(1 0 0 -1 0 500)" gradientUnits="userSpaceOnUse">
	<stop  offset="0.8" style="stop-color:#FFFFFF"/>
	<stop  offset="1" style="stop-color:#CCCCCC"/>
</radialGradient>
<circle class="st44" cx="2856.1" cy="770.2" r="36"/>
<path d="M2875.8,759.2l-3.8,2.2c-0.1-0.2-0.2-0.4-0.4-0.6c-5.3-9.1-16.9-12.2-26-7c-7.2,4.1-10.6,12.3-9.2,20l0,0c0,0.1,0,0.3,0,0.4
	c0,1.2-1,2.2-2.2,2.2c-0.6,0-1.1-0.2-1.4-0.5s-0.6-0.7-0.7-1.2c0-0.1,0-0.1,0-0.2c-1.8-9.5,2.5-19.4,11.3-24.5
	c11.2-6.5,25.5-2.6,32,8.6C2875.6,758.8,2875.7,759,2875.8,759.2z"/>
<path d="M2879,748.2l-2.7,13.4c-0.2,1.2-1.4,1.9-2.6,1.5l-12.9-4.4c-0.9-0.3-1.5-1.3-1.3-2.3l0,0c0.2-1.2,1.4-1.9,2.6-1.5l8.6,2.9
	c1.1,0.4,2.3-0.3,2.6-1.5l1.8-9c0.2-1.2,1.4-1.9,2.6-1.5l0,0C2878.7,746.2,2879.2,747.2,2879,748.2z"/>
<path d="M2850.1,782.1l-12.9-4.4c-1.1-0.4-2.3,0.3-2.6,1.5l-2.7,13.4c-0.2,1,0.4,1.9,1.3,2.3l0,0c1.1,0.4,2.3-0.3,2.6-1.5l1.8-9
	c0.2-1.2,1.4-1.9,2.6-1.5l8.6,2.9c1.1,0.4,2.3-0.3,2.6-1.5l0,0C2851.6,783.4,2851,782.5,2850.1,782.1z"/>
<path d="M2835.8,782.8l3.8-2.2c0.1,0.2,0.2,0.4,0.4,0.6c5.3,9.1,16.9,12.2,26,7c7.2-4.1,10.6-12.3,9.2-20l0,0c0-0.1,0-0.3,0-0.4
	c0-1.2,1-2.2,2.2-2.2c0.6,0,1.1,0.2,1.4,0.5s0.6,0.7,0.7,1.2c0,0.1,0,0.1,0,0.2c1.8,9.5-2.5,19.4-11.3,24.5
	c-11.2,6.5-25.5,2.6-32-8.6C2836,783.3,2835.9,783,2835.8,782.8z"/>
<rect x="2331" y="758.9" class="st4" width="511.5" height="35.5"/>
<text transform="matrix(1 0 0 1 2486.7646 783.921)" class="st14 st15">Last Change</text>
<path class="st0" d="M2405.5-274.7c0,1-0.3,2-0.7,2.9l-0.1,0.2l0,0l-23.6,40.8c-0.8,1.4-2.2,2.2-3.8,2.2h-8.8c-1.6,0-3-0.8-3.8-2.2
	l-23.6-40.9c-0.2-0.3-0.4-0.7-0.5-1.1c-0.2-0.6-0.3-1.3-0.3-2s0.1-1.3,0.3-2c0.8-2.3,2.9-3.9,5.4-3.9h53.7
	C2402.9-280.5,2405.5-277.9,2405.5-274.7z"/>
<g>
	<path class="st16" d="M2404.1-274.5c0-2.5-2.2-4.5-4.7-4.5c-0.1,0,0.1,0,0,0s-0.2,0-0.3,0h-52.6c-0.1,0-0.2,0-0.3,0
		c-2.5,0-5.1,1.9-5.1,4.5v0.1c0,0.3,0.4,0.6,0.4,0.9h0.2c0.1,0.6,0.5,1.1,0.8,1.6l0.4,0.6l4.9,8.4h50.3l4.9-8.6l0.3-0.5
		c0.2-0.4,0.4-0.7,0.6-1.2c0.1-0.3,0.2-0.6,0.2-1.1C2404.1-274.4,2404.1-274.4,2404.1-274.5L2404.1-274.5z M2372.9-266
		c-3.1,0-5.6-2.5-5.6-5.6s2.5-5.6,5.6-5.6s5.6,2.5,5.6,5.6C2378.4-268.5,2376-266,2372.9-266z"/>
	<path class="st17" d="M2394-256l-14.4,24.8l-0.4,0.7c-0.3,0.3-0.9,0.5-1.3,0.5c-0.8,0-1.8-0.7-1.8-1.5V-256H2394z"/>
	<path class="st17" d="M2351.6-256l14.4,24.8l0.4,0.7c0.3,0.3,0.7,0.5,1.1,0.5c0.8,0,1.6-0.7,1.6-1.5V-256H2351.6z"/>
</g>
<g>
	<circle class="st0" cx="2391.2" cy="-241" r="8.4"/>
	<path class="st0" d="M2391.5-239.6L2391.5-239.6c-3.5,0-6.3-2.8-6.3-6.3v-31.8c0-3.5,2.8-6.3,6.3-6.3l0,0c3.5,0,6.3,2.8,6.3,6.3
		v31.8C2397.8-242.4,2395-239.6,2391.5-239.6z"/>
	<path d="M2396.3-245.9v-31.7c0-1.4-0.5-2.6-1.4-3.5s-2.1-1.4-3.5-1.4c-2.7,0-4.9,2.2-4.9,4.9v31.5c-1.3,1.2-2.1,2.8-2.2,4.7
		c0,0.1,0,0.3,0,0.4c0,0.1,0,0.3,0,0.4c0.2,3.7,3.3,6.6,7,6.6c3.9,0,7-3.1,7-7C2398.2-242.9,2397.4-244.6,2396.3-245.9z
		 M2390.1-274.7h-2.2v-2.5c0-1.9,1.6-3.5,3.5-3.5c1,0,1.9,0.4,2.5,1s1,1.5,1,2.5v30.2c-1.1-0.6-2.3-1-3.6-1c-1.2,0-2.4,0.3-3.4,0.9
		v-5.1h2.2c0.2,0,0.4-0.1,0.5-0.2c0.1-0.1,0.2-0.3,0.2-0.5c0-0.4-0.3-0.7-0.7-0.7h-2.2v-5.6h2.1c0.2,0,0.4-0.1,0.5-0.2
		s0.2-0.3,0.2-0.5c0-0.4-0.3-0.7-0.7-0.7h-2.1v-5.6h2.1c0.2,0,0.4-0.1,0.5-0.2s0.2-0.3,0.2-0.5c0-0.4-0.3-0.7-0.7-0.7h-2.1v-5.6h2.2
		c0.2,0,0.4-0.1,0.5-0.2s0.2-0.3,0.2-0.5l0,0C2390.8-274.3,2390.5-274.7,2390.1-274.7z M2391.1-235.4c-3.1,0-5.6-2.5-5.6-5.6
		c0-1.2,0.4-2.3,1-3.2c0.4-0.5,0.8-1,1.3-1.3c0.9-0.7,2.1-1.1,3.4-1.1c1.4,0,2.7,0.5,3.6,1.3c0.5,0.4,0.8,0.9,1.2,1.4
		c0.5,0.8,0.8,1.8,0.8,2.9C2396.8-237.9,2394.2-235.4,2391.1-235.4z"/>
</g>
<linearGradient id="SVGID_22_" gradientUnits="userSpaceOnUse" x1="2590.0999" y1="714.0836" x2="2590.1003" y2="705.3336" gradientTransform="matrix(1 0 0 -1 0 500)">
	<stop  offset="0" style="stop-color:#CCCCCC"/>
	<stop  offset="1" style="stop-color:#FFFFFF;stop-opacity:0"/>
</linearGradient>
<rect x="2270.1" y="-214.1" class="st45" width="640" height="8.8"/>
<g>
	
		<radialGradient id="SVGID_23_" cx="2811.3" cy="-174.3" r="60.0998" gradientTransform="matrix(1 0 0 -1 0 500)" gradientUnits="userSpaceOnUse">
		<stop  offset="0.75" style="stop-color:#FFFFFF"/>
		<stop  offset="1" style="stop-color:#CCCCCC"/>
	</radialGradient>
	<path class="st46" d="M2811.3,734.5c-33.2,0-60.2-27-60.2-60.2s27-60.2,60.2-60.2s60.2,27,60.2,60.2S2844.4,734.5,2811.3,734.5z"/>
	<path class="st0" d="M2811.3,619.3c30.4,0,55,24.6,55,55s-24.6,55-55,55s-55-24.6-55-55C2756.3,644,2780.9,619.3,2811.3,619.3
		 M2811.3,609c-36,0-65.3,29.3-65.3,65.3s29.3,65.3,65.3,65.3s65.3-29.3,65.3-65.3S2847.3,609,2811.3,609L2811.3,609z"/>
</g>
<g>
	
		<radialGradient id="SVGID_24_" cx="2664.7" cy="-174.3" r="60.9" gradientTransform="matrix(1 0 0 -1 0 500)" gradientUnits="userSpaceOnUse">
		<stop  offset="0.75" style="stop-color:#FFFFFF"/>
		<stop  offset="1" style="stop-color:#CCCCCC"/>
	</radialGradient>
	<path class="st47" d="M2664.7,735.2c-33.6,0-60.9-27.3-60.9-60.9s27.3-60.9,60.9-60.9s60.9,27.3,60.9,60.9
		S2698.3,735.2,2664.7,735.2z"/>
	<g>
		<path class="st0" d="M2664.7,619.3c30.4,0,55,24.6,55,55s-24.6,55-55,55s-55-24.6-55-55C2609.7,644,2634.4,619.3,2664.7,619.3
			 M2664.7,607.6c-36.8,0-66.7,29.9-66.7,66.7s29.9,66.7,66.7,66.7s66.7-29.9,66.7-66.7C2731.4,637.6,2701.5,607.6,2664.7,607.6
			L2664.7,607.6z"/>
	</g>
</g>
<g>
	
		<radialGradient id="SVGID_25_" cx="2513.7" cy="-174.3" r="60.8134" gradientTransform="matrix(1 0 0 -1 0 500)" gradientUnits="userSpaceOnUse">
		<stop  offset="0.75" style="stop-color:#FFFFFF"/>
		<stop  offset="1" style="stop-color:#CCCCCC"/>
	</radialGradient>
	<path class="st48" d="M2513.7,735.2c-33.6,0-60.9-27.3-60.9-60.9s27.3-60.9,60.9-60.9s60.9,27.3,60.9,60.9
		S2547.2,735.2,2513.7,735.2z"/>
	<g>
		<path class="st0" d="M2513.7,619.3c30.4,0,55,24.6,55,55s-24.6,55-55,55s-55-24.6-55-55C2458.7,644,2483.3,619.3,2513.7,619.3
			 M2513.7,607.6c-36.8,0-66.7,29.9-66.7,66.7s29.9,66.7,66.7,66.7s66.7-29.9,66.7-66.7C2580.4,637.6,2550.5,607.6,2513.7,607.6
			L2513.7,607.6z"/>
	</g>
</g>
<g>
	
		<radialGradient id="SVGID_26_" cx="2367.6001" cy="-174.3" r="60.9" gradientTransform="matrix(1 0 0 -1 0 500)" gradientUnits="userSpaceOnUse">
		<stop  offset="0.75" style="stop-color:#FFFFFF"/>
		<stop  offset="1" style="stop-color:#CCCCCC"/>
	</radialGradient>
	<path class="st49" d="M2367.6,735.2c-33.6,0-60.9-27.3-60.9-60.9s27.3-60.9,60.9-60.9c33.6,0,60.9,27.3,60.9,60.9
		S2401.2,735.2,2367.6,735.2z"/>
	<g>
		<path class="st0" d="M2367.6,619.3c30.4,0,55,24.6,55,55s-24.6,55-55,55s-55-24.6-55-55C2312.6,644,2337.3,619.3,2367.6,619.3
			 M2367.6,607.6c-36.8,0-66.7,29.9-66.7,66.7s29.9,66.7,66.7,66.7s66.7-29.9,66.7-66.7C2434.3,637.6,2404.4,607.6,2367.6,607.6
			L2367.6,607.6z"/>
	</g>
</g>
<rect x="2269.4" y="-190.5" class="st4" width="637.2" height="40.1"/>
<rect x="2775.1" y="652.6" width="64.4" height="54.7"/>
<g>
	<path class="st0" d="M2797.6,650.9v6.4c0,2.7-2.2,4.9-4.8,4.9h-3.2c-2.7,0-4.8-2.2-4.8-4.9v-6.5c0-0.2,0-0.3,0-0.5
		c0.1-0.9,0.4-1.7,0.9-2.4c0.1-0.1,0.2-0.2,0.3-0.3c0.9-1,2.2-1.5,3.6-1.5h3.2C2795.5,646.2,2797.6,648.2,2797.6,650.9z"/>
	<path d="M2796,651v6.4c0,1.8-1.4,3.2-3.2,3.2h-3.2c-1.8,0-3.2-1.4-3.2-3.2V651c0-1.8,1.4-3.2,3.2-3.2h3.2
		C2794.6,647.8,2796,649.2,2796,651z"/>
</g>
<g>
	<path class="st0" d="M2829.8,650.9v6.4c0,2.7-2.2,4.9-4.8,4.9h-3.2c-2.7,0-4.8-2.2-4.8-4.9v-6.5c0-0.2,0-0.3,0-0.5
		c0.1-0.9,0.4-1.7,0.9-2.4c0.1-0.1,0.2-0.2,0.3-0.3c0.9-1,2.2-1.5,3.6-1.5h3.2C2827.7,646.2,2829.8,648.2,2829.8,650.9z"/>
	<path d="M2828.2,651v6.4c0,1.8-1.4,3.2-3.2,3.2h-3.2c-1.8,0-3.2-1.4-3.2-3.2V651c0-1.8,1.4-3.2,3.2-3.2h3.2
		C2826.8,647.8,2828.2,649.2,2828.2,651z"/>
</g>
<rect x="2778.3" y="665.5" class="st0" width="57.9" height="38.6"/>
<g>
	<path class="st6" d="M2789.6,683.3c-4.1,0-7.4-3.3-7.4-7.4s3.3-7.4,7.4-7.4s7.4,3.3,7.4,7.4S2793.7,683.3,2789.6,683.3z"/>
	<path d="M2789.6,669.2c3.7,0,6.8,3,6.8,6.8s-3,6.8-6.8,6.8s-6.8-3-6.8-6.8S2785.9,669.2,2789.6,669.2 M2789.6,667.9
		c-4.4,0-8,3.6-8,8l0,0c0,4.4,3.6,8,8,8s8-3.6,8-8l0,0C2797.6,671.5,2794,667.9,2789.6,667.9L2789.6,667.9z"/>
</g>
<g>
	<path class="st6" d="M2825,683.3c-4.1,0-7.4-3.3-7.4-7.4s3.3-7.4,7.4-7.4c4.1,0,7.4,3.3,7.4,7.4S2829.1,683.3,2825,683.3z"/>
	<path d="M2825,669.2c3.7,0,6.8,3,6.8,6.8s-3,6.8-6.8,6.8c-3.7,0-6.8-3-6.8-6.8S2821.2,669.2,2825,669.2 M2825,667.9
		c-4.4,0-8,3.6-8,8l0,0c0,4.4,3.6,8,8,8s8-3.6,8-8l0,0C2833,671.5,2829.4,667.9,2825,667.9L2825,667.9z"/>
</g>
<g>
	<path class="st6" d="M2789.6,701c-4.1,0-7.4-3.3-7.4-7.4c0-4.1,3.3-7.4,7.4-7.4s7.4,3.3,7.4,7.4S2793.7,701,2789.6,701z"/>
	<path d="M2789.6,686.9c3.7,0,6.8,3,6.8,6.8c0,3.7-3,6.8-6.8,6.8s-6.8-3-6.8-6.8S2785.9,686.9,2789.6,686.9 M2789.6,685.6
		c-4.4,0-8,3.6-8,8l0,0c0,4.4,3.6,8,8,8s8-3.6,8-8l0,0C2797.6,689.2,2794,685.6,2789.6,685.6L2789.6,685.6z"/>
</g>
<g>
	<path class="st6" d="M2807.3,701c-4.1,0-7.4-3.3-7.4-7.4c0-4.1,3.3-7.4,7.4-7.4c4.1,0,7.4,3.3,7.4,7.4S2811.4,701,2807.3,701z"/>
	<path d="M2807.3,686.9c3.7,0,6.8,3,6.8,6.8c0,3.7-3,6.8-6.8,6.8c-3.7,0-6.8-3-6.8-6.8S2803.6,686.9,2807.3,686.9 M2807.3,685.6
		c-4.4,0-8,3.6-8,8l0,0c0,4.4,3.6,8,8,8s8-3.6,8-8l0,0C2815.3,689.2,2811.7,685.6,2807.3,685.6L2807.3,685.6z"/>
</g>
<g>
	<polygon class="st8" points="2800.4,670.3 2814.2,670.3 2807.3,681.3 	"/>
	<path d="M2813,670.9l-5.7,9.2l-5.7-9.2H2813 M2815.3,669.6h-16.1l8,12.9L2815.3,669.6L2815.3,669.6z"/>
</g>
<g>
	<polygon class="st8" points="2818.1,688 2831.9,688 2825,699 	"/>
	<path d="M2830.7,688.6l-5.7,9.2l-5.7-9.2H2830.7 M2833,687.3h-16.1l8,12.9L2833,687.3L2833,687.3z"/>
</g>
<circle class="st0" cx="2839.5" cy="691.2" r="9.7"/>
<path class="st0" d="M2839.8,692.8L2839.8,692.8c-4,0-7.2-3.2-7.2-7.2v-36.5c0-4,3.2-7.2,7.2-7.2l0,0c4,0,7.2,3.2,7.2,7.2v36.5
	C2847,689.6,2843.8,692.8,2839.8,692.8z"/>
<path d="M2845.3,685.6v-36.4c0-1.6-0.6-3-1.7-4c-1-1-2.4-1.6-4-1.6c-3.1,0-5.6,2.5-5.6,5.6v36.1c-1.4,1.4-2.4,3.3-2.6,5.4
	c0,0.2,0,0.3,0,0.5s0,0.3,0,0.5c0.3,4.2,3.7,7.5,8,7.5c4.4,0,8-3.6,8-8C2847.5,689,2846.5,687.1,2845.3,685.6z M2838.2,652.6h-2.6
	v-2.9c0-2.2,1.8-4,4-4c1.1,0,2.1,0.5,2.8,1.2s1.2,1.7,1.2,2.8v34.6c-1.3-0.7-2.7-1.2-4.2-1.2c-1.4,0-2.7,0.4-3.9,1v-5.8h2.6
	c0.2,0,0.4-0.1,0.6-0.2c0.1-0.1,0.2-0.4,0.2-0.6c0-0.5-0.4-0.8-0.8-0.8h-2.6v-6.4h2.4c0.2,0,0.4-0.1,0.6-0.2s0.2-0.4,0.2-0.6
	c0-0.5-0.4-0.8-0.8-0.8h-2.4v-6.4h2.4c0.2,0,0.4-0.1,0.6-0.2s0.2-0.4,0.2-0.6c0-0.5-0.4-0.8-0.8-0.8h-2.4v-6.4h2.6
	c0.2,0,0.4-0.1,0.6-0.2c0.1-0.1,0.2-0.3,0.2-0.6l0,0C2839,653,2838.6,652.6,2838.2,652.6z M2839.4,697.6c-3.5,0-6.4-2.9-6.4-6.4
	c0-1.4,0.4-2.6,1.1-3.6c0.4-0.6,0.9-1.1,1.4-1.5c1.1-0.8,2.4-1.3,3.9-1.3c1.6,0,3.1,0.6,4.2,1.5c0.5,0.5,1,1,1.3,1.6
	c0.6,1,0.9,2.1,0.9,3.3C2845.8,694.8,2842.9,697.6,2839.4,697.6z"/>
<path d="M2547.9,669.2l-7.5,4.3c-3.1,1.8-6.9,0.8-8.8-2.2v32.2c0,3.6-2.9,6.5-6.6,6.5h-21.7c-3.6,0-6.6-2.9-6.6-6.5v-32.2
	c-1.9,3-5.7,3.9-8.8,2.2l-7.5-4.3c-3.1-1.8-4.2-5.8-2.4-8.9l7.1-12.2c1.3-2.3,3.9-3.5,6.4-3.2c0.1,0,0.2,0,0.3,0h9.3
	c0,3.5,5.8,6.5,13.1,6.5c7.2,0,13-3,13-6.5h9.3c0.1,0,0.2,0,0.3,0c2.5-0.3,5,0.9,6.4,3.2l7.1,12.2
	C2552.1,663.4,2551.1,667.4,2547.9,669.2z"/>
<text transform="matrix(1 0 0 1 2501.7451 695.1)" class="st0 st14 st39">2</text>
<path class="st40" d="M2680.9,645.3c-14-5.2-14,6-28,0"/>
<path class="st40" d="M2674.8,668.7c-9.5-11.5-15.1-1.8-24.2-14"/>
<path class="st40" d="M2657.6,685.9c-2.5-14.7-12.2-9.1-14-24.2"/>
<path class="st40" d="M2634.5,692c5.2-14-6-14,0-28"/>
<path d="M2702.1,709.1c-8.1-3.7-20.6-6.2-34.6-6.2c-14.7,0-27.7,2.6-35.6,6.7c4.1-5.6,18.4-9.8,35.3-9.8
	C2683.6,699.8,2697.5,703.7,2702.1,709.1z"/>
<rect x="2694.3" y="698.4" width="1.6" height="7.8"/>
<g>
	<path class="st0" d="M2695.1,698.9c-3.1,0-5.6-2.5-5.6-5.5s2.5-5.5,5.6-5.5s5.5,2.5,5.5,5.5S2698.1,698.9,2695.1,698.9z"/>
	<path d="M2695.1,688.9c2.5,0,4.5,2,4.5,4.5s-2,4.5-4.5,4.5s-4.5-2-4.5-4.5S2692.6,688.9,2695.1,688.9 M2695.1,686.7
		c-3.7,0-6.6,3-6.6,6.6s3,6.6,6.6,6.6c3.7,0,6.6-3,6.6-6.6S2698.7,686.7,2695.1,686.7L2695.1,686.7z"/>
</g>
<g>
	<g>
		<g>
			<g>
				<g>
					<defs>
						<rect id="SVGID_27_" x="2628.1" y="639.1" width="38.9" height="38.9"/>
					</defs>
					<clipPath id="SVGID_28_">
						<use xlink:href="#SVGID_27_"  style="overflow:visible;"/>
					</clipPath>
					<g class="st50">
						<path class="st0" d="M2635.1,658.1c-6.6,0-11.9-5.4-11.9-11.9c0-6.6,5.4-12,11.9-12s12,5.4,12,11.9
							C2647.1,652.8,2641.7,658.1,2635.1,658.1z"/>
						<path d="M2635.1,635.6c5.9,0,10.6,4.8,10.6,10.6s-4.8,10.6-10.6,10.6s-10.6-4.8-10.6-10.6S2629.3,635.6,2635.1,635.6
							 M2635.1,632.9c-7.3,0-13.3,5.9-13.3,13.3s5.9,13.3,13.3,13.3c7.4,0,13.3-5.9,13.3-13.3S2642.4,632.9,2635.1,632.9
							L2635.1,632.9z"/>
					</g>
				</g>
			</g>
		</g>
	</g>
</g>
<circle class="st37" cx="2666.7" cy="674.5" r="20.8"/>
<text transform="matrix(1 0 0 1 2655.4312 688.9355)" class="st19 st38">2</text>
<g>
	<path class="st0" d="M2354.3,656.6c-1.3,0-2.5-0.4-3.5-1.2l-0.4-0.4l-0.5,0.3c-1.4,0.8-3,1.3-4.6,1.3c-1,0-2-0.2-2.9-0.5l-0.3-0.1
		l-0.3,0.1c-0.8,0.3-1.7,0.5-2.6,0.5c-4,0-7.3-3.3-7.3-7.3c0-3.6,2.6-6.6,6.1-7.2h0.3l0.2-0.2c1.7-1.9,4.1-3.1,6.7-3.1
		c3.8,0,7.2,2.4,8.4,6l0.2,0.5h0.6c3.1,0,5.6,2.6,5.6,5.7C2359.9,654,2357.4,656.6,2354.3,656.6z"/>
	<path d="M2345.2,639.5c3.4,0,6.5,2.2,7.7,5.4l0.4,1.1h1.1c2.6,0,4.8,2.2,4.8,4.9s-2.2,4.9-4.9,4.9c-1.1,0-2.2-0.4-3-1.1l-0.9-0.7
		l-1,0.6c-1.3,0.8-2.7,1.2-4.2,1.2c-0.9,0-1.8-0.1-2.6-0.4l-0.6-0.2l-0.6,0.2c-0.7,0.3-1.5,0.4-2.3,0.4c-3.6,0-6.5-2.9-6.5-6.5
		c0-1.5,0.6-3,1.6-4.2s2.4-1.9,3.8-2.2l0.6-0.1l0.4-0.4C2340.6,640.5,2342.8,639.5,2345.2,639.5 M2345.2,637.9
		c-2.9,0-5.6,1.3-7.4,3.4c-3.8,0.6-6.8,4-6.8,8c0,4.5,3.6,8.1,8.1,8.1c1,0,2-0.2,2.9-0.5c1,0.3,2,0.5,3.1,0.5c1.8,0,3.6-0.5,5-1.4
		c1.1,0.9,2.5,1.4,4,1.4c3.6,0,6.5-2.9,6.5-6.5s-2.9-6.4-6.4-6.5C2353,640.6,2349.4,637.9,2345.2,637.9L2345.2,637.9z"/>
</g>
<rect x="2372.8" y="682.3" width="3.2" height="12.8"/>
<rect x="2354.1" y="688.9" width="1.6" height="8.1"/>
<g>
	<path class="st0" d="M2374.4,682.8c-6.9,0-12.5-5.6-12.5-12.5s5.6-12.5,12.5-12.5s12.5,5.6,12.5,12.5
		C2386.8,677.2,2381.3,682.8,2374.4,682.8z"/>
	<path d="M2374.4,659.3c6.1,0,11.1,5,11.1,11.1s-5,11.1-11.1,11.1s-11.1-5-11.1-11.1S2368.3,659.3,2374.4,659.3 M2374.4,656.5
		c-7.6,0-13.8,6.2-13.8,13.8s6.2,13.8,13.8,13.8s13.8-6.2,13.8-13.8S2382,656.5,2374.4,656.5L2374.4,656.5z"/>
</g>
<g>
	<path class="st0" d="M2354.9,691c-3.2,0-5.8-2.6-5.8-5.8s2.6-5.8,5.8-5.8s5.8,2.6,5.8,5.8S2358.1,691,2354.9,691z"/>
	<path d="M2354.9,680.6c2.6,0,4.7,2.1,4.7,4.7s-2.1,4.7-4.7,4.7c-2.6,0-4.7-2.1-4.7-4.7S2352.3,680.6,2354.9,680.6 M2354.9,678.3
		c-3.8,0-6.9,3.1-6.9,6.9s3.1,6.9,6.9,6.9c3.8,0,6.9-3.1,6.9-6.9S2358.7,678.3,2354.9,678.3L2354.9,678.3z"/>
</g>
<path d="M2404.6,704.4c-8.4-3.9-21.5-6.4-36.2-6.4c-15.3,0-28.9,2.7-37.2,6.9c4.3-5.9,19.2-10.2,36.9-10.2
	C2385.3,694.7,2399.8,698.8,2404.6,704.4z"/>
<circle class="st0" cx="2395.3" cy="692.6" r="9.7"/>
<path class="st0" d="M2395.6,694.2L2395.6,694.2c-4,0-7.3-3.3-7.3-7.3v-36.8c0-4,3.3-7.3,7.3-7.3l0,0c4,0,7.3,3.3,7.3,7.3v36.8
	C2402.9,691,2399.7,694.2,2395.6,694.2z"/>
<path d="M2401.2,687v-36.7c0-1.6-0.6-3-1.7-4c-1-1-2.4-1.7-4-1.7c-3.1,0-5.7,2.5-5.7,5.7v36.4c-1.5,1.4-2.5,3.3-2.6,5.4
	c0,0.2,0,0.3,0,0.5s0,0.3,0,0.5c0.3,4.2,3.8,7.6,8.1,7.6c4.5,0,8.1-3.6,8.1-8.1C2403.4,690.4,2402.4,688.4,2401.2,687z M2394,653.6
	h-2.6v-2.9c0-2.2,1.8-4.1,4.1-4.1c1.1,0,2.1,0.5,2.9,1.2c0.7,0.7,1.2,1.8,1.2,2.9v34.9c-1.3-0.7-2.7-1.2-4.2-1.2
	c-1.4,0-2.8,0.4-3.9,1v-5.9h2.6c0.2,0,0.4-0.1,0.6-0.2c0.1-0.1,0.2-0.4,0.2-0.6c0-0.5-0.4-0.8-0.8-0.8h-2.6v-6.5h2.4
	c0.2,0,0.4-0.1,0.6-0.2c0.2-0.1,0.2-0.4,0.2-0.6c0-0.5-0.4-0.8-0.8-0.8h-2.4v-6.5h2.4c0.2,0,0.4-0.1,0.6-0.2s0.2-0.4,0.2-0.6
	c0-0.5-0.4-0.8-0.8-0.8h-2.4v-6.5h2.6c0.2,0,0.4-0.1,0.6-0.2c0.1-0.1,0.2-0.3,0.2-0.6l0,0C2394.8,654,2394.4,653.6,2394,653.6z
	 M2395.2,699.1c-3.6,0-6.5-2.9-6.5-6.5c0-1.4,0.4-2.6,1.2-3.7c0.4-0.6,0.9-1.1,1.5-1.5c1.1-0.8,2.4-1.3,3.9-1.3
	c1.6,0,3.1,0.6,4.2,1.6c0.5,0.5,1,1,1.3,1.6c0.6,1,0.9,2.1,0.9,3.3C2401.7,696.2,2398.8,699.1,2395.2,699.1z"/>
<rect x="2270" y="-318" class="st51" width="640" height="28"/>
<line class="st22" x1="1592.7" y1="99.5" x2="2081.7" y2="99.5"/>
<text transform="matrix(1 0 0 1 2410.0352 -298.0818)" class="st0 st24 st55">Telus</text>
<circle class="st52" cx="2286" cy="-303.7" r="9"/>
<circle class="st52" cx="2312.6" cy="-303.7" r="9"/>
<circle class="st53" cx="2337.9" cy="-303.7" r="9"/>
<circle class="st53" cx="2363.6" cy="-303.7" r="9"/>
<circle class="st53" cx="2387.9" cy="-303.7" r="9"/>
<path class="st54" d="M2618-300h-56c-2.2,0-4-1.8-4-4l0,0c0-2.2,1.8-4,4-4h56c2.2,0,4,1.8,4,4l0,0C2622-301.8,2620.2-300,2618-300z"
	/>
<rect x="1550" y="-318" class="st51" width="640" height="28"/>
<text transform="matrix(1 0 0 1 1690.0596 -298.0819)" class="st0 st24 st55">Telus</text>
<circle class="st52" cx="1566.1" cy="-303.7" r="9"/>
<circle class="st52" cx="1592.6" cy="-303.7" r="9"/>
<circle class="st53" cx="1618" cy="-303.7" r="9"/>
<circle class="st53" cx="1643.6" cy="-303.7" r="9"/>
<circle class="st53" cx="1667.9" cy="-303.7" r="9"/>
<path class="st54" d="M1898-300h-56c-2.2,0-4-1.8-4-4l0,0c0-2.2,1.8-4,4-4h56c2.2,0,4,1.8,4,4l0,0C1902-301.8,1900.2-300,1898-300z"
	/>
<rect x="810" y="-318" class="st51" width="640" height="28"/>
<text transform="matrix(1 0 0 1 950.0596 -298.0819)" class="st0 st24 st55">Telus</text>
<circle class="st52" cx="826.1" cy="-303.7" r="9"/>
<circle class="st52" cx="852.6" cy="-303.7" r="9"/>
<circle class="st53" cx="878" cy="-303.7" r="9"/>
<circle class="st53" cx="903.6" cy="-303.7" r="9"/>
<circle class="st53" cx="927.9" cy="-303.7" r="9"/>
<path class="st54" d="M1158-300h-56c-2.2,0-4-1.8-4-4l0,0c0-2.2,1.8-4,4-4h56c2.2,0,4,1.8,4,4l0,0C1162-301.8,1160.2-300,1158-300z"
	/>
<rect x="70" y="-318" class="st51" width="640" height="28"/>
<text transform="matrix(1 0 0 1 210.0596 -298.0819)" class="st0 st24 st55">Telus</text>
<circle class="st52" cx="86.1" cy="-303.7" r="9"/>
<circle class="st52" cx="112.6" cy="-303.7" r="9"/>
<circle class="st53" cx="138" cy="-303.7" r="9"/>
<circle class="st53" cx="163.6" cy="-303.7" r="9"/>
<circle class="st53" cx="187.9" cy="-303.7" r="9"/>
<path class="st54" d="M418-300h-56c-2.2,0-4-1.8-4-4l0,0c0-2.2,1.8-4,4-4h56c2.2,0,4,1.8,4,4l0,0C422-301.8,420.2-300,418-300z"/>
<linearGradient id="SVGID_29_" gradientUnits="userSpaceOnUse" x1="1130" y1="247.9592" x2="1130" y2="214" gradientTransform="matrix(1 0 0 -1 0 500)">
	<stop  offset="0" style="stop-color:#FFFFFF;stop-opacity:0"/>
	<stop  offset="1" style="stop-color:#CCCCCC"/>
</linearGradient>
<rect x="810" y="252" class="st56" width="640" height="34"/>
<rect x="3002.6" y="-318" class="st0" width="640" height="1136"/>
<linearGradient id="SVGID_30_" gradientUnits="userSpaceOnUse" x1="3322" y1="-73.9572" x2="3322" y2="-107.9164" gradientTransform="matrix(1 0 0 -1 0 500)">
	<stop  offset="0" style="stop-color:#FFFFFF;stop-opacity:0"/>
	<stop  offset="1" style="stop-color:#CCCCCC"/>
</linearGradient>
<rect x="3002" y="574" class="st57" width="640" height="34"/>
<rect x="3149.5" y="-270.1" class="st4" width="454.5" height="128.5"/>
<text transform="matrix(1 0 0 1 3149.4612 -244.5665)" class="st24 st15">OHCOW Heat Stress App</text>
<text transform="matrix(1 0 0 1 3054.1978 677.9819)" class="st14 st18">28</text>
<text transform="matrix(1 0 0 1 3203.4121 642.3655)" class="st14 st15">Temperature: 30 C</text>
<text transform="matrix(1 0 0 1 3203.4121 685.5655)" class="st14 st15">Humidity: 30%</text>
<text transform="matrix(1 0 0 1 3458.4121 627.5607)" class="st19 st20">O</text>
<rect x="3002" y="607.9" class="st0" width="640" height="210"/>
<path class="st12" d="M3575.2,794.9h-519.4c-13.8,0-25-11.2-25-25l0,0c0-13.8,11.2-25,25-25h519.3c13.8,0,25,11.2,25,25l0,0
	C3600.2,783.7,3589,794.9,3575.2,794.9z"/>
<radialGradient id="SVGID_31_" cx="3588.7" cy="-270.2" r="36" gradientTransform="matrix(1 0 0 -1 0 500)" gradientUnits="userSpaceOnUse">
	<stop  offset="0.8" style="stop-color:#FFFFFF"/>
	<stop  offset="1" style="stop-color:#CCCCCC"/>
</radialGradient>
<circle class="st58" cx="3588.7" cy="770.2" r="36"/>
<path d="M3608.4,759.2l-3.8,2.2c-0.1-0.2-0.2-0.4-0.4-0.6c-5.3-9.1-16.9-12.2-26-7c-7.2,4.1-10.6,12.3-9.2,20l0,0c0,0.1,0,0.3,0,0.4
	c0,1.2-1,2.2-2.2,2.2c-0.6,0-1.1-0.2-1.4-0.5s-0.6-0.7-0.7-1.2c0-0.1,0-0.1,0-0.2c-1.8-9.5,2.5-19.4,11.3-24.5
	c11.2-6.5,25.5-2.6,32,8.6C3608.2,758.8,3608.3,759,3608.4,759.2z"/>
<path d="M3611.6,748.2l-2.7,13.4c-0.2,1.2-1.4,1.9-2.6,1.5l-12.9-4.4c-0.9-0.3-1.5-1.3-1.3-2.3l0,0c0.2-1.2,1.4-1.9,2.6-1.5l8.6,2.9
	c1.1,0.4,2.3-0.3,2.6-1.5l1.8-9c0.2-1.2,1.4-1.9,2.6-1.5l0,0C3611.3,746.2,3611.8,747.2,3611.6,748.2z"/>
<path d="M3582.7,782.1l-12.9-4.4c-1.1-0.4-2.3,0.3-2.6,1.5l-2.7,13.4c-0.2,1,0.4,1.9,1.3,2.3l0,0c1.1,0.4,2.3-0.3,2.6-1.5l1.8-9
	c0.2-1.2,1.4-1.9,2.6-1.5l8.6,2.9c1.1,0.4,2.3-0.3,2.6-1.5l0,0C3584.2,783.4,3583.6,782.5,3582.7,782.1z"/>
<path d="M3568.4,782.8l3.8-2.2c0.1,0.2,0.2,0.4,0.4,0.6c5.3,9.1,16.9,12.2,26,7c7.2-4.1,10.6-12.3,9.2-20l0,0c0-0.1,0-0.3,0-0.4
	c0-1.2,1-2.2,2.2-2.2c0.6,0,1.1,0.2,1.4,0.5s0.6,0.7,0.7,1.2c0,0.1,0,0.1,0,0.2c1.8,9.5-2.5,19.4-11.3,24.5
	c-11.2,6.5-25.5,2.6-32-8.6C3568.6,783.3,3568.5,783,3568.4,782.8z"/>
<rect x="3063.6" y="758.9" class="st4" width="511.5" height="35.5"/>
<text transform="matrix(1 0 0 1 3219.3889 783.921)" class="st14 st15">Last Change</text>
<path class="st0" d="M3138.1-274.7c0,1-0.3,2-0.7,2.9l-0.1,0.2l0,0l-23.6,40.8c-0.8,1.4-2.2,2.2-3.8,2.2h-8.8c-1.6,0-3-0.8-3.8-2.2
	l-23.6-40.9c-0.2-0.3-0.4-0.7-0.5-1.1c-0.2-0.6-0.3-1.3-0.3-2s0.1-1.3,0.3-2c0.8-2.3,2.9-3.9,5.4-3.9h53.7
	C3135.5-280.5,3138.1-277.9,3138.1-274.7z"/>
<g>
	<path class="st16" d="M3136.7-274.5c0-2.5-2.2-4.5-4.7-4.5c-0.1,0,0.1,0,0,0s-0.2,0-0.3,0h-52.6c-0.1,0-0.2,0-0.3,0
		c-2.5,0-5.1,1.9-5.1,4.5v0.1c0,0.3,0.4,0.6,0.4,0.9h0.2c0.1,0.6,0.5,1.1,0.8,1.6l0.4,0.6l4.9,8.4h50.3l4.9-8.6l0.3-0.5
		c0.2-0.4,0.4-0.7,0.6-1.2c0.1-0.3,0.2-0.6,0.2-1.1C3136.7-274.4,3136.7-274.4,3136.7-274.5L3136.7-274.5z M3105.5-266
		c-3.1,0-5.6-2.5-5.6-5.6s2.5-5.6,5.6-5.6s5.6,2.5,5.6,5.6C3111-268.5,3108.6-266,3105.5-266z"/>
	<path class="st17" d="M3126.6-256l-14.4,24.8l-0.4,0.7c-0.3,0.3-0.9,0.5-1.3,0.5c-0.8,0-1.8-0.7-1.8-1.5V-256H3126.6z"/>
	<path class="st17" d="M3084.2-256l14.4,24.8l0.4,0.7c0.3,0.3,0.7,0.5,1.1,0.5c0.8,0,1.6-0.7,1.6-1.5V-256H3084.2z"/>
</g>
<g>
	<circle class="st0" cx="3123.8" cy="-241" r="8.4"/>
	<path class="st0" d="M3124.1-239.6L3124.1-239.6c-3.5,0-6.3-2.8-6.3-6.3v-31.8c0-3.5,2.8-6.3,6.3-6.3l0,0c3.5,0,6.3,2.8,6.3,6.3
		v31.8C3130.4-242.4,3127.6-239.6,3124.1-239.6z"/>
	<path d="M3128.9-245.9v-31.7c0-1.4-0.5-2.6-1.4-3.5s-2.1-1.4-3.5-1.4c-2.7,0-4.9,2.2-4.9,4.9v31.5c-1.3,1.2-2.1,2.8-2.2,4.7
		c0,0.1,0,0.3,0,0.4c0,0.1,0,0.3,0,0.4c0.2,3.7,3.3,6.6,7,6.6c3.9,0,7-3.1,7-7C3130.8-242.9,3130-244.6,3128.9-245.9z M3122.7-274.7
		h-2.2v-2.5c0-1.9,1.6-3.5,3.5-3.5c1,0,1.9,0.4,2.5,1s1,1.5,1,2.5v30.2c-1.1-0.6-2.3-1-3.6-1c-1.2,0-2.4,0.3-3.4,0.9v-5.1h2.2
		c0.2,0,0.4-0.1,0.5-0.2c0.1-0.1,0.2-0.3,0.2-0.5c0-0.4-0.3-0.7-0.7-0.7h-2.2v-5.6h2.1c0.2,0,0.4-0.1,0.5-0.2s0.2-0.3,0.2-0.5
		c0-0.4-0.3-0.7-0.7-0.7h-2.1v-5.6h2.1c0.2,0,0.4-0.1,0.5-0.2s0.2-0.3,0.2-0.5c0-0.4-0.3-0.7-0.7-0.7h-2.1v-5.6h2.2
		c0.2,0,0.4-0.1,0.5-0.2s0.2-0.3,0.2-0.5l0,0C3123.4-274.3,3123.1-274.7,3122.7-274.7z M3123.7-235.4c-3.1,0-5.6-2.5-5.6-5.6
		c0-1.2,0.4-2.3,1-3.2c0.4-0.5,0.8-1,1.3-1.3c0.9-0.7,2.1-1.1,3.4-1.1c1.4,0,2.7,0.5,3.6,1.3c0.5,0.4,0.8,0.9,1.2,1.4
		c0.5,0.8,0.8,1.8,0.8,2.9C3129.4-237.9,3126.8-235.4,3123.7-235.4z"/>
</g>
<linearGradient id="SVGID_32_" gradientUnits="userSpaceOnUse" x1="3322.7" y1="714.0836" x2="3322.7" y2="705.3336" gradientTransform="matrix(1 0 0 -1 0 500)">
	<stop  offset="0" style="stop-color:#CCCCCC"/>
	<stop  offset="1" style="stop-color:#FFFFFF;stop-opacity:0"/>
</linearGradient>
<rect x="3002.7" y="-214.1" class="st59" width="640" height="8.8"/>
<g>
	
		<radialGradient id="SVGID_33_" cx="3543.8999" cy="-174.3" r="60.112" gradientTransform="matrix(1 0 0 -1 0 500)" gradientUnits="userSpaceOnUse">
		<stop  offset="0.75" style="stop-color:#FFFFFF"/>
		<stop  offset="1" style="stop-color:#CCCCCC"/>
	</radialGradient>
	<path class="st60" d="M3543.9,734.5c-33.2,0-60.2-27-60.2-60.2s27-60.2,60.2-60.2s60.2,27,60.2,60.2S3577,734.5,3543.9,734.5z"/>
	<path class="st0" d="M3543.9,619.3c30.4,0,55,24.6,55,55s-24.6,55-55,55s-55-24.6-55-55C3488.9,644,3513.5,619.3,3543.9,619.3
		 M3543.9,609c-36,0-65.3,29.3-65.3,65.3s29.3,65.3,65.3,65.3s65.3-29.3,65.3-65.3S3579.9,609,3543.9,609L3543.9,609z"/>
</g>
<g>
	
		<radialGradient id="SVGID_34_" cx="3397.3" cy="-174.3" r="60.9" gradientTransform="matrix(1 0 0 -1 0 500)" gradientUnits="userSpaceOnUse">
		<stop  offset="0.75" style="stop-color:#FFFFFF"/>
		<stop  offset="1" style="stop-color:#CCCCCC"/>
	</radialGradient>
	<path class="st61" d="M3397.3,735.2c-33.6,0-60.9-27.3-60.9-60.9s27.3-60.9,60.9-60.9c33.6,0,60.9,27.3,60.9,60.9
		S3430.9,735.2,3397.3,735.2z"/>
	<g>
		<path class="st0" d="M3397.3,619.3c30.4,0,55,24.6,55,55s-24.6,55-55,55s-55-24.6-55-55C3342.3,644,3367,619.3,3397.3,619.3
			 M3397.3,607.6c-36.8,0-66.7,29.9-66.7,66.7s29.9,66.7,66.7,66.7s66.7-29.9,66.7-66.7C3464,637.6,3434.1,607.6,3397.3,607.6
			L3397.3,607.6z"/>
	</g>
</g>
<g>
	
		<radialGradient id="SVGID_35_" cx="3246.3" cy="-174.3" r="60.8256" gradientTransform="matrix(1 0 0 -1 0 500)" gradientUnits="userSpaceOnUse">
		<stop  offset="0.75" style="stop-color:#FFFFFF"/>
		<stop  offset="1" style="stop-color:#CCCCCC"/>
	</radialGradient>
	<path class="st62" d="M3246.3,735.2c-33.6,0-60.9-27.3-60.9-60.9s27.3-60.9,60.9-60.9c33.6,0,60.9,27.3,60.9,60.9
		S3279.8,735.2,3246.3,735.2z"/>
	<g>
		<path class="st0" d="M3246.3,619.3c30.4,0,55,24.6,55,55s-24.6,55-55,55s-55-24.6-55-55C3191.3,644,3215.9,619.3,3246.3,619.3
			 M3246.3,607.6c-36.8,0-66.7,29.9-66.7,66.7s29.9,66.7,66.7,66.7s66.7-29.9,66.7-66.7C3313,637.6,3283.1,607.6,3246.3,607.6
			L3246.3,607.6z"/>
	</g>
</g>
<g>
	
		<radialGradient id="SVGID_36_" cx="3100.2" cy="-174.3" r="60.9" gradientTransform="matrix(1 0 0 -1 0 500)" gradientUnits="userSpaceOnUse">
		<stop  offset="0.75" style="stop-color:#FFFFFF"/>
		<stop  offset="1" style="stop-color:#CCCCCC"/>
	</radialGradient>
	<path class="st63" d="M3100.2,735.2c-33.6,0-60.9-27.3-60.9-60.9s27.3-60.9,60.9-60.9c33.6,0,60.9,27.3,60.9,60.9
		C3161.1,707.9,3133.8,735.2,3100.2,735.2z"/>
	<g>
		<path class="st0" d="M3100.2,619.3c30.4,0,55,24.6,55,55s-24.6,55-55,55s-55-24.6-55-55C3045.2,644,3069.9,619.3,3100.2,619.3
			 M3100.2,607.6c-36.8,0-66.7,29.9-66.7,66.7s29.9,66.7,66.7,66.7s66.7-29.9,66.7-66.7C3166.9,637.6,3137,607.6,3100.2,607.6
			L3100.2,607.6z"/>
	</g>
</g>
<rect x="3507.7" y="652.6" width="64.4" height="54.7"/>
<g>
	<path class="st0" d="M3530.2,650.9v6.4c0,2.7-2.2,4.9-4.8,4.9h-3.2c-2.7,0-4.8-2.2-4.8-4.9v-6.5c0-0.2,0-0.3,0-0.5
		c0.1-0.9,0.4-1.7,0.9-2.4c0.1-0.1,0.2-0.2,0.3-0.3c0.9-1,2.2-1.5,3.6-1.5h3.2C3528.1,646.2,3530.2,648.2,3530.2,650.9z"/>
	<path d="M3528.6,651v6.4c0,1.8-1.4,3.2-3.2,3.2h-3.2c-1.8,0-3.2-1.4-3.2-3.2V651c0-1.8,1.4-3.2,3.2-3.2h3.2
		C3527.2,647.8,3528.6,649.2,3528.6,651z"/>
</g>
<g>
	<path class="st0" d="M3562.4,650.9v6.4c0,2.7-2.2,4.9-4.8,4.9h-3.2c-2.7,0-4.8-2.2-4.8-4.9v-6.5c0-0.2,0-0.3,0-0.5
		c0.1-0.9,0.4-1.7,0.9-2.4c0.1-0.1,0.2-0.2,0.3-0.3c0.9-1,2.2-1.5,3.6-1.5h3.2C3560.3,646.2,3562.4,648.2,3562.4,650.9z"/>
	<path d="M3560.8,651v6.4c0,1.8-1.4,3.2-3.2,3.2h-3.2c-1.8,0-3.2-1.4-3.2-3.2V651c0-1.8,1.4-3.2,3.2-3.2h3.2
		C3559.4,647.8,3560.8,649.2,3560.8,651z"/>
</g>
<rect x="3510.9" y="665.5" class="st0" width="57.9" height="38.6"/>
<g>
	<path class="st6" d="M3522.2,683.3c-4.1,0-7.4-3.3-7.4-7.4s3.3-7.4,7.4-7.4c4.1,0,7.4,3.3,7.4,7.4S3526.3,683.3,3522.2,683.3z"/>
	<path d="M3522.2,669.2c3.7,0,6.8,3,6.8,6.8s-3,6.8-6.8,6.8s-6.8-3-6.8-6.8S3518.5,669.2,3522.2,669.2 M3522.2,667.9
		c-4.4,0-8,3.6-8,8l0,0c0,4.4,3.6,8,8,8s8-3.6,8-8l0,0C3530.2,671.5,3526.6,667.9,3522.2,667.9L3522.2,667.9z"/>
</g>
<g>
	<path class="st6" d="M3557.6,683.3c-4.1,0-7.4-3.3-7.4-7.4s3.3-7.4,7.4-7.4c4.1,0,7.4,3.3,7.4,7.4S3561.7,683.3,3557.6,683.3z"/>
	<path d="M3557.6,669.2c3.7,0,6.8,3,6.8,6.8s-3,6.8-6.8,6.8c-3.7,0-6.8-3-6.8-6.8S3553.8,669.2,3557.6,669.2 M3557.6,667.9
		c-4.4,0-8,3.6-8,8l0,0c0,4.4,3.6,8,8,8s8-3.6,8-8l0,0C3565.6,671.5,3562,667.9,3557.6,667.9L3557.6,667.9z"/>
</g>
<g>
	<path class="st6" d="M3522.2,701c-4.1,0-7.4-3.3-7.4-7.4c0-4.1,3.3-7.4,7.4-7.4c4.1,0,7.4,3.3,7.4,7.4S3526.3,701,3522.2,701z"/>
	<path d="M3522.2,686.9c3.7,0,6.8,3,6.8,6.8c0,3.7-3,6.8-6.8,6.8s-6.8-3-6.8-6.8S3518.5,686.9,3522.2,686.9 M3522.2,685.6
		c-4.4,0-8,3.6-8,8l0,0c0,4.4,3.6,8,8,8s8-3.6,8-8l0,0C3530.2,689.2,3526.6,685.6,3522.2,685.6L3522.2,685.6z"/>
</g>
<g>
	<path class="st6" d="M3539.9,701c-4.1,0-7.4-3.3-7.4-7.4c0-4.1,3.3-7.4,7.4-7.4c4.1,0,7.4,3.3,7.4,7.4S3544,701,3539.9,701z"/>
	<path d="M3539.9,686.9c3.7,0,6.8,3,6.8,6.8c0,3.7-3,6.8-6.8,6.8c-3.7,0-6.8-3-6.8-6.8C3533.1,689.9,3536.2,686.9,3539.9,686.9
		 M3539.9,685.6c-4.4,0-8,3.6-8,8l0,0c0,4.4,3.6,8,8,8s8-3.6,8-8l0,0C3547.9,689.2,3544.3,685.6,3539.9,685.6L3539.9,685.6z"/>
</g>
<g>
	<polygon class="st8" points="3533,670.3 3546.8,670.3 3539.9,681.3 	"/>
	<path d="M3545.6,670.9l-5.7,9.2l-5.7-9.2H3545.6 M3547.9,669.6h-16.1l8,12.9L3547.9,669.6L3547.9,669.6z"/>
</g>
<g>
	<polygon class="st8" points="3550.7,688 3564.5,688 3557.6,699 	"/>
	<path d="M3563.3,688.6l-5.7,9.2l-5.7-9.2H3563.3 M3565.6,687.3h-16.1l8,12.9L3565.6,687.3L3565.6,687.3z"/>
</g>
<circle class="st0" cx="3572.1" cy="691.2" r="9.7"/>
<path class="st0" d="M3572.4,692.8L3572.4,692.8c-4,0-7.2-3.2-7.2-7.2v-36.5c0-4,3.2-7.2,7.2-7.2l0,0c4,0,7.2,3.2,7.2,7.2v36.5
	C3579.6,689.6,3576.4,692.8,3572.4,692.8z"/>
<path d="M3577.9,685.6v-36.4c0-1.6-0.6-3-1.7-4c-1-1-2.4-1.6-4-1.6c-3.1,0-5.6,2.5-5.6,5.6v36.1c-1.4,1.4-2.4,3.3-2.6,5.4
	c0,0.2,0,0.3,0,0.5s0,0.3,0,0.5c0.3,4.2,3.7,7.5,8,7.5c4.4,0,8-3.6,8-8C3580.1,689,3579.1,687.1,3577.9,685.6z M3570.8,652.6h-2.6
	v-2.9c0-2.2,1.8-4,4-4c1.1,0,2.1,0.5,2.8,1.2s1.2,1.7,1.2,2.8v34.6c-1.3-0.7-2.7-1.2-4.2-1.2c-1.4,0-2.7,0.4-3.9,1v-5.8h2.6
	c0.2,0,0.4-0.1,0.6-0.2c0.1-0.1,0.2-0.4,0.2-0.6c0-0.5-0.4-0.8-0.8-0.8h-2.6v-6.4h2.4c0.2,0,0.4-0.1,0.6-0.2s0.2-0.4,0.2-0.6
	c0-0.5-0.4-0.8-0.8-0.8h-2.4v-6.4h2.4c0.2,0,0.4-0.1,0.6-0.2s0.2-0.4,0.2-0.6c0-0.5-0.4-0.8-0.8-0.8h-2.4v-6.4h2.6
	c0.2,0,0.4-0.1,0.6-0.2c0.1-0.1,0.2-0.3,0.2-0.6l0,0C3571.6,653,3571.2,652.6,3570.8,652.6z M3572,697.6c-3.5,0-6.4-2.9-6.4-6.4
	c0-1.4,0.4-2.6,1.1-3.6c0.4-0.6,0.9-1.1,1.4-1.5c1.1-0.8,2.4-1.3,3.9-1.3c1.6,0,3.1,0.6,4.2,1.5c0.5,0.5,1,1,1.3,1.6
	c0.6,1,0.9,2.1,0.9,3.3C3578.4,694.8,3575.5,697.6,3572,697.6z"/>
<path d="M3280.5,669.2l-7.5,4.3c-3.1,1.8-6.9,0.8-8.8-2.2v32.2c0,3.6-2.9,6.5-6.6,6.5h-21.7c-3.6,0-6.6-2.9-6.6-6.5v-32.2
	c-1.9,3-5.7,3.9-8.8,2.2l-7.5-4.3c-3.1-1.8-4.2-5.8-2.4-8.9l7.1-12.2c1.3-2.3,3.9-3.5,6.4-3.2c0.1,0,0.2,0,0.3,0h9.3
	c0,3.5,5.8,6.5,13.1,6.5c7.2,0,13-3,13-6.5h9.3c0.1,0,0.2,0,0.3,0c2.5-0.3,5,0.9,6.4,3.2l7.1,12.2
	C3284.7,663.4,3283.7,667.4,3280.5,669.2z"/>
<text transform="matrix(1 0 0 1 3234.3694 695.1)" class="st0 st14 st39">2</text>
<path class="st40" d="M3413.5,645.3c-14-5.2-14,6-28,0"/>
<path class="st40" d="M3407.4,668.7c-9.5-11.5-15.1-1.8-24.2-14"/>
<path class="st40" d="M3390.2,685.9c-2.5-14.7-12.2-9.1-14-24.2"/>
<path class="st40" d="M3367.1,692c5.2-14-6-14,0-28"/>
<path d="M3434.7,709.1c-8.1-3.7-20.6-6.2-34.6-6.2c-14.7,0-27.7,2.6-35.6,6.7c4.1-5.6,18.4-9.8,35.3-9.8
	C3416.2,699.8,3430.1,703.7,3434.7,709.1z"/>
<rect x="3426.9" y="698.4" width="1.6" height="7.8"/>
<g>
	<path class="st0" d="M3427.7,698.9c-3.1,0-5.6-2.5-5.6-5.5s2.5-5.5,5.6-5.5s5.5,2.5,5.5,5.5S3430.7,698.9,3427.7,698.9z"/>
	<path d="M3427.7,688.9c2.5,0,4.5,2,4.5,4.5s-2,4.5-4.5,4.5s-4.5-2-4.5-4.5S3425.2,688.9,3427.7,688.9 M3427.7,686.7
		c-3.7,0-6.6,3-6.6,6.6s3,6.6,6.6,6.6c3.7,0,6.6-3,6.6-6.6S3431.3,686.7,3427.7,686.7L3427.7,686.7z"/>
</g>
<g>
	<g>
		<g>
			<g>
				<g>
					<defs>
						<rect id="SVGID_37_" x="3360.7" y="639.1" width="38.9" height="38.9"/>
					</defs>
					<clipPath id="SVGID_38_">
						<use xlink:href="#SVGID_37_"  style="overflow:visible;"/>
					</clipPath>
					<g class="st64">
						<path class="st0" d="M3367.7,658.1c-6.6,0-11.9-5.4-11.9-11.9c0-6.6,5.4-12,11.9-12s12,5.4,12,11.9
							C3379.7,652.8,3374.3,658.1,3367.7,658.1z"/>
						<path d="M3367.7,635.6c5.9,0,10.6,4.8,10.6,10.6s-4.8,10.6-10.6,10.6s-10.6-4.8-10.6-10.6S3361.9,635.6,3367.7,635.6
							 M3367.7,632.9c-7.3,0-13.3,5.9-13.3,13.3s5.9,13.3,13.3,13.3c7.4,0,13.3-5.9,13.3-13.3S3375,632.9,3367.7,632.9L3367.7,632.9
							z"/>
					</g>
				</g>
			</g>
		</g>
	</g>
</g>
<circle class="st37" cx="3399.3" cy="674.5" r="20.8"/>
<text transform="matrix(1 0 0 1 3388.0554 688.9355)" class="st19 st38">2</text>
<g>
	<path class="st0" d="M3086.9,656.6c-1.3,0-2.5-0.4-3.5-1.2l-0.4-0.4l-0.5,0.3c-1.4,0.8-3,1.3-4.6,1.3c-1,0-2-0.2-2.9-0.5l-0.3-0.1
		l-0.3,0.1c-0.8,0.3-1.7,0.5-2.6,0.5c-4,0-7.3-3.3-7.3-7.3c0-3.6,2.6-6.6,6.1-7.2h0.3l0.2-0.2c1.7-1.9,4.1-3.1,6.7-3.1
		c3.8,0,7.2,2.4,8.4,6l0.2,0.5h0.6c3.1,0,5.6,2.6,5.6,5.7C3092.5,654,3090,656.6,3086.9,656.6z"/>
	<path d="M3077.8,639.5c3.4,0,6.5,2.2,7.7,5.4l0.4,1.1h1.1c2.6,0,4.8,2.2,4.8,4.9s-2.2,4.9-4.9,4.9c-1.1,0-2.2-0.4-3-1.1l-0.9-0.7
		l-1,0.6c-1.3,0.8-2.7,1.2-4.2,1.2c-0.9,0-1.8-0.1-2.6-0.4l-0.6-0.2l-0.6,0.2c-0.7,0.3-1.5,0.4-2.3,0.4c-3.6,0-6.5-2.9-6.5-6.5
		c0-1.5,0.6-3,1.6-4.2s2.4-1.9,3.8-2.2l0.6-0.1l0.4-0.4C3073.2,640.5,3075.4,639.5,3077.8,639.5 M3077.8,637.9
		c-2.9,0-5.6,1.3-7.4,3.4c-3.8,0.6-6.8,4-6.8,8c0,4.5,3.6,8.1,8.1,8.1c1,0,2-0.2,2.9-0.5c1,0.3,2,0.5,3.1,0.5c1.8,0,3.6-0.5,5-1.4
		c1.1,0.9,2.5,1.4,4,1.4c3.6,0,6.5-2.9,6.5-6.5s-2.9-6.4-6.4-6.5C3085.6,640.6,3082,637.9,3077.8,637.9L3077.8,637.9z"/>
</g>
<rect x="3105.4" y="682.3" width="3.2" height="12.8"/>
<rect x="3086.7" y="688.9" width="1.6" height="8.1"/>
<g>
	<path class="st0" d="M3107,682.8c-6.9,0-12.5-5.6-12.5-12.5s5.6-12.5,12.5-12.5s12.5,5.6,12.5,12.5
		C3119.4,677.2,3113.9,682.8,3107,682.8z"/>
	<path d="M3107,659.3c6.1,0,11.1,5,11.1,11.1s-5,11.1-11.1,11.1s-11.1-5-11.1-11.1S3100.9,659.3,3107,659.3 M3107,656.5
		c-7.6,0-13.8,6.2-13.8,13.8s6.2,13.8,13.8,13.8s13.8-6.2,13.8-13.8S3114.6,656.5,3107,656.5L3107,656.5z"/>
</g>
<g>
	<path class="st0" d="M3087.5,691c-3.2,0-5.8-2.6-5.8-5.8s2.6-5.8,5.8-5.8s5.8,2.6,5.8,5.8S3090.7,691,3087.5,691z"/>
	<path d="M3087.5,680.6c2.6,0,4.7,2.1,4.7,4.7s-2.1,4.7-4.7,4.7s-4.7-2.1-4.7-4.7S3084.9,680.6,3087.5,680.6 M3087.5,678.3
		c-3.8,0-6.9,3.1-6.9,6.9s3.1,6.9,6.9,6.9s6.9-3.1,6.9-6.9S3091.3,678.3,3087.5,678.3L3087.5,678.3z"/>
</g>
<path d="M3137.2,704.4c-8.4-3.9-21.5-6.4-36.2-6.4c-15.3,0-28.9,2.7-37.2,6.9c4.3-5.9,19.2-10.2,36.9-10.2
	C3117.9,694.7,3132.4,698.8,3137.2,704.4z"/>
<circle class="st0" cx="3127.9" cy="692.6" r="9.7"/>
<path class="st0" d="M3128.2,694.2L3128.2,694.2c-4,0-7.3-3.3-7.3-7.3v-36.8c0-4,3.3-7.3,7.3-7.3l0,0c4,0,7.3,3.3,7.3,7.3v36.8
	C3135.5,691,3132.3,694.2,3128.2,694.2z"/>
<path d="M3133.8,687v-36.7c0-1.6-0.6-3-1.7-4c-1-1-2.4-1.7-4-1.7c-3.1,0-5.7,2.5-5.7,5.7v36.4c-1.5,1.4-2.5,3.3-2.6,5.4
	c0,0.2,0,0.3,0,0.5s0,0.3,0,0.5c0.3,4.2,3.8,7.6,8.1,7.6c4.5,0,8.1-3.6,8.1-8.1C3136,690.4,3135,688.4,3133.8,687z M3126.6,653.6
	h-2.6v-2.9c0-2.2,1.8-4.1,4.1-4.1c1.1,0,2.1,0.5,2.9,1.2c0.7,0.7,1.2,1.8,1.2,2.9v34.9c-1.3-0.7-2.7-1.2-4.2-1.2
	c-1.4,0-2.8,0.4-3.9,1v-5.9h2.6c0.2,0,0.4-0.1,0.6-0.2c0.1-0.1,0.2-0.4,0.2-0.6c0-0.5-0.4-0.8-0.8-0.8h-2.6v-6.5h2.4
	c0.2,0,0.4-0.1,0.6-0.2s0.2-0.4,0.2-0.6c0-0.5-0.4-0.8-0.8-0.8h-2.4v-6.5h2.4c0.2,0,0.4-0.1,0.6-0.2s0.2-0.4,0.2-0.6
	c0-0.5-0.4-0.8-0.8-0.8h-2.4v-6.5h2.6c0.2,0,0.4-0.1,0.6-0.2c0.1-0.1,0.2-0.3,0.2-0.6l0,0C3127.4,654,3127,653.6,3126.6,653.6z
	 M3127.8,699.1c-3.6,0-6.5-2.9-6.5-6.5c0-1.4,0.4-2.6,1.2-3.7c0.4-0.6,0.9-1.1,1.5-1.5c1.1-0.8,2.4-1.3,3.9-1.3
	c1.6,0,3.1,0.6,4.2,1.6c0.5,0.5,1,1,1.3,1.6c0.6,1,0.9,2.1,0.9,3.3C3134.3,696.2,3131.4,699.1,3127.8,699.1z"/>
<rect x="3002.6" y="-318" class="st51" width="640" height="28"/>
<text transform="matrix(1 0 0 1 3142.6597 -298.0818)" class="st0 st24 st55">Telus</text>
<circle class="st52" cx="3018.7" cy="-303.7" r="9"/>
<circle class="st52" cx="3045.2" cy="-303.7" r="9"/>
<circle class="st53" cx="3070.6" cy="-303.7" r="9"/>
<circle class="st53" cx="3096.2" cy="-303.7" r="9"/>
<circle class="st53" cx="3120.5" cy="-303.7" r="9"/>
<path class="st54" d="M3350.6-300h-56c-2.2,0-4-1.8-4-4l0,0c0-2.2,1.8-4,4-4h56c2.2,0,4,1.8,4,4l0,0
	C3354.6-301.8,3352.8-300,3350.6-300z"/>
<text transform="matrix(1 0 0 1 3129.4995 -141.6002)" class="st24 st15">About this App/Webpage</text>
<text transform="matrix(1 0 0 1 3045.2004 -52.2999)" class="st14 st15">Time Break:  15min per hour</text>
<text transform="matrix(1 0 0 1 3045.2004 -9.0999)" class="st14 st15">Water Advisory: 1 cup every 20 min</text>
<text transform="matrix(1 0 0 1 3045.2004 34.1001)" class="st14 st15">Advice: Post Heat Warnings</text>
</svg>
